<?xml version="1.0" encoding="utf-8" standalone="no"?>
<!DOCTYPE svg PUBLIC "-//W3C//DTD SVG 1.1//EN"
  "http://www.w3.org/Graphics/SVG/1.1/DTD/svg11.dtd">
<svg xmlns:xlink="http://www.w3.org/1999/xlink" width="1000.125937pt" height="366.882187pt" viewBox="0 0 1000.125937 366.882187" xmlns="http://www.w3.org/2000/svg" version="1.1">
 <metadata>
  <rdf:RDF xmlns:dc="http://purl.org/dc/elements/1.1/" xmlns:cc="http://creativecommons.org/ns#" xmlns:rdf="http://www.w3.org/1999/02/22-rdf-syntax-ns#">
   <cc:Work>
    <dc:type rdf:resource="http://purl.org/dc/dcmitype/StillImage"/>
    <dc:date>2026-07-22T22:55:46.158702</dc:date>
    <dc:format>image/svg+xml</dc:format>
    <dc:creator>
     <cc:Agent>
      <dc:title>Matplotlib v3.11.1, https://matplotlib.org/</dc:title>
     </cc:Agent>
    </dc:creator>
   </cc:Work>
  </rdf:RDF>
 </metadata>
 <defs>
  <style type="text/css">*{stroke-linejoin: round; stroke-linecap: butt}</style>
 </defs>
 <g id="figure_1">
  <g id="patch_1">
   <path d="M 0 366.882187 
L 1000.125937 366.882187 
L 1000.125937 0 
L 0 0 
z
" style="fill: #ffffff"/>
  </g>
  <g id="axes_1">
   <g id="patch_2">
    <path d="M 47.288281 328.257871 
L 992.925938 328.257871 
L 992.925938 22.318125 
L 47.288281 22.318125 
z
" style="fill: #ffffff"/>
   </g>
   <g id="matplotlib.axis_1">
    <g id="xtick_1">
     <g id="line2d_1">
      <path d="M 47.288281 328.257871 
L 47.288281 22.318125 
" clip-path="url(#p612d60b3cf)" style="fill: none; stroke: #b0b0b0; stroke-opacity: 0.3; stroke-width: 0.8; stroke-linecap: square"/>
     </g>
     <g id="line2d_2">
      <defs>
       <path id="m950cc91665" d="M 0 0 
L 0 3.5 
" style="stroke: #000000; stroke-width: 0.8"/>
      </defs>
      <g>
       <use xlink:href="#m950cc91665" x="47.288281" y="328.257871" style="stroke: #000000; stroke-width: 0.8"/>
      </g>
     </g>
     <g id="text_1">
      <!-- 05 Jun -->
      <g transform="translate(18.782952 357.601697) rotate(-30) scale(0.1 -0.1)">
       <defs>
        <path id="DejaVuSans-13" d="M 2034 4250 
Q 1547 4250 1301 3770 
Q 1056 3291 1056 2328 
Q 1056 1369 1301 889 
Q 1547 409 2034 409 
Q 2525 409 2770 889 
Q 3016 1369 3016 2328 
Q 3016 3291 2770 3770 
Q 2525 4250 2034 4250 
z
M 2034 4750 
Q 2819 4750 3233 4129 
Q 3647 3509 3647 2328 
Q 3647 1150 3233 529 
Q 2819 -91 2034 -91 
Q 1250 -91 836 529 
Q 422 1150 422 2328 
Q 422 3509 836 4129 
Q 1250 4750 2034 4750 
z
" transform="scale(0.015625)"/>
        <path id="DejaVuSans-18" d="M 691 4666 
L 3169 4666 
L 3169 4134 
L 1269 4134 
L 1269 2991 
Q 1406 3038 1543 3061 
Q 1681 3084 1819 3084 
Q 2600 3084 3056 2656 
Q 3513 2228 3513 1497 
Q 3513 744 3044 326 
Q 2575 -91 1722 -91 
Q 1428 -91 1123 -41 
Q 819 9 494 109 
L 494 744 
Q 775 591 1075 516 
Q 1375 441 1709 441 
Q 2250 441 2565 725 
Q 2881 1009 2881 1497 
Q 2881 1984 2565 2268 
Q 2250 2553 1709 2553 
Q 1456 2553 1204 2497 
Q 953 2441 691 2322 
L 691 4666 
z
" transform="scale(0.015625)"/>
        <path id="DejaVuSans-3" transform="scale(0.015625)"/>
        <path id="DejaVuSans-2d" d="M 628 4666 
L 1259 4666 
L 1259 325 
Q 1259 -519 939 -900 
Q 619 -1281 -91 -1281 
L -331 -1281 
L -331 -750 
L -134 -750 
Q 284 -750 456 -515 
Q 628 -281 628 325 
L 628 4666 
z
" transform="scale(0.015625)"/>
        <path id="DejaVuSans-58" d="M 544 1381 
L 544 3500 
L 1119 3500 
L 1119 1403 
Q 1119 906 1312 657 
Q 1506 409 1894 409 
Q 2359 409 2629 706 
Q 2900 1003 2900 1516 
L 2900 3500 
L 3475 3500 
L 3475 0 
L 2900 0 
L 2900 538 
Q 2691 219 2414 64 
Q 2138 -91 1772 -91 
Q 1169 -91 856 284 
Q 544 659 544 1381 
z
M 1991 3584 
L 1991 3584 
z
" transform="scale(0.015625)"/>
        <path id="DejaVuSans-51" d="M 3513 2113 
L 3513 0 
L 2938 0 
L 2938 2094 
Q 2938 2591 2744 2837 
Q 2550 3084 2163 3084 
Q 1697 3084 1428 2787 
Q 1159 2491 1159 1978 
L 1159 0 
L 581 0 
L 581 3500 
L 1159 3500 
L 1159 2956 
Q 1366 3272 1645 3428 
Q 1925 3584 2291 3584 
Q 2894 3584 3203 3211 
Q 3513 2838 3513 2113 
z
" transform="scale(0.015625)"/>
       </defs>
       <use xlink:href="#DejaVuSans-13"/>
       <use xlink:href="#DejaVuSans-18" transform="translate(63.625 0)"/>
       <use xlink:href="#DejaVuSans-3" transform="translate(127.25 0)"/>
       <use xlink:href="#DejaVuSans-2d" transform="translate(159.03125 0)"/>
       <use xlink:href="#DejaVuSans-58" transform="translate(188.53125 0)"/>
       <use xlink:href="#DejaVuSans-51" transform="translate(251.90625 0)"/>
      </g>
     </g>
    </g>
    <g id="xtick_2">
     <g id="line2d_3">
      <path d="M 115.035457 328.257871 
L 115.035457 22.318125 
" clip-path="url(#p612d60b3cf)" style="fill: none; stroke: #b0b0b0; stroke-opacity: 0.3; stroke-width: 0.8; stroke-linecap: square"/>
     </g>
     <g id="line2d_4">
      <g>
       <use xlink:href="#m950cc91665" x="115.035457" y="328.257871" style="stroke: #000000; stroke-width: 0.8"/>
      </g>
     </g>
     <g id="text_2">
      <!-- 06 Jun -->
      <g transform="translate(86.530128 357.601697) rotate(-30) scale(0.1 -0.1)">
       <defs>
        <path id="DejaVuSans-19" d="M 2113 2584 
Q 1688 2584 1439 2293 
Q 1191 2003 1191 1497 
Q 1191 994 1439 701 
Q 1688 409 2113 409 
Q 2538 409 2786 701 
Q 3034 994 3034 1497 
Q 3034 2003 2786 2293 
Q 2538 2584 2113 2584 
z
M 3366 4563 
L 3366 3988 
Q 3128 4100 2886 4159 
Q 2644 4219 2406 4219 
Q 1781 4219 1451 3797 
Q 1122 3375 1075 2522 
Q 1259 2794 1537 2939 
Q 1816 3084 2150 3084 
Q 2853 3084 3261 2657 
Q 3669 2231 3669 1497 
Q 3669 778 3244 343 
Q 2819 -91 2113 -91 
Q 1303 -91 875 529 
Q 447 1150 447 2328 
Q 447 3434 972 4092 
Q 1497 4750 2381 4750 
Q 2619 4750 2861 4703 
Q 3103 4656 3366 4563 
z
" transform="scale(0.015625)"/>
       </defs>
       <use xlink:href="#DejaVuSans-13"/>
       <use xlink:href="#DejaVuSans-19" transform="translate(63.625 0)"/>
       <use xlink:href="#DejaVuSans-3" transform="translate(127.25 0)"/>
       <use xlink:href="#DejaVuSans-2d" transform="translate(159.03125 0)"/>
       <use xlink:href="#DejaVuSans-58" transform="translate(188.53125 0)"/>
       <use xlink:href="#DejaVuSans-51" transform="translate(251.90625 0)"/>
      </g>
     </g>
    </g>
    <g id="xtick_3">
     <g id="line2d_5">
      <path d="M 182.782632 328.257871 
L 182.782632 22.318125 
" clip-path="url(#p612d60b3cf)" style="fill: none; stroke: #b0b0b0; stroke-opacity: 0.3; stroke-width: 0.8; stroke-linecap: square"/>
     </g>
     <g id="line2d_6">
      <g>
       <use xlink:href="#m950cc91665" x="182.782632" y="328.257871" style="stroke: #000000; stroke-width: 0.8"/>
      </g>
     </g>
     <g id="text_3">
      <!-- 07 Jun -->
      <g transform="translate(154.277303 357.601697) rotate(-30) scale(0.1 -0.1)">
       <defs>
        <path id="DejaVuSans-1a" d="M 525 4666 
L 3525 4666 
L 3525 4397 
L 1831 0 
L 1172 0 
L 2766 4134 
L 525 4134 
L 525 4666 
z
" transform="scale(0.015625)"/>
       </defs>
       <use xlink:href="#DejaVuSans-13"/>
       <use xlink:href="#DejaVuSans-1a" transform="translate(63.625 0)"/>
       <use xlink:href="#DejaVuSans-3" transform="translate(127.25 0)"/>
       <use xlink:href="#DejaVuSans-2d" transform="translate(159.03125 0)"/>
       <use xlink:href="#DejaVuSans-58" transform="translate(188.53125 0)"/>
       <use xlink:href="#DejaVuSans-51" transform="translate(251.90625 0)"/>
      </g>
     </g>
    </g>
    <g id="xtick_4">
     <g id="line2d_7">
      <path d="M 250.529807 328.257871 
L 250.529807 22.318125 
" clip-path="url(#p612d60b3cf)" style="fill: none; stroke: #b0b0b0; stroke-opacity: 0.3; stroke-width: 0.8; stroke-linecap: square"/>
     </g>
     <g id="line2d_8">
      <g>
       <use xlink:href="#m950cc91665" x="250.529807" y="328.257871" style="stroke: #000000; stroke-width: 0.8"/>
      </g>
     </g>
     <g id="text_4">
      <!-- 08 Jun -->
      <g transform="translate(222.024478 357.601697) rotate(-30) scale(0.1 -0.1)">
       <defs>
        <path id="DejaVuSans-1b" d="M 2034 2216 
Q 1584 2216 1326 1975 
Q 1069 1734 1069 1313 
Q 1069 891 1326 650 
Q 1584 409 2034 409 
Q 2484 409 2743 651 
Q 3003 894 3003 1313 
Q 3003 1734 2745 1975 
Q 2488 2216 2034 2216 
z
M 1403 2484 
Q 997 2584 770 2862 
Q 544 3141 544 3541 
Q 544 4100 942 4425 
Q 1341 4750 2034 4750 
Q 2731 4750 3128 4425 
Q 3525 4100 3525 3541 
Q 3525 3141 3298 2862 
Q 3072 2584 2669 2484 
Q 3125 2378 3379 2068 
Q 3634 1759 3634 1313 
Q 3634 634 3220 271 
Q 2806 -91 2034 -91 
Q 1263 -91 848 271 
Q 434 634 434 1313 
Q 434 1759 690 2068 
Q 947 2378 1403 2484 
z
M 1172 3481 
Q 1172 3119 1398 2916 
Q 1625 2713 2034 2713 
Q 2441 2713 2670 2916 
Q 2900 3119 2900 3481 
Q 2900 3844 2670 4047 
Q 2441 4250 2034 4250 
Q 1625 4250 1398 4047 
Q 1172 3844 1172 3481 
z
" transform="scale(0.015625)"/>
       </defs>
       <use xlink:href="#DejaVuSans-13"/>
       <use xlink:href="#DejaVuSans-1b" transform="translate(63.625 0)"/>
       <use xlink:href="#DejaVuSans-3" transform="translate(127.25 0)"/>
       <use xlink:href="#DejaVuSans-2d" transform="translate(159.03125 0)"/>
       <use xlink:href="#DejaVuSans-58" transform="translate(188.53125 0)"/>
       <use xlink:href="#DejaVuSans-51" transform="translate(251.90625 0)"/>
      </g>
     </g>
    </g>
    <g id="xtick_5">
     <g id="line2d_9">
      <path d="M 318.276983 328.257871 
L 318.276983 22.318125 
" clip-path="url(#p612d60b3cf)" style="fill: none; stroke: #b0b0b0; stroke-opacity: 0.3; stroke-width: 0.8; stroke-linecap: square"/>
     </g>
     <g id="line2d_10">
      <g>
       <use xlink:href="#m950cc91665" x="318.276983" y="328.257871" style="stroke: #000000; stroke-width: 0.8"/>
      </g>
     </g>
     <g id="text_5">
      <!-- 09 Jun -->
      <g transform="translate(289.771654 357.601697) rotate(-30) scale(0.1 -0.1)">
       <defs>
        <path id="DejaVuSans-1c" d="M 703 97 
L 703 672 
Q 941 559 1184 500 
Q 1428 441 1663 441 
Q 2288 441 2617 861 
Q 2947 1281 2994 2138 
Q 2813 1869 2534 1725 
Q 2256 1581 1919 1581 
Q 1219 1581 811 2004 
Q 403 2428 403 3163 
Q 403 3881 828 4315 
Q 1253 4750 1959 4750 
Q 2769 4750 3195 4129 
Q 3622 3509 3622 2328 
Q 3622 1225 3098 567 
Q 2575 -91 1691 -91 
Q 1453 -91 1209 -44 
Q 966 3 703 97 
z
M 1959 2075 
Q 2384 2075 2632 2365 
Q 2881 2656 2881 3163 
Q 2881 3666 2632 3958 
Q 2384 4250 1959 4250 
Q 1534 4250 1286 3958 
Q 1038 3666 1038 3163 
Q 1038 2656 1286 2365 
Q 1534 2075 1959 2075 
z
" transform="scale(0.015625)"/>
       </defs>
       <use xlink:href="#DejaVuSans-13"/>
       <use xlink:href="#DejaVuSans-1c" transform="translate(63.625 0)"/>
       <use xlink:href="#DejaVuSans-3" transform="translate(127.25 0)"/>
       <use xlink:href="#DejaVuSans-2d" transform="translate(159.03125 0)"/>
       <use xlink:href="#DejaVuSans-58" transform="translate(188.53125 0)"/>
       <use xlink:href="#DejaVuSans-51" transform="translate(251.90625 0)"/>
      </g>
     </g>
    </g>
    <g id="xtick_6">
     <g id="line2d_11">
      <path d="M 386.024158 328.257871 
L 386.024158 22.318125 
" clip-path="url(#p612d60b3cf)" style="fill: none; stroke: #b0b0b0; stroke-opacity: 0.3; stroke-width: 0.8; stroke-linecap: square"/>
     </g>
     <g id="line2d_12">
      <g>
       <use xlink:href="#m950cc91665" x="386.024158" y="328.257871" style="stroke: #000000; stroke-width: 0.8"/>
      </g>
     </g>
     <g id="text_6">
      <!-- 10 Jun -->
      <g transform="translate(357.518829 357.601697) rotate(-30) scale(0.1 -0.1)">
       <defs>
        <path id="DejaVuSans-14" d="M 794 531 
L 1825 531 
L 1825 4091 
L 703 3866 
L 703 4441 
L 1819 4666 
L 2450 4666 
L 2450 531 
L 3481 531 
L 3481 0 
L 794 0 
L 794 531 
z
" transform="scale(0.015625)"/>
       </defs>
       <use xlink:href="#DejaVuSans-14"/>
       <use xlink:href="#DejaVuSans-13" transform="translate(63.625 0)"/>
       <use xlink:href="#DejaVuSans-3" transform="translate(127.25 0)"/>
       <use xlink:href="#DejaVuSans-2d" transform="translate(159.03125 0)"/>
       <use xlink:href="#DejaVuSans-58" transform="translate(188.53125 0)"/>
       <use xlink:href="#DejaVuSans-51" transform="translate(251.90625 0)"/>
      </g>
     </g>
    </g>
    <g id="xtick_7">
     <g id="line2d_13">
      <path d="M 453.771333 328.257871 
L 453.771333 22.318125 
" clip-path="url(#p612d60b3cf)" style="fill: none; stroke: #b0b0b0; stroke-opacity: 0.3; stroke-width: 0.8; stroke-linecap: square"/>
     </g>
     <g id="line2d_14">
      <g>
       <use xlink:href="#m950cc91665" x="453.771333" y="328.257871" style="stroke: #000000; stroke-width: 0.8"/>
      </g>
     </g>
     <g id="text_7">
      <!-- 11 Jun -->
      <g transform="translate(425.266004 357.601697) rotate(-30) scale(0.1 -0.1)">
       <use xlink:href="#DejaVuSans-14"/>
       <use xlink:href="#DejaVuSans-14" transform="translate(63.625 0)"/>
       <use xlink:href="#DejaVuSans-3" transform="translate(127.25 0)"/>
       <use xlink:href="#DejaVuSans-2d" transform="translate(159.03125 0)"/>
       <use xlink:href="#DejaVuSans-58" transform="translate(188.53125 0)"/>
       <use xlink:href="#DejaVuSans-51" transform="translate(251.90625 0)"/>
      </g>
     </g>
    </g>
    <g id="xtick_8">
     <g id="line2d_15">
      <path d="M 521.518509 328.257871 
L 521.518509 22.318125 
" clip-path="url(#p612d60b3cf)" style="fill: none; stroke: #b0b0b0; stroke-opacity: 0.3; stroke-width: 0.8; stroke-linecap: square"/>
     </g>
     <g id="line2d_16">
      <g>
       <use xlink:href="#m950cc91665" x="521.518509" y="328.257871" style="stroke: #000000; stroke-width: 0.8"/>
      </g>
     </g>
     <g id="text_8">
      <!-- 12 Jun -->
      <g transform="translate(493.01318 357.601697) rotate(-30) scale(0.1 -0.1)">
       <defs>
        <path id="DejaVuSans-15" d="M 1228 531 
L 3431 531 
L 3431 0 
L 469 0 
L 469 531 
Q 828 903 1448 1529 
Q 2069 2156 2228 2338 
Q 2531 2678 2651 2914 
Q 2772 3150 2772 3378 
Q 2772 3750 2511 3984 
Q 2250 4219 1831 4219 
Q 1534 4219 1204 4116 
Q 875 4013 500 3803 
L 500 4441 
Q 881 4594 1212 4672 
Q 1544 4750 1819 4750 
Q 2544 4750 2975 4387 
Q 3406 4025 3406 3419 
Q 3406 3131 3298 2873 
Q 3191 2616 2906 2266 
Q 2828 2175 2409 1742 
Q 1991 1309 1228 531 
z
" transform="scale(0.015625)"/>
       </defs>
       <use xlink:href="#DejaVuSans-14"/>
       <use xlink:href="#DejaVuSans-15" transform="translate(63.625 0)"/>
       <use xlink:href="#DejaVuSans-3" transform="translate(127.25 0)"/>
       <use xlink:href="#DejaVuSans-2d" transform="translate(159.03125 0)"/>
       <use xlink:href="#DejaVuSans-58" transform="translate(188.53125 0)"/>
       <use xlink:href="#DejaVuSans-51" transform="translate(251.90625 0)"/>
      </g>
     </g>
    </g>
    <g id="xtick_9">
     <g id="line2d_17">
      <path d="M 589.265684 328.257871 
L 589.265684 22.318125 
" clip-path="url(#p612d60b3cf)" style="fill: none; stroke: #b0b0b0; stroke-opacity: 0.3; stroke-width: 0.8; stroke-linecap: square"/>
     </g>
     <g id="line2d_18">
      <g>
       <use xlink:href="#m950cc91665" x="589.265684" y="328.257871" style="stroke: #000000; stroke-width: 0.8"/>
      </g>
     </g>
     <g id="text_9">
      <!-- 13 Jun -->
      <g transform="translate(560.760355 357.601697) rotate(-30) scale(0.1 -0.1)">
       <defs>
        <path id="DejaVuSans-16" d="M 2597 2516 
Q 3050 2419 3304 2112 
Q 3559 1806 3559 1356 
Q 3559 666 3084 287 
Q 2609 -91 1734 -91 
Q 1441 -91 1130 -33 
Q 819 25 488 141 
L 488 750 
Q 750 597 1062 519 
Q 1375 441 1716 441 
Q 2309 441 2620 675 
Q 2931 909 2931 1356 
Q 2931 1769 2642 2001 
Q 2353 2234 1838 2234 
L 1294 2234 
L 1294 2753 
L 1863 2753 
Q 2328 2753 2575 2939 
Q 2822 3125 2822 3475 
Q 2822 3834 2567 4026 
Q 2313 4219 1838 4219 
Q 1578 4219 1281 4162 
Q 984 4106 628 3988 
L 628 4550 
Q 988 4650 1302 4700 
Q 1616 4750 1894 4750 
Q 2613 4750 3031 4423 
Q 3450 4097 3450 3541 
Q 3450 3153 3228 2886 
Q 3006 2619 2597 2516 
z
" transform="scale(0.015625)"/>
       </defs>
       <use xlink:href="#DejaVuSans-14"/>
       <use xlink:href="#DejaVuSans-16" transform="translate(63.625 0)"/>
       <use xlink:href="#DejaVuSans-3" transform="translate(127.25 0)"/>
       <use xlink:href="#DejaVuSans-2d" transform="translate(159.03125 0)"/>
       <use xlink:href="#DejaVuSans-58" transform="translate(188.53125 0)"/>
       <use xlink:href="#DejaVuSans-51" transform="translate(251.90625 0)"/>
      </g>
     </g>
    </g>
    <g id="xtick_10">
     <g id="line2d_19">
      <path d="M 657.01286 328.257871 
L 657.01286 22.318125 
" clip-path="url(#p612d60b3cf)" style="fill: none; stroke: #b0b0b0; stroke-opacity: 0.3; stroke-width: 0.8; stroke-linecap: square"/>
     </g>
     <g id="line2d_20">
      <g>
       <use xlink:href="#m950cc91665" x="657.01286" y="328.257871" style="stroke: #000000; stroke-width: 0.8"/>
      </g>
     </g>
     <g id="text_10">
      <!-- 14 Jun -->
      <g transform="translate(628.507531 357.601697) rotate(-30) scale(0.1 -0.1)">
       <defs>
        <path id="DejaVuSans-17" d="M 2419 4116 
L 825 1625 
L 2419 1625 
L 2419 4116 
z
M 2253 4666 
L 3047 4666 
L 3047 1625 
L 3713 1625 
L 3713 1100 
L 3047 1100 
L 3047 0 
L 2419 0 
L 2419 1100 
L 313 1100 
L 313 1709 
L 2253 4666 
z
" transform="scale(0.015625)"/>
       </defs>
       <use xlink:href="#DejaVuSans-14"/>
       <use xlink:href="#DejaVuSans-17" transform="translate(63.625 0)"/>
       <use xlink:href="#DejaVuSans-3" transform="translate(127.25 0)"/>
       <use xlink:href="#DejaVuSans-2d" transform="translate(159.03125 0)"/>
       <use xlink:href="#DejaVuSans-58" transform="translate(188.53125 0)"/>
       <use xlink:href="#DejaVuSans-51" transform="translate(251.90625 0)"/>
      </g>
     </g>
    </g>
    <g id="xtick_11">
     <g id="line2d_21">
      <path d="M 724.760035 328.257871 
L 724.760035 22.318125 
" clip-path="url(#p612d60b3cf)" style="fill: none; stroke: #b0b0b0; stroke-opacity: 0.3; stroke-width: 0.8; stroke-linecap: square"/>
     </g>
     <g id="line2d_22">
      <g>
       <use xlink:href="#m950cc91665" x="724.760035" y="328.257871" style="stroke: #000000; stroke-width: 0.8"/>
      </g>
     </g>
     <g id="text_11">
      <!-- 15 Jun -->
      <g transform="translate(696.254706 357.601697) rotate(-30) scale(0.1 -0.1)">
       <use xlink:href="#DejaVuSans-14"/>
       <use xlink:href="#DejaVuSans-18" transform="translate(63.625 0)"/>
       <use xlink:href="#DejaVuSans-3" transform="translate(127.25 0)"/>
       <use xlink:href="#DejaVuSans-2d" transform="translate(159.03125 0)"/>
       <use xlink:href="#DejaVuSans-58" transform="translate(188.53125 0)"/>
       <use xlink:href="#DejaVuSans-51" transform="translate(251.90625 0)"/>
      </g>
     </g>
    </g>
    <g id="xtick_12">
     <g id="line2d_23">
      <path d="M 792.50721 328.257871 
L 792.50721 22.318125 
" clip-path="url(#p612d60b3cf)" style="fill: none; stroke: #b0b0b0; stroke-opacity: 0.3; stroke-width: 0.8; stroke-linecap: square"/>
     </g>
     <g id="line2d_24">
      <g>
       <use xlink:href="#m950cc91665" x="792.50721" y="328.257871" style="stroke: #000000; stroke-width: 0.8"/>
      </g>
     </g>
     <g id="text_12">
      <!-- 16 Jun -->
      <g transform="translate(764.001881 357.601697) rotate(-30) scale(0.1 -0.1)">
       <use xlink:href="#DejaVuSans-14"/>
       <use xlink:href="#DejaVuSans-19" transform="translate(63.625 0)"/>
       <use xlink:href="#DejaVuSans-3" transform="translate(127.25 0)"/>
       <use xlink:href="#DejaVuSans-2d" transform="translate(159.03125 0)"/>
       <use xlink:href="#DejaVuSans-58" transform="translate(188.53125 0)"/>
       <use xlink:href="#DejaVuSans-51" transform="translate(251.90625 0)"/>
      </g>
     </g>
    </g>
    <g id="xtick_13">
     <g id="line2d_25">
      <path d="M 860.254386 328.257871 
L 860.254386 22.318125 
" clip-path="url(#p612d60b3cf)" style="fill: none; stroke: #b0b0b0; stroke-opacity: 0.3; stroke-width: 0.8; stroke-linecap: square"/>
     </g>
     <g id="line2d_26">
      <g>
       <use xlink:href="#m950cc91665" x="860.254386" y="328.257871" style="stroke: #000000; stroke-width: 0.8"/>
      </g>
     </g>
     <g id="text_13">
      <!-- 17 Jun -->
      <g transform="translate(831.749057 357.601697) rotate(-30) scale(0.1 -0.1)">
       <use xlink:href="#DejaVuSans-14"/>
       <use xlink:href="#DejaVuSans-1a" transform="translate(63.625 0)"/>
       <use xlink:href="#DejaVuSans-3" transform="translate(127.25 0)"/>
       <use xlink:href="#DejaVuSans-2d" transform="translate(159.03125 0)"/>
       <use xlink:href="#DejaVuSans-58" transform="translate(188.53125 0)"/>
       <use xlink:href="#DejaVuSans-51" transform="translate(251.90625 0)"/>
      </g>
     </g>
    </g>
    <g id="xtick_14">
     <g id="line2d_27">
      <path d="M 928.001561 328.257871 
L 928.001561 22.318125 
" clip-path="url(#p612d60b3cf)" style="fill: none; stroke: #b0b0b0; stroke-opacity: 0.3; stroke-width: 0.8; stroke-linecap: square"/>
     </g>
     <g id="line2d_28">
      <g>
       <use xlink:href="#m950cc91665" x="928.001561" y="328.257871" style="stroke: #000000; stroke-width: 0.8"/>
      </g>
     </g>
     <g id="text_14">
      <!-- 18 Jun -->
      <g transform="translate(899.496232 357.601697) rotate(-30) scale(0.1 -0.1)">
       <use xlink:href="#DejaVuSans-14"/>
       <use xlink:href="#DejaVuSans-1b" transform="translate(63.625 0)"/>
       <use xlink:href="#DejaVuSans-3" transform="translate(127.25 0)"/>
       <use xlink:href="#DejaVuSans-2d" transform="translate(159.03125 0)"/>
       <use xlink:href="#DejaVuSans-58" transform="translate(188.53125 0)"/>
       <use xlink:href="#DejaVuSans-51" transform="translate(251.90625 0)"/>
      </g>
     </g>
    </g>
   </g>
   <g id="matplotlib.axis_2">
    <g id="ytick_1">
     <g id="line2d_29">
      <path d="M 47.288281 314.351519 
L 992.925938 314.351519 
" clip-path="url(#p612d60b3cf)" style="fill: none; stroke: #b0b0b0; stroke-opacity: 0.3; stroke-width: 0.8; stroke-linecap: square"/>
     </g>
     <g id="line2d_30">
      <defs>
       <path id="m1c44a8a755" d="M 0 0 
L -3.5 0 
" style="stroke: #000000; stroke-width: 0.8"/>
      </defs>
      <g>
       <use xlink:href="#m1c44a8a755" x="47.288281" y="314.351519" style="stroke: #000000; stroke-width: 0.8"/>
      </g>
     </g>
     <g id="text_15">
      <!-- 0 -->
      <g transform="translate(33.925781 318.150347) scale(0.1 -0.1)">
       <use xlink:href="#DejaVuSans-13"/>
      </g>
     </g>
    </g>
    <g id="ytick_2">
     <g id="line2d_31">
      <path d="M 47.288281 279.866798 
L 992.925938 279.866798 
" clip-path="url(#p612d60b3cf)" style="fill: none; stroke: #b0b0b0; stroke-opacity: 0.3; stroke-width: 0.8; stroke-linecap: square"/>
     </g>
     <g id="line2d_32">
      <g>
       <use xlink:href="#m1c44a8a755" x="47.288281" y="279.866798" style="stroke: #000000; stroke-width: 0.8"/>
      </g>
     </g>
     <g id="text_16">
      <!-- 20 -->
      <g transform="translate(27.563281 283.665626) scale(0.1 -0.1)">
       <use xlink:href="#DejaVuSans-15"/>
       <use xlink:href="#DejaVuSans-13" transform="translate(63.625 0)"/>
      </g>
     </g>
    </g>
    <g id="ytick_3">
     <g id="line2d_33">
      <path d="M 47.288281 245.382077 
L 992.925938 245.382077 
" clip-path="url(#p612d60b3cf)" style="fill: none; stroke: #b0b0b0; stroke-opacity: 0.3; stroke-width: 0.8; stroke-linecap: square"/>
     </g>
     <g id="line2d_34">
      <g>
       <use xlink:href="#m1c44a8a755" x="47.288281" y="245.382077" style="stroke: #000000; stroke-width: 0.8"/>
      </g>
     </g>
     <g id="text_17">
      <!-- 40 -->
      <g transform="translate(27.563281 249.180905) scale(0.1 -0.1)">
       <use xlink:href="#DejaVuSans-17"/>
       <use xlink:href="#DejaVuSans-13" transform="translate(63.625 0)"/>
      </g>
     </g>
    </g>
    <g id="ytick_4">
     <g id="line2d_35">
      <path d="M 47.288281 210.897357 
L 992.925938 210.897357 
" clip-path="url(#p612d60b3cf)" style="fill: none; stroke: #b0b0b0; stroke-opacity: 0.3; stroke-width: 0.8; stroke-linecap: square"/>
     </g>
     <g id="line2d_36">
      <g>
       <use xlink:href="#m1c44a8a755" x="47.288281" y="210.897357" style="stroke: #000000; stroke-width: 0.8"/>
      </g>
     </g>
     <g id="text_18">
      <!-- 60 -->
      <g transform="translate(27.563281 214.696185) scale(0.1 -0.1)">
       <use xlink:href="#DejaVuSans-19"/>
       <use xlink:href="#DejaVuSans-13" transform="translate(63.625 0)"/>
      </g>
     </g>
    </g>
    <g id="ytick_5">
     <g id="line2d_37">
      <path d="M 47.288281 176.412636 
L 992.925938 176.412636 
" clip-path="url(#p612d60b3cf)" style="fill: none; stroke: #b0b0b0; stroke-opacity: 0.3; stroke-width: 0.8; stroke-linecap: square"/>
     </g>
     <g id="line2d_38">
      <g>
       <use xlink:href="#m1c44a8a755" x="47.288281" y="176.412636" style="stroke: #000000; stroke-width: 0.8"/>
      </g>
     </g>
     <g id="text_19">
      <!-- 80 -->
      <g transform="translate(27.563281 180.211464) scale(0.1 -0.1)">
       <use xlink:href="#DejaVuSans-1b"/>
       <use xlink:href="#DejaVuSans-13" transform="translate(63.625 0)"/>
      </g>
     </g>
    </g>
    <g id="ytick_6">
     <g id="line2d_39">
      <path d="M 47.288281 141.927915 
L 992.925938 141.927915 
" clip-path="url(#p612d60b3cf)" style="fill: none; stroke: #b0b0b0; stroke-opacity: 0.3; stroke-width: 0.8; stroke-linecap: square"/>
     </g>
     <g id="line2d_40">
      <g>
       <use xlink:href="#m1c44a8a755" x="47.288281" y="141.927915" style="stroke: #000000; stroke-width: 0.8"/>
      </g>
     </g>
     <g id="text_20">
      <!-- 100 -->
      <g transform="translate(21.200781 145.726743) scale(0.1 -0.1)">
       <use xlink:href="#DejaVuSans-14"/>
       <use xlink:href="#DejaVuSans-13" transform="translate(63.625 0)"/>
       <use xlink:href="#DejaVuSans-13" transform="translate(127.25 0)"/>
      </g>
     </g>
    </g>
    <g id="ytick_7">
     <g id="line2d_41">
      <path d="M 47.288281 107.443194 
L 992.925938 107.443194 
" clip-path="url(#p612d60b3cf)" style="fill: none; stroke: #b0b0b0; stroke-opacity: 0.3; stroke-width: 0.8; stroke-linecap: square"/>
     </g>
     <g id="line2d_42">
      <g>
       <use xlink:href="#m1c44a8a755" x="47.288281" y="107.443194" style="stroke: #000000; stroke-width: 0.8"/>
      </g>
     </g>
     <g id="text_21">
      <!-- 120 -->
      <g transform="translate(21.200781 111.242022) scale(0.1 -0.1)">
       <use xlink:href="#DejaVuSans-14"/>
       <use xlink:href="#DejaVuSans-15" transform="translate(63.625 0)"/>
       <use xlink:href="#DejaVuSans-13" transform="translate(127.25 0)"/>
      </g>
     </g>
    </g>
    <g id="ytick_8">
     <g id="line2d_43">
      <path d="M 47.288281 72.958474 
L 992.925938 72.958474 
" clip-path="url(#p612d60b3cf)" style="fill: none; stroke: #b0b0b0; stroke-opacity: 0.3; stroke-width: 0.8; stroke-linecap: square"/>
     </g>
     <g id="line2d_44">
      <g>
       <use xlink:href="#m1c44a8a755" x="47.288281" y="72.958474" style="stroke: #000000; stroke-width: 0.8"/>
      </g>
     </g>
     <g id="text_22">
      <!-- 140 -->
      <g transform="translate(21.200781 76.757302) scale(0.1 -0.1)">
       <use xlink:href="#DejaVuSans-14"/>
       <use xlink:href="#DejaVuSans-17" transform="translate(63.625 0)"/>
       <use xlink:href="#DejaVuSans-13" transform="translate(127.25 0)"/>
      </g>
     </g>
    </g>
    <g id="ytick_9">
     <g id="line2d_45">
      <path d="M 47.288281 38.473753 
L 992.925938 38.473753 
" clip-path="url(#p612d60b3cf)" style="fill: none; stroke: #b0b0b0; stroke-opacity: 0.3; stroke-width: 0.8; stroke-linecap: square"/>
     </g>
     <g id="line2d_46">
      <g>
       <use xlink:href="#m1c44a8a755" x="47.288281" y="38.473753" style="stroke: #000000; stroke-width: 0.8"/>
      </g>
     </g>
     <g id="text_23">
      <!-- 160 -->
      <g transform="translate(21.200781 42.272581) scale(0.1 -0.1)">
       <use xlink:href="#DejaVuSans-14"/>
       <use xlink:href="#DejaVuSans-19" transform="translate(63.625 0)"/>
       <use xlink:href="#DejaVuSans-13" transform="translate(127.25 0)"/>
      </g>
     </g>
    </g>
    <g id="text_24">
     <!-- Power (kW) -->
     <g transform="translate(14.798438 203.734873) rotate(-90) scale(0.1 -0.1)">
      <defs>
       <path id="DejaVuSans-33" d="M 1259 4147 
L 1259 2394 
L 2053 2394 
Q 2494 2394 2734 2622 
Q 2975 2850 2975 3272 
Q 2975 3691 2734 3919 
Q 2494 4147 2053 4147 
L 1259 4147 
z
M 628 4666 
L 2053 4666 
Q 2838 4666 3239 4311 
Q 3641 3956 3641 3272 
Q 3641 2581 3239 2228 
Q 2838 1875 2053 1875 
L 1259 1875 
L 1259 0 
L 628 0 
L 628 4666 
z
" transform="scale(0.015625)"/>
       <path id="DejaVuSans-52" d="M 1959 3097 
Q 1497 3097 1228 2736 
Q 959 2375 959 1747 
Q 959 1119 1226 758 
Q 1494 397 1959 397 
Q 2419 397 2687 759 
Q 2956 1122 2956 1747 
Q 2956 2369 2687 2733 
Q 2419 3097 1959 3097 
z
M 1959 3584 
Q 2709 3584 3137 3096 
Q 3566 2609 3566 1747 
Q 3566 888 3137 398 
Q 2709 -91 1959 -91 
Q 1206 -91 779 398 
Q 353 888 353 1747 
Q 353 2609 779 3096 
Q 1206 3584 1959 3584 
z
" transform="scale(0.015625)"/>
       <path id="DejaVuSans-5a" d="M 269 3500 
L 844 3500 
L 1563 769 
L 2278 3500 
L 2956 3500 
L 3675 769 
L 4391 3500 
L 4966 3500 
L 4050 0 
L 3372 0 
L 2619 2869 
L 1863 0 
L 1184 0 
L 269 3500 
z
" transform="scale(0.015625)"/>
       <path id="DejaVuSans-48" d="M 3597 1894 
L 3597 1613 
L 953 1613 
Q 991 1019 1311 708 
Q 1631 397 2203 397 
Q 2534 397 2845 478 
Q 3156 559 3463 722 
L 3463 178 
Q 3153 47 2828 -22 
Q 2503 -91 2169 -91 
Q 1331 -91 842 396 
Q 353 884 353 1716 
Q 353 2575 817 3079 
Q 1281 3584 2069 3584 
Q 2775 3584 3186 3129 
Q 3597 2675 3597 1894 
z
M 3022 2063 
Q 3016 2534 2758 2815 
Q 2500 3097 2075 3097 
Q 1594 3097 1305 2825 
Q 1016 2553 972 2059 
L 3022 2063 
z
" transform="scale(0.015625)"/>
       <path id="DejaVuSans-55" d="M 2631 2963 
Q 2534 3019 2420 3045 
Q 2306 3072 2169 3072 
Q 1681 3072 1420 2755 
Q 1159 2438 1159 1844 
L 1159 0 
L 581 0 
L 581 3500 
L 1159 3500 
L 1159 2956 
Q 1341 3275 1631 3429 
Q 1922 3584 2338 3584 
Q 2397 3584 2469 3576 
Q 2541 3569 2628 3553 
L 2631 2963 
z
" transform="scale(0.015625)"/>
       <path id="DejaVuSans-b" d="M 1984 4856 
Q 1566 4138 1362 3434 
Q 1159 2731 1159 2009 
Q 1159 1288 1364 580 
Q 1569 -128 1984 -844 
L 1484 -844 
Q 1016 -109 783 600 
Q 550 1309 550 2009 
Q 550 2706 781 3412 
Q 1013 4119 1484 4856 
L 1984 4856 
z
" transform="scale(0.015625)"/>
       <path id="DejaVuSans-4e" d="M 581 4863 
L 1159 4863 
L 1159 1991 
L 2875 3500 
L 3609 3500 
L 1753 1863 
L 3688 0 
L 2938 0 
L 1159 1709 
L 1159 0 
L 581 0 
L 581 4863 
z
" transform="scale(0.015625)"/>
       <path id="DejaVuSans-3a" d="M 213 4666 
L 850 4666 
L 1831 722 
L 2809 4666 
L 3519 4666 
L 4500 722 
L 5478 4666 
L 6119 4666 
L 4947 0 
L 4153 0 
L 3169 4050 
L 2175 0 
L 1381 0 
L 213 4666 
z
" transform="scale(0.015625)"/>
       <path id="DejaVuSans-c" d="M 513 4856 
L 1013 4856 
Q 1481 4119 1714 3412 
Q 1947 2706 1947 2009 
Q 1947 1309 1714 600 
Q 1481 -109 1013 -844 
L 513 -844 
Q 928 -128 1133 580 
Q 1338 1288 1338 2009 
Q 1338 2731 1133 3434 
Q 928 4138 513 4856 
z
" transform="scale(0.015625)"/>
      </defs>
      <use xlink:href="#DejaVuSans-33"/>
      <use xlink:href="#DejaVuSans-52" transform="translate(56.734375 0)"/>
      <use xlink:href="#DejaVuSans-5a" transform="translate(117.921875 0)"/>
      <use xlink:href="#DejaVuSans-48" transform="translate(199.703125 0)"/>
      <use xlink:href="#DejaVuSans-55" transform="translate(261.234375 0)"/>
      <use xlink:href="#DejaVuSans-3" transform="translate(302.34375 0)"/>
      <use xlink:href="#DejaVuSans-b" transform="translate(334.125 0)"/>
      <use xlink:href="#DejaVuSans-4e" transform="translate(373.140625 0)"/>
      <use xlink:href="#DejaVuSans-3a" transform="translate(431.046875 0)"/>
      <use xlink:href="#DejaVuSans-c" transform="translate(529.921875 0)"/>
     </g>
    </g>
   </g>
   <g id="line2d_47">
    <path d="M 47.288281 314.351519 
L 52.933879 314.351519 
L 55.756678 313.661824 
L 58.579477 308.489116 
L 61.402276 298.962712 
L 64.225075 266.762604 
L 67.047874 208.354108 
L 69.870673 156.842557 
L 72.693472 117.917928 
L 75.516271 93.6062 
L 78.33907 81.277912 
L 81.161869 83.476313 
L 83.984668 96.192554 
L 86.807467 119.987011 
L 89.630266 155.420062 
L 92.453065 200.681258 
L 95.275864 251.546221 
L 98.098663 292.496827 
L 100.921462 310.256458 
L 103.744261 314.351519 
L 120.681055 314.351519 
L 123.503854 312.97213 
L 126.326653 307.282151 
L 129.149451 296.46257 
L 131.97225 265.469427 
L 134.795049 210.035239 
L 137.617848 159.85997 
L 140.440647 119.9008 
L 143.263446 93.088929 
L 146.086245 81.665866 
L 148.909044 81.191701 
L 151.731843 93.476882 
L 154.554642 116.538539 
L 157.377441 176.024683 
L 160.20024 221.156561 
L 163.023039 277.366656 
L 165.845838 298.057488 
L 168.668637 309.825399 
L 171.491436 314.351519 
L 191.251029 314.351519 
L 194.073828 310.127141 
L 196.896627 298.833395 
L 199.719426 277.366656 
L 202.542225 250.425468 
L 205.365024 251.158268 
L 208.187823 226.243057 
L 211.010622 236.028097 
L 213.833421 274.435455 
L 216.65622 186.542523 
L 219.479019 148.566224 
L 222.301818 169.515692 
L 225.124617 205.379801 
L 227.947416 230.381224 
L 230.770215 281.892775 
L 233.593014 295.083181 
L 236.415813 311.937588 
L 239.238611 314.351519 
L 256.175405 314.351519 
L 258.998204 313.144554 
L 261.821003 306.98041 
L 264.643802 295.126287 
L 267.466601 266.848816 
L 270.2894 213.569922 
L 273.112199 164.213666 
L 275.934998 128.134027 
L 278.757797 106.969029 
L 281.580596 103.046392 
L 284.403395 105.891382 
L 287.226194 128.823721 
L 290.048993 185.766616 
L 292.871792 296.505676 
L 295.694591 246.201089 
L 298.51739 245.511395 
L 301.340189 283.617011 
L 304.162988 308.44601 
L 306.985787 314.351519 
L 323.922581 314.351519 
L 326.74538 313.144554 
L 329.568179 308.402905 
L 332.390978 299.307559 
L 335.213777 267.366087 
L 338.036576 208.871379 
L 340.859375 157.833993 
L 343.682174 121.150871 
L 346.504972 96.882249 
L 349.327771 83.174572 
L 352.15057 79.553676 
L 354.973369 111.322725 
L 357.796168 166.110325 
L 360.618967 164.946466 
L 363.441766 208.612744 
L 366.264565 249.56335 
L 369.087364 287.496543 
L 371.910163 311.377212 
L 374.732962 314.351519 
L 391.669756 314.351519 
L 394.492555 313.144554 
L 397.315354 308.058057 
L 400.138153 298.531653 
L 402.960952 267.236769 
L 405.783751 211.112886 
L 408.60655 161.799735 
L 411.429349 123.737225 
L 414.252148 98.347849 
L 417.074947 85.631608 
L 419.897746 131.927346 
L 422.720545 155.204533 
L 425.543344 189.473724 
L 428.366143 197.965586 
L 431.188942 217.233924 
L 434.011741 249.994409 
L 436.83454 293.531369 
L 439.657339 310.428882 
L 442.480138 314.351519 
L 459.416931 314.351519 
L 462.23973 313.316977 
L 465.062529 308.532222 
L 467.885328 299.82483 
L 470.708127 268.055781 
L 473.530926 209.862815 
L 476.353725 158.653005 
L 479.176524 122.53026 
L 481.999323 96.96846 
L 484.822122 82.700407 
L 487.644921 81.838289 
L 490.46772 92.959612 
L 493.290519 116.150586 
L 496.113318 152.91992 
L 498.936117 196.45688 
L 501.758916 249.606456 
L 504.581715 293.488263 
L 507.404514 310.515094 
L 510.227313 314.351519 
L 527.164107 314.351519 
L 529.986906 313.661824 
L 532.809705 308.704646 
L 535.632504 300.77316 
L 538.455303 268.012675 
L 541.278102 210.164556 
L 544.100901 162.446324 
L 549.746499 98.434061 
L 552.569298 87.010997 
L 555.392097 80.67443 
L 558.214896 116.840281 
L 561.037694 111.79689 
L 563.860493 146.71267 
L 569.506091 257.408624 
L 572.32889 292.970992 
L 575.151689 310.515094 
L 577.974488 314.351519 
L 594.911282 314.351519 
L 597.734081 312.799706 
L 600.55688 307.92874 
L 603.379679 299.609301 
L 606.202478 267.107451 
L 609.025277 207.276461 
L 611.848076 156.411498 
L 614.670875 117.098916 
L 617.493674 91.450905 
L 620.316473 81.40723 
L 623.139272 85.416079 
L 625.962071 87.097209 
L 628.78487 117.917928 
L 631.607669 147.44547 
L 634.430468 192.060078 
L 637.253267 253.960152 
L 640.076066 292.669251 
L 642.898865 310.127141 
L 645.721664 314.351519 
L 662.658458 314.351519 
L 665.481257 312.799706 
L 668.304056 308.187375 
L 671.126854 300.083466 
L 673.949653 267.75404 
L 676.772452 206.888508 
L 679.595251 153.695826 
L 682.41805 114.210821 
L 685.240849 87.140315 
L 688.063648 71.061814 
L 690.886447 71.492873 
L 693.709246 85.200549 
L 696.532045 104.641311 
L 699.354844 138.177702 
L 702.177643 191.672125 
L 707.823241 291.634709 
L 710.64604 310.385776 
L 713.468839 314.179095 
L 716.291638 314.351519 
L 730.405633 314.351519 
L 733.228432 313.316977 
L 736.051231 308.44601 
L 738.87403 299.609301 
L 741.696829 267.710934 
L 744.519628 209.561074 
L 747.342427 157.661569 
L 750.165226 120.116329 
L 752.988025 121.797459 
L 755.810824 99.037544 
L 758.633623 78.389817 
L 761.456422 94.295895 
L 764.279221 141.281327 
L 767.10202 168.006985 
L 769.924819 197.146574 
L 772.747618 244.218218 
L 775.570417 289.048355 
L 778.393215 310.299564 
L 781.216014 314.351519 
L 798.152808 314.351519 
L 800.975607 313.144554 
L 803.798406 308.058057 
L 806.621205 298.445441 
L 809.444004 267.193663 
L 812.266803 209.130015 
L 815.089602 157.489145 
L 817.912401 120.676706 
L 820.7352 95.933919 
L 823.557999 82.571089 
L 826.380798 81.752077 
L 829.203597 92.65787 
L 832.026396 114.124609 
L 834.849195 191.973866 
L 837.671994 193.82742 
L 840.494793 247.364949 
L 843.317592 292.367509 
L 846.140391 310.170246 
L 848.96319 314.351519 
L 865.899984 314.351519 
L 868.722783 313.403189 
L 871.545582 307.454575 
L 874.368381 298.488547 
L 877.19118 267.236769 
L 880.013979 210.380086 
L 882.836778 157.920204 
L 885.659576 122.745789 
L 888.482375 95.675283 
L 891.305174 81.40723 
L 894.127973 91.062952 
L 896.950772 102.313592 
L 899.773571 112.443479 
L 902.59637 178.223084 
L 905.419169 228.225929 
L 911.064767 293.014098 
L 913.887566 310.946153 
L 916.710365 314.351519 
L 933.647159 314.351519 
L 936.469958 313.144554 
L 939.292757 303.359514 
L 942.115556 291.93645 
L 944.938355 259.908766 
L 947.761154 216.156277 
L 950.583953 192.404925 
L 953.406752 137.401795 
L 956.229551 197.706951 
L 959.05235 219.90649 
L 961.875149 247.925326 
L 964.697948 239.99384 
L 967.520747 258.18453 
L 970.343546 262.279591 
L 973.166345 288.832826 
L 975.989144 290.772591 
L 978.811943 298.660971 
L 981.634742 313.316977 
L 984.457541 314.351519 
L 992.925938 314.351519 
L 992.925938 314.351519 
" clip-path="url(#p612d60b3cf)" style="fill: none; stroke: #000000; stroke-width: 1.8; stroke-linecap: square"/>
   </g>
   <g id="line2d_48">
    <path d="M 47.288281 314.351519 
L 55.756678 314.351519 
L 58.579477 312.160113 
L 61.402276 288.055153 
L 64.225075 244.665199 
L 69.870673 133.453364 
L 72.693472 86.735063 
L 75.516271 54.383511 
L 78.33907 37.132019 
L 81.161869 36.224477 
L 83.984668 51.734467 
L 86.807467 82.715032 
L 89.630266 128.269611 
L 92.453065 183.892518 
L 95.275864 249.75765 
L 98.098663 309.07843 
L 100.921462 312.635744 
L 103.744261 310.911041 
L 106.56706 314.351519 
L 123.503854 314.351519 
L 126.326653 312.139476 
L 129.149451 288.997813 
L 131.97225 246.745466 
L 134.795049 195.742224 
L 137.617848 140.172868 
L 140.440647 93.362771 
L 143.263446 64.92444 
L 146.086245 50.379565 
L 148.909044 45.549382 
L 151.731843 108.324379 
L 154.554642 130.752099 
L 157.377441 172.004373 
L 160.20024 199.525665 
L 163.023039 253.367925 
L 165.845838 297.44706 
L 168.668637 312.23588 
L 171.491436 311.429978 
L 174.314235 314.351519 
L 191.251029 314.351519 
L 194.073828 312.251554 
L 196.896627 290.498427 
L 199.719426 248.768503 
L 202.542225 229.768433 
L 205.365024 184.966461 
L 208.187823 159.429437 
L 211.010622 113.059568 
L 213.833421 115.319374 
L 216.65622 62.371923 
L 219.479019 92.226608 
L 222.301818 120.808175 
L 225.124617 171.82014 
L 227.947416 213.684495 
L 230.770215 257.704067 
L 233.593014 290.790372 
L 236.415813 307.255212 
L 239.238611 312.144474 
L 242.06141 314.351519 
L 258.998204 314.351519 
L 261.821003 312.23079 
L 264.643802 290.637741 
L 267.466601 253.494689 
L 270.2894 199.513116 
L 273.112199 143.146366 
L 275.934998 97.435113 
L 278.757797 65.387569 
L 281.580596 47.162818 
L 284.403395 58.440723 
L 287.226194 84.07977 
L 290.048993 93.269335 
L 292.871792 151.973888 
L 298.51739 252.870991 
L 301.340189 284.581846 
L 304.162988 312.08235 
L 306.985787 310.766094 
L 309.808586 314.351519 
L 326.74538 314.351519 
L 329.568179 312.04693 
L 332.390978 289.330686 
L 335.213777 248.850952 
L 340.859375 141.72475 
L 343.682174 96.014666 
L 346.504972 65.096286 
L 349.327771 45.226371 
L 352.15057 83.228631 
L 354.973369 116.224335 
L 357.796168 166.316111 
L 360.618967 158.761772 
L 363.441766 197.500456 
L 366.264565 253.270031 
L 369.087364 295.762373 
L 371.910163 311.434265 
L 374.732962 311.108951 
L 377.555761 314.351519 
L 394.492555 314.351519 
L 397.315354 312.141556 
L 400.138153 289.008834 
L 402.960952 248.414487 
L 405.783751 199.308867 
L 408.60655 145.581669 
L 411.429349 100.312234 
L 414.252148 68.129813 
L 417.074947 58.947146 
L 419.897746 132.202969 
L 422.720545 125.291485 
L 425.543344 130.238395 
L 428.366143 153.357259 
L 431.188942 197.520034 
L 434.011741 251.389672 
L 436.83454 307.622608 
L 439.657339 312.440616 
L 442.480138 310.234735 
L 445.302937 314.351519 
L 462.23973 314.351519 
L 465.062529 311.967038 
L 467.885328 289.392875 
L 470.708127 249.664072 
L 473.530926 198.788737 
L 476.353725 145.823381 
L 479.176524 100.273382 
L 481.999323 67.692218 
L 484.822122 51.399779 
L 487.644921 75.731025 
L 490.46772 138.959472 
L 493.290519 130.143338 
L 496.113318 175.900354 
L 498.936117 207.420136 
L 501.758916 252.545137 
L 504.581715 304.904233 
L 507.404514 312.047871 
L 510.227313 310.274269 
L 513.050112 314.351519 
L 529.986906 314.351519 
L 532.809705 311.813745 
L 535.632504 288.093667 
L 538.455303 247.009045 
L 541.278102 195.652973 
L 546.9237 97.270037 
L 549.746499 68.235451 
L 552.569298 57.708267 
L 558.214896 113.820182 
L 561.037694 170.573324 
L 563.860493 183.109 
L 566.683292 208.072007 
L 569.506091 251.667235 
L 572.32889 299.499312 
L 575.151689 312.359648 
L 577.974488 309.856366 
L 580.797287 314.351519 
L 597.734081 314.351519 
L 600.55688 311.75663 
L 603.379679 287.849824 
L 606.202478 246.30904 
L 611.848076 138.435408 
L 614.670875 92.020231 
L 617.493674 59.762638 
L 620.316473 40.707079 
L 623.139272 38.940267 
L 625.962071 53.477782 
L 628.78487 83.483343 
L 631.607669 127.322375 
L 634.430468 182.893345 
L 640.076066 308.801207 
L 642.898865 312.361807 
L 645.721664 309.658492 
L 648.544463 314.351519 
L 665.481257 314.351519 
L 668.304056 311.783985 
L 671.126854 287.963539 
L 673.949653 246.93808 
L 676.772452 194.5865 
L 679.595251 139.843756 
L 682.41805 92.585474 
L 685.240849 58.277825 
L 688.063648 38.553551 
L 690.886447 37.682077 
L 693.709246 52.735107 
L 696.532045 83.130322 
L 699.354844 129.058914 
L 702.177643 184.009223 
L 707.823241 308.337707 
L 710.64604 312.317748 
L 713.468839 309.565384 
L 716.291638 314.351519 
L 733.228432 314.351519 
L 736.051231 311.780273 
L 738.87403 288.39595 
L 741.696829 247.555532 
L 744.519628 196.064671 
L 747.342427 141.891308 
L 750.165226 95.908965 
L 752.988025 81.849432 
L 755.810824 88.704258 
L 758.633623 85.601867 
L 761.456422 128.684037 
L 764.279221 150.792374 
L 767.10202 184.085218 
L 769.924819 212.335838 
L 772.747618 251.387864 
L 775.570417 292.118115 
L 778.393215 305.758759 
L 781.216014 310.589376 
L 784.038813 314.351519 
L 800.975607 314.351519 
L 803.798406 311.751283 
L 806.621205 288.034775 
L 809.444004 247.468694 
L 815.089602 142.904424 
L 817.912401 97.044998 
L 820.7352 68.206712 
L 823.557999 120.019913 
L 826.380798 76.177138 
L 829.203597 74.46819 
L 832.026396 94.905736 
L 834.849195 135.575778 
L 837.671994 186.737839 
L 840.494793 250.566798 
L 843.317592 299.385538 
L 846.140391 308.441315 
L 848.96319 309.759772 
L 851.785989 314.351519 
L 868.722783 314.351519 
L 871.545582 311.682337 
L 874.368381 287.558876 
L 877.19118 246.315611 
L 882.836778 141.272488 
L 885.659576 98.105105 
L 888.482375 64.243141 
L 891.305174 47.740866 
L 894.127973 44.2312 
L 896.950772 56.780439 
L 899.773571 99.064325 
L 902.59637 133.337608 
L 905.419169 188.827778 
L 908.241968 249.490756 
L 911.064767 300.371097 
L 913.887566 307.145946 
L 916.710365 310.11403 
L 919.533164 314.351519 
L 936.469958 314.351519 
L 939.292757 311.961878 
L 942.115556 290.875943 
L 944.938355 258.904823 
L 947.761154 211.969636 
L 950.583953 174.513735 
L 953.406752 138.610495 
L 956.229551 111.1163 
L 959.05235 165.232356 
L 961.875149 194.608749 
L 964.697948 181.796349 
L 967.520747 230.998719 
L 970.343546 236.115334 
L 973.166345 216.393373 
L 975.989144 258.180528 
L 978.811943 283.285342 
L 981.634742 303.603974 
L 984.457541 311.097031 
L 987.28034 314.351519 
L 992.925938 314.351519 
L 992.925938 314.351519 
" clip-path="url(#p612d60b3cf)" style="fill: none; stroke-dasharray: 4.81,2.08; stroke-dashoffset: 0; stroke: #1f77b4; stroke-width: 1.3"/>
   </g>
   <g id="line2d_49">
    <path d="M 47.288281 314.351519 
L 58.579477 314.351519 
L 61.402276 301.845863 
L 64.225075 253.435575 
L 67.047874 194.127279 
L 69.870673 138.770058 
L 72.693472 95.393475 
L 75.516271 66.054 
L 78.33907 50.919565 
L 81.161869 49.602125 
L 83.984668 61.725175 
L 86.807467 87.370486 
L 89.630266 126.133512 
L 92.453065 174.177864 
L 95.275864 231.064388 
L 98.098663 283.414016 
L 100.921462 305.049051 
L 103.744261 314.351519 
L 126.326653 314.351519 
L 129.149451 302.31765 
L 131.97225 255.395911 
L 137.617848 144.896072 
L 140.440647 101.436389 
L 143.263446 75.721748 
L 146.086245 62.159225 
L 148.909044 58.47816 
L 151.731843 112.197926 
L 154.554642 134.485731 
L 157.377441 172.158273 
L 160.20024 193.034046 
L 163.023039 242.501169 
L 165.845838 288.066501 
L 168.668637 304.649257 
L 171.491436 313.955673 
L 174.314235 314.351519 
L 194.073828 314.351519 
L 196.896627 302.797968 
L 199.719426 257.309652 
L 202.542225 230.842685 
L 205.365024 184.49807 
L 208.187823 158.45826 
L 211.010622 116.177943 
L 213.833421 121.733636 
L 216.65622 73.081641 
L 222.301818 124.066134 
L 225.124617 172.341272 
L 227.947416 212.772049 
L 230.770215 263.039301 
L 233.593014 285.697087 
L 236.415813 304.62785 
L 239.238611 314.310417 
L 247.707008 314.351519 
L 261.821003 314.351519 
L 264.643802 302.357334 
L 267.466601 261.528412 
L 273.112199 147.403966 
L 275.934998 104.623524 
L 278.757797 75.736531 
L 281.580596 59.565748 
L 284.403395 69.408088 
L 287.226194 92.766701 
L 290.048993 98.407684 
L 292.871792 151.324979 
L 295.694591 196.953518 
L 298.51739 245.913458 
L 301.340189 291.279035 
L 304.162988 304.239064 
L 306.985787 313.972228 
L 309.808586 314.351519 
L 329.568179 314.351519 
L 332.390978 302.475974 
L 335.213777 257.700872 
L 338.036576 200.468787 
L 340.859375 147.219667 
L 343.682174 105.040004 
L 346.504972 76.692345 
L 349.327771 59.970633 
L 352.15057 91.170044 
L 354.973369 120.369574 
L 357.796168 167.910069 
L 360.618967 158.775608 
L 363.441766 191.064978 
L 366.264565 246.569028 
L 369.087364 288.701776 
L 371.910163 306.193202 
L 374.732962 314.114707 
L 377.555761 314.351519 
L 397.315354 314.351519 
L 400.138153 302.379585 
L 402.960952 257.483317 
L 408.60655 150.750126 
L 411.429349 108.677763 
L 414.252148 79.382139 
L 417.074947 71.878746 
L 419.897746 134.754339 
L 422.720545 128.285346 
L 425.543344 133.1574 
L 428.366143 152.757302 
L 431.188942 190.955392 
L 436.83454 283.097754 
L 439.657339 305.167785 
L 442.480138 313.826829 
L 445.302937 314.351519 
L 465.062529 314.351519 
L 467.885328 302.51712 
L 470.708127 258.813666 
L 473.530926 203.982941 
L 476.353725 152.134958 
L 479.176524 110.583815 
L 481.999323 81.737361 
L 484.822122 67.427881 
L 487.644921 87.36775 
L 490.46772 140.641803 
L 493.290519 133.614377 
L 496.113318 177.514401 
L 498.936117 204.408082 
L 501.758916 241.643084 
L 504.581715 284.326937 
L 507.404514 304.063074 
L 510.227313 313.846347 
L 513.050112 314.351519 
L 532.809705 314.351519 
L 535.632504 301.985433 
L 538.455303 256.313345 
L 541.278102 200.747707 
L 544.100901 151.812524 
L 546.9237 106.903526 
L 549.746499 81.002524 
L 552.569298 71.378805 
L 555.392097 92.824624 
L 558.214896 118.572957 
L 561.037694 173.448935 
L 563.860493 184.697258 
L 566.683292 205.544942 
L 569.506091 239.114259 
L 572.32889 283.837054 
L 575.151689 304.82978 
L 577.974488 313.709381 
L 580.797287 314.351519 
L 600.55688 314.351519 
L 603.379679 301.825359 
L 606.202478 255.739446 
L 609.025277 198.897366 
L 611.848076 144.994728 
L 614.670875 102.064611 
L 617.493674 72.783499 
L 620.316473 55.694165 
L 623.139272 53.044971 
L 625.962071 63.963676 
L 628.78487 88.458022 
L 631.607669 125.57926 
L 634.430468 173.634357 
L 637.253267 228.573862 
L 640.076066 281.027426 
L 642.898865 304.540895 
L 645.721664 313.629887 
L 648.544463 314.351519 
L 668.304056 314.351519 
L 671.126854 301.950553 
L 673.949653 256.32406 
L 676.772452 199.968881 
L 679.595251 146.296409 
L 682.41805 102.607865 
L 685.240849 71.091769 
L 688.063648 53.587104 
L 690.886447 52.425881 
L 693.709246 63.408807 
L 696.532045 88.190494 
L 699.354844 127.385181 
L 702.177643 174.658124 
L 707.823241 280.524128 
L 710.64604 304.354562 
L 713.468839 313.615136 
L 716.291638 314.351519 
L 736.051231 314.351519 
L 738.87403 302.080543 
L 741.696829 256.749158 
L 744.519628 200.749659 
L 747.342427 147.042397 
L 750.165226 104.119648 
L 752.988025 90.011315 
L 755.810824 93.876317 
L 758.633623 92.578755 
L 761.456422 133.158521 
L 764.279221 152.359539 
L 767.10202 185.179663 
L 769.924819 210.863893 
L 772.747618 244.272797 
L 775.570417 282.179239 
L 778.393215 304.876633 
L 781.216014 313.835843 
L 784.038813 314.351519 
L 803.798406 314.351519 
L 806.621205 301.818775 
L 809.444004 256.672392 
L 812.266803 200.152669 
L 815.089602 147.289239 
L 817.912401 103.962655 
L 820.7352 77.086092 
L 823.557999 119.553007 
L 826.380798 81.547745 
L 829.203597 80.271571 
L 832.026396 96.642746 
L 834.849195 132.348951 
L 837.671994 177.321845 
L 840.494793 239.404494 
L 843.317592 284.191091 
L 846.140391 305.836736 
L 848.96319 313.615246 
L 851.785989 314.351519 
L 871.545582 314.351519 
L 874.368381 301.755758 
L 877.19118 255.661586 
L 880.013979 199.048555 
L 882.836778 146.119871 
L 885.659576 104.746246 
L 888.482375 73.369613 
L 891.305174 58.086743 
L 894.127973 54.0492 
L 896.950772 63.406982 
L 899.773571 100.840857 
L 902.59637 130.216226 
L 905.419169 178.804329 
L 908.241968 231.982509 
L 911.064767 279.982349 
L 913.887566 301.050613 
L 916.710365 313.178984 
L 919.533164 314.351519 
L 939.292757 314.351519 
L 942.115556 301.56098 
L 944.938355 266.448761 
L 947.761154 216.961188 
L 950.583953 179.412838 
L 953.406752 145.112005 
L 956.229551 118.942615 
L 959.05235 166.658372 
L 961.875149 196.266317 
L 964.697948 184.423737 
L 967.520747 235.242232 
L 970.343546 241.087231 
L 973.166345 217.633277 
L 975.989144 264.09469 
L 978.811943 284.83363 
L 981.634742 307.915627 
L 984.457541 313.593334 
L 987.28034 314.351519 
L 992.925938 314.351519 
L 992.925938 314.351519 
" clip-path="url(#p612d60b3cf)" style="fill: none; stroke-dasharray: 8.32,2.08,1.3,2.08; stroke-dashoffset: 0; stroke: #2ca02c; stroke-width: 1.3"/>
   </g>
   <g id="patch_3">
    <path d="M 47.288281 328.257871 
L 47.288281 22.318125 
" style="fill: none; stroke: #000000; stroke-width: 0.8; stroke-linejoin: miter; stroke-linecap: square"/>
   </g>
   <g id="patch_4">
    <path d="M 992.925938 328.257871 
L 992.925938 22.318125 
" style="fill: none; stroke: #000000; stroke-width: 0.8; stroke-linejoin: miter; stroke-linecap: square"/>
   </g>
   <g id="patch_5">
    <path d="M 47.288281 328.257871 
L 992.925938 328.257871 
" style="fill: none; stroke: #000000; stroke-width: 0.8; stroke-linejoin: miter; stroke-linecap: square"/>
   </g>
   <g id="patch_6">
    <path d="M 47.288281 22.318125 
L 992.925938 22.318125 
" style="fill: none; stroke: #000000; stroke-width: 0.8; stroke-linejoin: miter; stroke-linecap: square"/>
   </g>
   <g id="text_25">
    <!-- Campus Jülich PV, 5–18 June 2023 (matched ERA5; inverter/aging derates) -->
    <g transform="translate(295.963047 16.318125) scale(0.12 -0.12)">
     <defs>
      <path id="DejaVuSans-26" d="M 4122 4306 
L 4122 3641 
Q 3803 3938 3442 4084 
Q 3081 4231 2675 4231 
Q 1875 4231 1450 3742 
Q 1025 3253 1025 2328 
Q 1025 1406 1450 917 
Q 1875 428 2675 428 
Q 3081 428 3442 575 
Q 3803 722 4122 1019 
L 4122 359 
Q 3791 134 3420 21 
Q 3050 -91 2638 -91 
Q 1578 -91 968 557 
Q 359 1206 359 2328 
Q 359 3453 968 4101 
Q 1578 4750 2638 4750 
Q 3056 4750 3426 4639 
Q 3797 4528 4122 4306 
z
" transform="scale(0.015625)"/>
      <path id="DejaVuSans-44" d="M 2194 1759 
Q 1497 1759 1228 1600 
Q 959 1441 959 1056 
Q 959 750 1161 570 
Q 1363 391 1709 391 
Q 2188 391 2477 730 
Q 2766 1069 2766 1631 
L 2766 1759 
L 2194 1759 
z
M 3341 1997 
L 3341 0 
L 2766 0 
L 2766 531 
Q 2569 213 2275 61 
Q 1981 -91 1556 -91 
Q 1019 -91 701 211 
Q 384 513 384 1019 
Q 384 1609 779 1909 
Q 1175 2209 1959 2209 
L 2766 2209 
L 2766 2266 
Q 2766 2663 2505 2880 
Q 2244 3097 1772 3097 
Q 1472 3097 1187 3025 
Q 903 2953 641 2809 
L 641 3341 
Q 956 3463 1253 3523 
Q 1550 3584 1831 3584 
Q 2591 3584 2966 3190 
Q 3341 2797 3341 1997 
z
" transform="scale(0.015625)"/>
      <path id="DejaVuSans-50" d="M 3328 2828 
Q 3544 3216 3844 3400 
Q 4144 3584 4550 3584 
Q 5097 3584 5394 3201 
Q 5691 2819 5691 2113 
L 5691 0 
L 5113 0 
L 5113 2094 
Q 5113 2597 4934 2840 
Q 4756 3084 4391 3084 
Q 3944 3084 3684 2787 
Q 3425 2491 3425 1978 
L 3425 0 
L 2847 0 
L 2847 2094 
Q 2847 2600 2669 2842 
Q 2491 3084 2119 3084 
Q 1678 3084 1418 2786 
Q 1159 2488 1159 1978 
L 1159 0 
L 581 0 
L 581 3500 
L 1159 3500 
L 1159 2956 
Q 1356 3278 1631 3431 
Q 1906 3584 2284 3584 
Q 2666 3584 2933 3390 
Q 3200 3197 3328 2828 
z
" transform="scale(0.015625)"/>
      <path id="DejaVuSans-53" d="M 1159 525 
L 1159 -1331 
L 581 -1331 
L 581 3500 
L 1159 3500 
L 1159 2969 
Q 1341 3281 1617 3432 
Q 1894 3584 2278 3584 
Q 2916 3584 3314 3078 
Q 3713 2572 3713 1747 
Q 3713 922 3314 415 
Q 2916 -91 2278 -91 
Q 1894 -91 1617 61 
Q 1341 213 1159 525 
z
M 3116 1747 
Q 3116 2381 2855 2742 
Q 2594 3103 2138 3103 
Q 1681 3103 1420 2742 
Q 1159 2381 1159 1747 
Q 1159 1113 1420 752 
Q 1681 391 2138 391 
Q 2594 391 2855 752 
Q 3116 1113 3116 1747 
z
" transform="scale(0.015625)"/>
      <path id="DejaVuSans-56" d="M 2834 3397 
L 2834 2853 
Q 2591 2978 2328 3040 
Q 2066 3103 1784 3103 
Q 1356 3103 1142 2972 
Q 928 2841 928 2578 
Q 928 2378 1081 2264 
Q 1234 2150 1697 2047 
L 1894 2003 
Q 2506 1872 2764 1633 
Q 3022 1394 3022 966 
Q 3022 478 2636 193 
Q 2250 -91 1575 -91 
Q 1294 -91 989 -36 
Q 684 19 347 128 
L 347 722 
Q 666 556 975 473 
Q 1284 391 1588 391 
Q 1994 391 2212 530 
Q 2431 669 2431 922 
Q 2431 1156 2273 1281 
Q 2116 1406 1581 1522 
L 1381 1569 
Q 847 1681 609 1914 
Q 372 2147 372 2553 
Q 372 3047 722 3315 
Q 1072 3584 1716 3584 
Q 2034 3584 2315 3537 
Q 2597 3491 2834 3397 
z
" transform="scale(0.015625)"/>
      <path id="DejaVuSans-be" d="M 544 1381 
L 544 3500 
L 1119 3500 
L 1119 1403 
Q 1119 906 1312 657 
Q 1506 409 1894 409 
Q 2359 409 2629 706 
Q 2900 1003 2900 1516 
L 2900 3500 
L 3475 3500 
L 3475 0 
L 2900 0 
L 2900 538 
Q 2691 219 2414 64 
Q 2138 -91 1772 -91 
Q 1169 -91 856 284 
Q 544 659 544 1381 
z
M 1991 3584 
L 1991 3584 
z
M 2278 4850 
L 2912 4850 
L 2912 4219 
L 2278 4219 
L 2278 4850 
z
M 1056 4850 
L 1690 4850 
L 1690 4219 
L 1056 4219 
L 1056 4850 
z
" transform="scale(0.015625)"/>
      <path id="DejaVuSans-4f" d="M 603 4863 
L 1178 4863 
L 1178 0 
L 603 0 
L 603 4863 
z
" transform="scale(0.015625)"/>
      <path id="DejaVuSans-4c" d="M 603 3500 
L 1178 3500 
L 1178 0 
L 603 0 
L 603 3500 
z
M 603 4863 
L 1178 4863 
L 1178 4134 
L 603 4134 
L 603 4863 
z
" transform="scale(0.015625)"/>
      <path id="DejaVuSans-46" d="M 3122 3366 
L 3122 2828 
Q 2878 2963 2633 3030 
Q 2388 3097 2138 3097 
Q 1578 3097 1268 2742 
Q 959 2388 959 1747 
Q 959 1106 1268 751 
Q 1578 397 2138 397 
Q 2388 397 2633 464 
Q 2878 531 3122 666 
L 3122 134 
Q 2881 22 2623 -34 
Q 2366 -91 2075 -91 
Q 1284 -91 818 406 
Q 353 903 353 1747 
Q 353 2603 823 3093 
Q 1294 3584 2113 3584 
Q 2378 3584 2631 3529 
Q 2884 3475 3122 3366 
z
" transform="scale(0.015625)"/>
      <path id="DejaVuSans-4b" d="M 3513 2113 
L 3513 0 
L 2938 0 
L 2938 2094 
Q 2938 2591 2744 2837 
Q 2550 3084 2163 3084 
Q 1697 3084 1428 2787 
Q 1159 2491 1159 1978 
L 1159 0 
L 581 0 
L 581 4863 
L 1159 4863 
L 1159 2956 
Q 1366 3272 1645 3428 
Q 1925 3584 2291 3584 
Q 2894 3584 3203 3211 
Q 3513 2838 3513 2113 
z
" transform="scale(0.015625)"/>
      <path id="DejaVuSans-39" d="M 1831 0 
L 50 4666 
L 709 4666 
L 2188 738 
L 3669 4666 
L 4325 4666 
L 2547 0 
L 1831 0 
z
" transform="scale(0.015625)"/>
      <path id="DejaVuSans-f" d="M 750 794 
L 1409 794 
L 1409 256 
L 897 -744 
L 494 -744 
L 750 256 
L 750 794 
z
" transform="scale(0.015625)"/>
      <path id="DejaVuSans-af5" d="M 313 1978 
L 2888 1978 
L 2888 1528 
L 313 1528 
L 313 1978 
z
" transform="scale(0.015625)"/>
      <path id="DejaVuSans-57" d="M 1172 4494 
L 1172 3500 
L 2356 3500 
L 2356 3053 
L 1172 3053 
L 1172 1153 
Q 1172 725 1289 603 
Q 1406 481 1766 481 
L 2356 481 
L 2356 0 
L 1766 0 
Q 1100 0 847 248 
Q 594 497 594 1153 
L 594 3053 
L 172 3053 
L 172 3500 
L 594 3500 
L 594 4494 
L 1172 4494 
z
" transform="scale(0.015625)"/>
      <path id="DejaVuSans-47" d="M 2906 2969 
L 2906 4863 
L 3481 4863 
L 3481 0 
L 2906 0 
L 2906 525 
Q 2725 213 2448 61 
Q 2172 -91 1784 -91 
Q 1150 -91 751 415 
Q 353 922 353 1747 
Q 353 2572 751 3078 
Q 1150 3584 1784 3584 
Q 2172 3584 2448 3432 
Q 2725 3281 2906 2969 
z
M 947 1747 
Q 947 1113 1208 752 
Q 1469 391 1925 391 
Q 2381 391 2643 752 
Q 2906 1113 2906 1747 
Q 2906 2381 2643 2742 
Q 2381 3103 1925 3103 
Q 1469 3103 1208 2742 
Q 947 2381 947 1747 
z
" transform="scale(0.015625)"/>
      <path id="DejaVuSans-28" d="M 628 4666 
L 3578 4666 
L 3578 4134 
L 1259 4134 
L 1259 2753 
L 3481 2753 
L 3481 2222 
L 1259 2222 
L 1259 531 
L 3634 531 
L 3634 0 
L 628 0 
L 628 4666 
z
" transform="scale(0.015625)"/>
      <path id="DejaVuSans-35" d="M 2841 2188 
Q 3044 2119 3236 1894 
Q 3428 1669 3622 1275 
L 4263 0 
L 3584 0 
L 2988 1197 
Q 2756 1666 2539 1819 
Q 2322 1972 1947 1972 
L 1259 1972 
L 1259 0 
L 628 0 
L 628 4666 
L 2053 4666 
Q 2853 4666 3247 4331 
Q 3641 3997 3641 3322 
Q 3641 2881 3436 2590 
Q 3231 2300 2841 2188 
z
M 1259 4147 
L 1259 2491 
L 2053 2491 
Q 2509 2491 2742 2702 
Q 2975 2913 2975 3322 
Q 2975 3731 2742 3939 
Q 2509 4147 2053 4147 
L 1259 4147 
z
" transform="scale(0.015625)"/>
      <path id="DejaVuSans-24" d="M 2188 4044 
L 1331 1722 
L 3047 1722 
L 2188 4044 
z
M 1831 4666 
L 2547 4666 
L 4325 0 
L 3669 0 
L 3244 1197 
L 1141 1197 
L 716 0 
L 50 0 
L 1831 4666 
z
" transform="scale(0.015625)"/>
      <path id="DejaVuSans-1e" d="M 750 3309 
L 1409 3309 
L 1409 2516 
L 750 2516 
L 750 3309 
z
M 750 794 
L 1409 794 
L 1409 256 
L 897 -744 
L 494 -744 
L 750 256 
L 750 794 
z
" transform="scale(0.015625)"/>
      <path id="DejaVuSans-59" d="M 191 3500 
L 800 3500 
L 1894 563 
L 2988 3500 
L 3597 3500 
L 2284 0 
L 1503 0 
L 191 3500 
z
" transform="scale(0.015625)"/>
      <path id="DejaVuSans-12" d="M 1625 4666 
L 2156 4666 
L 531 -594 
L 0 -594 
L 1625 4666 
z
" transform="scale(0.015625)"/>
      <path id="DejaVuSans-4a" d="M 2906 1791 
Q 2906 2416 2648 2759 
Q 2391 3103 1925 3103 
Q 1463 3103 1205 2759 
Q 947 2416 947 1791 
Q 947 1169 1205 825 
Q 1463 481 1925 481 
Q 2391 481 2648 825 
Q 2906 1169 2906 1791 
z
M 3481 434 
Q 3481 -459 3084 -895 
Q 2688 -1331 1869 -1331 
Q 1566 -1331 1297 -1286 
Q 1028 -1241 775 -1147 
L 775 -588 
Q 1028 -725 1275 -790 
Q 1522 -856 1778 -856 
Q 2344 -856 2625 -561 
Q 2906 -266 2906 331 
L 2906 616 
Q 2728 306 2450 153 
Q 2172 0 1784 0 
Q 1141 0 747 490 
Q 353 981 353 1791 
Q 353 2603 747 3093 
Q 1141 3584 1784 3584 
Q 2172 3584 2450 3431 
Q 2728 3278 2906 2969 
L 2906 3500 
L 3481 3500 
L 3481 434 
z
" transform="scale(0.015625)"/>
     </defs>
     <use xlink:href="#DejaVuSans-26"/>
     <use xlink:href="#DejaVuSans-44" transform="translate(69.828125 0)"/>
     <use xlink:href="#DejaVuSans-50" transform="translate(131.109375 0)"/>
     <use xlink:href="#DejaVuSans-53" transform="translate(228.515625 0)"/>
     <use xlink:href="#DejaVuSans-58" transform="translate(292 0)"/>
     <use xlink:href="#DejaVuSans-56" transform="translate(355.375 0)"/>
     <use xlink:href="#DejaVuSans-3" transform="translate(407.46875 0)"/>
     <use xlink:href="#DejaVuSans-2d" transform="translate(439.25 0)"/>
     <use xlink:href="#DejaVuSans-be" transform="translate(468.75 0)"/>
     <use xlink:href="#DejaVuSans-4f" transform="translate(532.125 0)"/>
     <use xlink:href="#DejaVuSans-4c" transform="translate(559.90625 0)"/>
     <use xlink:href="#DejaVuSans-46" transform="translate(587.6875 0)"/>
     <use xlink:href="#DejaVuSans-4b" transform="translate(642.671875 0)"/>
     <use xlink:href="#DejaVuSans-3" transform="translate(706.046875 0)"/>
     <use xlink:href="#DejaVuSans-33" transform="translate(737.828125 0)"/>
     <use xlink:href="#DejaVuSans-39" transform="translate(798.125 0)"/>
     <use xlink:href="#DejaVuSans-f" transform="translate(866.53125 0)"/>
     <use xlink:href="#DejaVuSans-3" transform="translate(898.3125 0)"/>
     <use xlink:href="#DejaVuSans-18" transform="translate(930.09375 0)"/>
     <use xlink:href="#DejaVuSans-af5" transform="translate(993.71875 0)"/>
     <use xlink:href="#DejaVuSans-14" transform="translate(1043.71875 0)"/>
     <use xlink:href="#DejaVuSans-1b" transform="translate(1107.34375 0)"/>
     <use xlink:href="#DejaVuSans-3" transform="translate(1170.96875 0)"/>
     <use xlink:href="#DejaVuSans-2d" transform="translate(1202.75 0)"/>
     <use xlink:href="#DejaVuSans-58" transform="translate(1232.25 0)"/>
     <use xlink:href="#DejaVuSans-51" transform="translate(1295.625 0)"/>
     <use xlink:href="#DejaVuSans-48" transform="translate(1359 0)"/>
     <use xlink:href="#DejaVuSans-3" transform="translate(1420.53125 0)"/>
     <use xlink:href="#DejaVuSans-15" transform="translate(1452.3125 0)"/>
     <use xlink:href="#DejaVuSans-13" transform="translate(1515.9375 0)"/>
     <use xlink:href="#DejaVuSans-15" transform="translate(1579.5625 0)"/>
     <use xlink:href="#DejaVuSans-16" transform="translate(1643.1875 0)"/>
     <use xlink:href="#DejaVuSans-3" transform="translate(1706.8125 0)"/>
     <use xlink:href="#DejaVuSans-b" transform="translate(1738.59375 0)"/>
     <use xlink:href="#DejaVuSans-50" transform="translate(1777.609375 0)"/>
     <use xlink:href="#DejaVuSans-44" transform="translate(1875.015625 0)"/>
     <use xlink:href="#DejaVuSans-57" transform="translate(1936.296875 0)"/>
     <use xlink:href="#DejaVuSans-46" transform="translate(1975.5 0)"/>
     <use xlink:href="#DejaVuSans-4b" transform="translate(2030.484375 0)"/>
     <use xlink:href="#DejaVuSans-48" transform="translate(2093.859375 0)"/>
     <use xlink:href="#DejaVuSans-47" transform="translate(2155.390625 0)"/>
     <use xlink:href="#DejaVuSans-3" transform="translate(2218.875 0)"/>
     <use xlink:href="#DejaVuSans-28" transform="translate(2250.65625 0)"/>
     <use xlink:href="#DejaVuSans-35" transform="translate(2313.84375 0)"/>
     <use xlink:href="#DejaVuSans-24" transform="translate(2379.28125 0)"/>
     <use xlink:href="#DejaVuSans-18" transform="translate(2447.6875 0)"/>
     <use xlink:href="#DejaVuSans-1e" transform="translate(2511.3125 0)"/>
     <use xlink:href="#DejaVuSans-3" transform="translate(2545 0)"/>
     <use xlink:href="#DejaVuSans-4c" transform="translate(2576.78125 0)"/>
     <use xlink:href="#DejaVuSans-51" transform="translate(2604.5625 0)"/>
     <use xlink:href="#DejaVuSans-59" transform="translate(2667.9375 0)"/>
     <use xlink:href="#DejaVuSans-48" transform="translate(2727.125 0)"/>
     <use xlink:href="#DejaVuSans-55" transform="translate(2788.65625 0)"/>
     <use xlink:href="#DejaVuSans-57" transform="translate(2829.765625 0)"/>
     <use xlink:href="#DejaVuSans-48" transform="translate(2868.96875 0)"/>
     <use xlink:href="#DejaVuSans-55" transform="translate(2930.5 0)"/>
     <use xlink:href="#DejaVuSans-12" transform="translate(2971.609375 0)"/>
     <use xlink:href="#DejaVuSans-44" transform="translate(3005.296875 0)"/>
     <use xlink:href="#DejaVuSans-4a" transform="translate(3066.578125 0)"/>
     <use xlink:href="#DejaVuSans-4c" transform="translate(3130.0625 0)"/>
     <use xlink:href="#DejaVuSans-51" transform="translate(3157.84375 0)"/>
     <use xlink:href="#DejaVuSans-4a" transform="translate(3221.21875 0)"/>
     <use xlink:href="#DejaVuSans-3" transform="translate(3284.703125 0)"/>
     <use xlink:href="#DejaVuSans-47" transform="translate(3316.484375 0)"/>
     <use xlink:href="#DejaVuSans-48" transform="translate(3379.96875 0)"/>
     <use xlink:href="#DejaVuSans-55" transform="translate(3441.5 0)"/>
     <use xlink:href="#DejaVuSans-44" transform="translate(3482.609375 0)"/>
     <use xlink:href="#DejaVuSans-57" transform="translate(3543.890625 0)"/>
     <use xlink:href="#DejaVuSans-48" transform="translate(3583.09375 0)"/>
     <use xlink:href="#DejaVuSans-56" transform="translate(3644.625 0)"/>
     <use xlink:href="#DejaVuSans-c" transform="translate(3696.71875 0)"/>
    </g>
   </g>
   <g id="legend_1">
    <g id="patch_7">
     <path d="M 54.288281 75.320469 
L 277.457031 75.320469 
Q 279.457031 75.320469 279.457031 73.320469 
L 279.457031 29.318125 
Q 279.457031 27.318125 277.457031 27.318125 
L 54.288281 27.318125 
Q 52.288281 27.318125 52.288281 29.318125 
L 52.288281 73.320469 
Q 52.288281 75.320469 54.288281 75.320469 
z
" style="fill: #ffffff; opacity: 0.95; stroke: #cccccc; stroke-linejoin: miter"/>
    </g>
    <g id="line2d_50">
     <path d="M 56.288281 35.416562 
L 66.288281 35.416562 
L 76.288281 35.416562 
" style="fill: none; stroke: #000000; stroke-width: 1.8; stroke-linecap: square"/>
    </g>
    <g id="text_26">
     <!-- Actual (metered; gaps left blank) -->
     <g transform="translate(84.288281 38.916562) scale(0.1 -0.1)">
      <defs>
       <path id="DejaVuSans-49" d="M 2375 4863 
L 2375 4384 
L 1825 4384 
Q 1516 4384 1395 4259 
Q 1275 4134 1275 3809 
L 1275 3500 
L 2222 3500 
L 2222 3053 
L 1275 3053 
L 1275 0 
L 697 0 
L 697 3053 
L 147 3053 
L 147 3500 
L 697 3500 
L 697 3744 
Q 697 4328 969 4595 
Q 1241 4863 1831 4863 
L 2375 4863 
z
" transform="scale(0.015625)"/>
       <path id="DejaVuSans-45" d="M 3116 1747 
Q 3116 2381 2855 2742 
Q 2594 3103 2138 3103 
Q 1681 3103 1420 2742 
Q 1159 2381 1159 1747 
Q 1159 1113 1420 752 
Q 1681 391 2138 391 
Q 2594 391 2855 752 
Q 3116 1113 3116 1747 
z
M 1159 2969 
Q 1341 3281 1617 3432 
Q 1894 3584 2278 3584 
Q 2916 3584 3314 3078 
Q 3713 2572 3713 1747 
Q 3713 922 3314 415 
Q 2916 -91 2278 -91 
Q 1894 -91 1617 61 
Q 1341 213 1159 525 
L 1159 0 
L 581 0 
L 581 4863 
L 1159 4863 
L 1159 2969 
z
" transform="scale(0.015625)"/>
      </defs>
      <use xlink:href="#DejaVuSans-24"/>
      <use xlink:href="#DejaVuSans-46" transform="translate(66.65625 0)"/>
      <use xlink:href="#DejaVuSans-57" transform="translate(121.640625 0)"/>
      <use xlink:href="#DejaVuSans-58" transform="translate(160.84375 0)"/>
      <use xlink:href="#DejaVuSans-44" transform="translate(224.21875 0)"/>
      <use xlink:href="#DejaVuSans-4f" transform="translate(285.5 0)"/>
      <use xlink:href="#DejaVuSans-3" transform="translate(313.28125 0)"/>
      <use xlink:href="#DejaVuSans-b" transform="translate(345.0625 0)"/>
      <use xlink:href="#DejaVuSans-50" transform="translate(384.078125 0)"/>
      <use xlink:href="#DejaVuSans-48" transform="translate(481.484375 0)"/>
      <use xlink:href="#DejaVuSans-57" transform="translate(543.015625 0)"/>
      <use xlink:href="#DejaVuSans-48" transform="translate(582.21875 0)"/>
      <use xlink:href="#DejaVuSans-55" transform="translate(643.75 0)"/>
      <use xlink:href="#DejaVuSans-48" transform="translate(682.65625 0)"/>
      <use xlink:href="#DejaVuSans-47" transform="translate(744.1875 0)"/>
      <use xlink:href="#DejaVuSans-1e" transform="translate(807.671875 0)"/>
      <use xlink:href="#DejaVuSans-3" transform="translate(841.359375 0)"/>
      <use xlink:href="#DejaVuSans-4a" transform="translate(873.140625 0)"/>
      <use xlink:href="#DejaVuSans-44" transform="translate(936.625 0)"/>
      <use xlink:href="#DejaVuSans-53" transform="translate(997.90625 0)"/>
      <use xlink:href="#DejaVuSans-56" transform="translate(1061.390625 0)"/>
      <use xlink:href="#DejaVuSans-3" transform="translate(1113.484375 0)"/>
      <use xlink:href="#DejaVuSans-4f" transform="translate(1145.265625 0)"/>
      <use xlink:href="#DejaVuSans-48" transform="translate(1173.046875 0)"/>
      <use xlink:href="#DejaVuSans-49" transform="translate(1234.578125 0)"/>
      <use xlink:href="#DejaVuSans-57" transform="translate(1268.03125 0)"/>
      <use xlink:href="#DejaVuSans-3" transform="translate(1307.234375 0)"/>
      <use xlink:href="#DejaVuSans-45" transform="translate(1339.015625 0)"/>
      <use xlink:href="#DejaVuSans-4f" transform="translate(1402.5 0)"/>
      <use xlink:href="#DejaVuSans-44" transform="translate(1430.28125 0)"/>
      <use xlink:href="#DejaVuSans-51" transform="translate(1491.5625 0)"/>
      <use xlink:href="#DejaVuSans-4e" transform="translate(1554.9375 0)"/>
      <use xlink:href="#DejaVuSans-c" transform="translate(1612.84375 0)"/>
     </g>
    </g>
    <g id="line2d_51">
     <path d="M 56.288281 50.417344 
L 66.288281 50.417344 
L 76.288281 50.417344 
" style="fill: none; stroke-dasharray: 4.81,2.08; stroke-dashoffset: 0; stroke: #1f77b4; stroke-width: 1.3"/>
    </g>
    <g id="text_27">
     <!-- PVLib (ERA5 + SAPM × η_inv × aging) -->
     <g transform="translate(84.288281 53.917344) scale(0.1 -0.1)">
      <defs>
       <path id="DejaVuSans-2f" d="M 628 4666 
L 1259 4666 
L 1259 531 
L 3531 531 
L 3531 0 
L 628 0 
L 628 4666 
z
" transform="scale(0.015625)"/>
       <path id="DejaVuSans-e" d="M 2944 4013 
L 2944 2272 
L 4684 2272 
L 4684 1741 
L 2944 1741 
L 2944 0 
L 2419 0 
L 2419 1741 
L 678 1741 
L 678 2272 
L 2419 2272 
L 2419 4013 
L 2944 4013 
z
" transform="scale(0.015625)"/>
       <path id="DejaVuSans-36" d="M 3425 4513 
L 3425 3897 
Q 3066 4069 2747 4153 
Q 2428 4238 2131 4238 
Q 1616 4238 1336 4038 
Q 1056 3838 1056 3469 
Q 1056 3159 1242 3001 
Q 1428 2844 1947 2747 
L 2328 2669 
Q 3034 2534 3370 2195 
Q 3706 1856 3706 1288 
Q 3706 609 3251 259 
Q 2797 -91 1919 -91 
Q 1588 -91 1214 -16 
Q 841 59 441 206 
L 441 856 
Q 825 641 1194 531 
Q 1563 422 1919 422 
Q 2459 422 2753 634 
Q 3047 847 3047 1241 
Q 3047 1584 2836 1778 
Q 2625 1972 2144 2069 
L 1759 2144 
Q 1053 2284 737 2584 
Q 422 2884 422 3419 
Q 422 4038 858 4394 
Q 1294 4750 2059 4750 
Q 2388 4750 2728 4690 
Q 3069 4631 3425 4513 
z
" transform="scale(0.015625)"/>
       <path id="DejaVuSans-30" d="M 628 4666 
L 1569 4666 
L 2759 1491 
L 3956 4666 
L 4897 4666 
L 4897 0 
L 4281 0 
L 4281 4097 
L 3078 897 
L 2444 897 
L 1241 4097 
L 1241 0 
L 628 0 
L 628 4666 
z
" transform="scale(0.015625)"/>
       <path id="DejaVuSans-99" d="M 4488 3438 
L 3059 2003 
L 4488 575 
L 4116 197 
L 2681 1631 
L 1247 197 
L 878 575 
L 2303 2003 
L 878 3438 
L 1247 3816 
L 2681 2381 
L 4116 3816 
L 4488 3438 
z
" transform="scale(0.015625)"/>
       <path id="DejaVuSans-34b" d="M 3513 2113 
L 3513 -1331 
L 2938 -1331 
L 2938 2094 
Q 2938 2591 2744 2837 
Q 2550 3084 2163 3084 
Q 1697 3084 1428 2787 
Q 1159 2491 1159 1978 
L 1159 0 
L 581 0 
L 581 3500 
L 1159 3500 
L 1159 2956 
Q 1366 3272 1644 3428 
Q 1925 3584 2291 3584 
Q 2894 3584 3203 3213 
Q 3513 2838 3513 2113 
z
" transform="scale(0.015625)"/>
       <path id="DejaVuSans-42" d="M 3263 -1063 
L 3263 -1509 
L -63 -1509 
L -63 -1063 
L 3263 -1063 
z
" transform="scale(0.015625)"/>
      </defs>
      <use xlink:href="#DejaVuSans-33"/>
      <use xlink:href="#DejaVuSans-39" transform="translate(60.296875 0)"/>
      <use xlink:href="#DejaVuSans-2f" transform="translate(128.703125 0)"/>
      <use xlink:href="#DejaVuSans-4c" transform="translate(184.421875 0)"/>
      <use xlink:href="#DejaVuSans-45" transform="translate(212.203125 0)"/>
      <use xlink:href="#DejaVuSans-3" transform="translate(275.6875 0)"/>
      <use xlink:href="#DejaVuSans-b" transform="translate(307.46875 0)"/>
      <use xlink:href="#DejaVuSans-28" transform="translate(346.484375 0)"/>
      <use xlink:href="#DejaVuSans-35" transform="translate(409.671875 0)"/>
      <use xlink:href="#DejaVuSans-24" transform="translate(475.109375 0)"/>
      <use xlink:href="#DejaVuSans-18" transform="translate(543.515625 0)"/>
      <use xlink:href="#DejaVuSans-3" transform="translate(607.140625 0)"/>
      <use xlink:href="#DejaVuSans-e" transform="translate(638.921875 0)"/>
      <use xlink:href="#DejaVuSans-3" transform="translate(722.71875 0)"/>
      <use xlink:href="#DejaVuSans-36" transform="translate(754.5 0)"/>
      <use xlink:href="#DejaVuSans-24" transform="translate(819.84375 0)"/>
      <use xlink:href="#DejaVuSans-33" transform="translate(888.25 0)"/>
      <use xlink:href="#DejaVuSans-30" transform="translate(948.546875 0)"/>
      <use xlink:href="#DejaVuSans-3" transform="translate(1034.828125 0)"/>
      <use xlink:href="#DejaVuSans-99" transform="translate(1066.609375 0)"/>
      <use xlink:href="#DejaVuSans-3" transform="translate(1150.40625 0)"/>
      <use xlink:href="#DejaVuSans-34b" transform="translate(1182.1875 0)"/>
      <use xlink:href="#DejaVuSans-42" transform="translate(1245.5625 0)"/>
      <use xlink:href="#DejaVuSans-4c" transform="translate(1295.5625 0)"/>
      <use xlink:href="#DejaVuSans-51" transform="translate(1323.34375 0)"/>
      <use xlink:href="#DejaVuSans-59" transform="translate(1386.71875 0)"/>
      <use xlink:href="#DejaVuSans-3" transform="translate(1445.90625 0)"/>
      <use xlink:href="#DejaVuSans-99" transform="translate(1477.6875 0)"/>
      <use xlink:href="#DejaVuSans-3" transform="translate(1561.484375 0)"/>
      <use xlink:href="#DejaVuSans-44" transform="translate(1593.265625 0)"/>
      <use xlink:href="#DejaVuSans-4a" transform="translate(1654.546875 0)"/>
      <use xlink:href="#DejaVuSans-4c" transform="translate(1718.03125 0)"/>
      <use xlink:href="#DejaVuSans-51" transform="translate(1745.8125 0)"/>
      <use xlink:href="#DejaVuSans-4a" transform="translate(1809.1875 0)"/>
      <use xlink:href="#DejaVuSans-c" transform="translate(1872.671875 0)"/>
     </g>
    </g>
    <g id="line2d_52">
     <path d="M 56.288281 65.418125 
L 66.288281 65.418125 
L 76.288281 65.418125 
" style="fill: none; stroke-dasharray: 8.32,2.08,1.3,2.08; stroke-dashoffset: 0; stroke: #2ca02c; stroke-width: 1.3"/>
    </g>
    <g id="text_28">
     <!-- Atlite (ERA5 CSi × aging) -->
     <g transform="translate(84.288281 68.918125) scale(0.1 -0.1)">
      <use xlink:href="#DejaVuSans-24"/>
      <use xlink:href="#DejaVuSans-57" transform="translate(66.65625 0)"/>
      <use xlink:href="#DejaVuSans-4f" transform="translate(105.859375 0)"/>
      <use xlink:href="#DejaVuSans-4c" transform="translate(133.640625 0)"/>
      <use xlink:href="#DejaVuSans-57" transform="translate(161.421875 0)"/>
      <use xlink:href="#DejaVuSans-48" transform="translate(200.625 0)"/>
      <use xlink:href="#DejaVuSans-3" transform="translate(262.15625 0)"/>
      <use xlink:href="#DejaVuSans-b" transform="translate(293.9375 0)"/>
      <use xlink:href="#DejaVuSans-28" transform="translate(332.953125 0)"/>
      <use xlink:href="#DejaVuSans-35" transform="translate(396.140625 0)"/>
      <use xlink:href="#DejaVuSans-24" transform="translate(461.578125 0)"/>
      <use xlink:href="#DejaVuSans-18" transform="translate(529.984375 0)"/>
      <use xlink:href="#DejaVuSans-3" transform="translate(593.609375 0)"/>
      <use xlink:href="#DejaVuSans-26" transform="translate(625.390625 0)"/>
      <use xlink:href="#DejaVuSans-36" transform="translate(695.21875 0)"/>
      <use xlink:href="#DejaVuSans-4c" transform="translate(758.703125 0)"/>
      <use xlink:href="#DejaVuSans-3" transform="translate(786.484375 0)"/>
      <use xlink:href="#DejaVuSans-99" transform="translate(818.265625 0)"/>
      <use xlink:href="#DejaVuSans-3" transform="translate(902.0625 0)"/>
      <use xlink:href="#DejaVuSans-44" transform="translate(933.84375 0)"/>
      <use xlink:href="#DejaVuSans-4a" transform="translate(995.125 0)"/>
      <use xlink:href="#DejaVuSans-4c" transform="translate(1058.609375 0)"/>
      <use xlink:href="#DejaVuSans-51" transform="translate(1086.390625 0)"/>
      <use xlink:href="#DejaVuSans-4a" transform="translate(1149.765625 0)"/>
      <use xlink:href="#DejaVuSans-c" transform="translate(1213.25 0)"/>
     </g>
    </g>
   </g>
  </g>
 </g>
 <defs>
  <clipPath id="p612d60b3cf">
   <rect x="47.288281" y="22.318125" width="945.637656" height="305.939746"/>
  </clipPath>
 </defs>
</svg>
