<?xml version="1.0" encoding="utf-8" standalone="no"?>
<!DOCTYPE svg PUBLIC "-//W3C//DTD SVG 1.1//EN"
  "http://www.w3.org/Graphics/SVG/1.1/DTD/svg11.dtd">
<svg xmlns:xlink="http://www.w3.org/1999/xlink" width="711.949688pt" height="387.994687pt" viewBox="0 0 711.949688 387.994687" xmlns="http://www.w3.org/2000/svg" version="1.1">
 <metadata>
  <rdf:RDF xmlns:dc="http://purl.org/dc/elements/1.1/" xmlns:cc="http://creativecommons.org/ns#" xmlns:rdf="http://www.w3.org/1999/02/22-rdf-syntax-ns#">
   <cc:Work>
    <dc:type rdf:resource="http://purl.org/dc/dcmitype/StillImage"/>
    <dc:date>2026-07-22T22:55:46.840655</dc:date>
    <dc:format>image/svg+xml</dc:format>
    <dc:creator>
     <cc:Agent>
      <dc:title>Matplotlib v3.11.1, https://matplotlib.org/</dc:title>
     </cc:Agent>
    </dc:creator>
   </cc:Work>
  </rdf:RDF>
 </metadata>
 <defs>
  <style type="text/css">*{stroke-linejoin: round; stroke-linecap: butt}</style>
 </defs>
 <g id="figure_1">
  <g id="patch_1">
   <path d="M 0 387.994687 
L 711.949688 387.994687 
L 711.949688 0 
L 0 0 
z
" style="fill: #ffffff"/>
  </g>
  <g id="axes_1">
   <g id="patch_2">
    <path d="M 47.288281 349.793906 
L 695.205938 349.793906 
L 695.205938 37.922578 
L 47.288281 37.922578 
z
" style="fill: #ffffff"/>
   </g>
   <g id="matplotlib.axis_1">
    <g id="xtick_1">
     <g id="line2d_1">
      <path d="M 47.288281 349.793906 
L 47.288281 37.922578 
" clip-path="url(#p6fe4f174b2)" style="fill: none; stroke: #b0b0b0; stroke-opacity: 0.3; stroke-width: 0.8; stroke-linecap: square"/>
     </g>
     <g id="line2d_2">
      <defs>
       <path id="m15d33085b0" d="M 0 0 
L 0 3.5 
" style="stroke: #000000; stroke-width: 0.8"/>
      </defs>
      <g>
       <use xlink:href="#m15d33085b0" x="47.288281" y="349.793906" style="stroke: #000000; stroke-width: 0.8"/>
      </g>
     </g>
     <g id="text_1">
      <!-- 0 -->
      <g transform="translate(44.107031 364.391562) scale(0.1 -0.1)">
       <defs>
        <path id="DejaVuSans-13" d="M 2034 4250 
Q 1547 4250 1301 3770 
Q 1056 3291 1056 2328 
Q 1056 1369 1301 889 
Q 1547 409 2034 409 
Q 2525 409 2770 889 
Q 3016 1369 3016 2328 
Q 3016 3291 2770 3770 
Q 2525 4250 2034 4250 
z
M 2034 4750 
Q 2819 4750 3233 4129 
Q 3647 3509 3647 2328 
Q 3647 1150 3233 529 
Q 2819 -91 2034 -91 
Q 1250 -91 836 529 
Q 422 1150 422 2328 
Q 422 3509 836 4129 
Q 1250 4750 2034 4750 
z
" transform="scale(0.015625)"/>
       </defs>
       <use xlink:href="#DejaVuSans-13"/>
      </g>
     </g>
    </g>
    <g id="xtick_2">
     <g id="line2d_3">
      <path d="M 176.871813 349.793906 
L 176.871813 37.922578 
" clip-path="url(#p6fe4f174b2)" style="fill: none; stroke: #b0b0b0; stroke-opacity: 0.3; stroke-width: 0.8; stroke-linecap: square"/>
     </g>
     <g id="line2d_4">
      <g>
       <use xlink:href="#m15d33085b0" x="176.871813" y="349.793906" style="stroke: #000000; stroke-width: 0.8"/>
      </g>
     </g>
     <g id="text_2">
      <!-- 20 -->
      <g transform="translate(170.509313 364.391562) scale(0.1 -0.1)">
       <defs>
        <path id="DejaVuSans-15" d="M 1228 531 
L 3431 531 
L 3431 0 
L 469 0 
L 469 531 
Q 828 903 1448 1529 
Q 2069 2156 2228 2338 
Q 2531 2678 2651 2914 
Q 2772 3150 2772 3378 
Q 2772 3750 2511 3984 
Q 2250 4219 1831 4219 
Q 1534 4219 1204 4116 
Q 875 4013 500 3803 
L 500 4441 
Q 881 4594 1212 4672 
Q 1544 4750 1819 4750 
Q 2544 4750 2975 4387 
Q 3406 4025 3406 3419 
Q 3406 3131 3298 2873 
Q 3191 2616 2906 2266 
Q 2828 2175 2409 1742 
Q 1991 1309 1228 531 
z
" transform="scale(0.015625)"/>
       </defs>
       <use xlink:href="#DejaVuSans-15"/>
       <use xlink:href="#DejaVuSans-13" transform="translate(63.625 0)"/>
      </g>
     </g>
    </g>
    <g id="xtick_3">
     <g id="line2d_5">
      <path d="M 306.455344 349.793906 
L 306.455344 37.922578 
" clip-path="url(#p6fe4f174b2)" style="fill: none; stroke: #b0b0b0; stroke-opacity: 0.3; stroke-width: 0.8; stroke-linecap: square"/>
     </g>
     <g id="line2d_6">
      <g>
       <use xlink:href="#m15d33085b0" x="306.455344" y="349.793906" style="stroke: #000000; stroke-width: 0.8"/>
      </g>
     </g>
     <g id="text_3">
      <!-- 40 -->
      <g transform="translate(300.092844 364.391562) scale(0.1 -0.1)">
       <defs>
        <path id="DejaVuSans-17" d="M 2419 4116 
L 825 1625 
L 2419 1625 
L 2419 4116 
z
M 2253 4666 
L 3047 4666 
L 3047 1625 
L 3713 1625 
L 3713 1100 
L 3047 1100 
L 3047 0 
L 2419 0 
L 2419 1100 
L 313 1100 
L 313 1709 
L 2253 4666 
z
" transform="scale(0.015625)"/>
       </defs>
       <use xlink:href="#DejaVuSans-17"/>
       <use xlink:href="#DejaVuSans-13" transform="translate(63.625 0)"/>
      </g>
     </g>
    </g>
    <g id="xtick_4">
     <g id="line2d_7">
      <path d="M 436.038875 349.793906 
L 436.038875 37.922578 
" clip-path="url(#p6fe4f174b2)" style="fill: none; stroke: #b0b0b0; stroke-opacity: 0.3; stroke-width: 0.8; stroke-linecap: square"/>
     </g>
     <g id="line2d_8">
      <g>
       <use xlink:href="#m15d33085b0" x="436.038875" y="349.793906" style="stroke: #000000; stroke-width: 0.8"/>
      </g>
     </g>
     <g id="text_4">
      <!-- 60 -->
      <g transform="translate(429.676375 364.391562) scale(0.1 -0.1)">
       <defs>
        <path id="DejaVuSans-19" d="M 2113 2584 
Q 1688 2584 1439 2293 
Q 1191 2003 1191 1497 
Q 1191 994 1439 701 
Q 1688 409 2113 409 
Q 2538 409 2786 701 
Q 3034 994 3034 1497 
Q 3034 2003 2786 2293 
Q 2538 2584 2113 2584 
z
M 3366 4563 
L 3366 3988 
Q 3128 4100 2886 4159 
Q 2644 4219 2406 4219 
Q 1781 4219 1451 3797 
Q 1122 3375 1075 2522 
Q 1259 2794 1537 2939 
Q 1816 3084 2150 3084 
Q 2853 3084 3261 2657 
Q 3669 2231 3669 1497 
Q 3669 778 3244 343 
Q 2819 -91 2113 -91 
Q 1303 -91 875 529 
Q 447 1150 447 2328 
Q 447 3434 972 4092 
Q 1497 4750 2381 4750 
Q 2619 4750 2861 4703 
Q 3103 4656 3366 4563 
z
" transform="scale(0.015625)"/>
       </defs>
       <use xlink:href="#DejaVuSans-19"/>
       <use xlink:href="#DejaVuSans-13" transform="translate(63.625 0)"/>
      </g>
     </g>
    </g>
    <g id="xtick_5">
     <g id="line2d_9">
      <path d="M 565.622406 349.793906 
L 565.622406 37.922578 
" clip-path="url(#p6fe4f174b2)" style="fill: none; stroke: #b0b0b0; stroke-opacity: 0.3; stroke-width: 0.8; stroke-linecap: square"/>
     </g>
     <g id="line2d_10">
      <g>
       <use xlink:href="#m15d33085b0" x="565.622406" y="349.793906" style="stroke: #000000; stroke-width: 0.8"/>
      </g>
     </g>
     <g id="text_5">
      <!-- 80 -->
      <g transform="translate(559.259906 364.391562) scale(0.1 -0.1)">
       <defs>
        <path id="DejaVuSans-1b" d="M 2034 2216 
Q 1584 2216 1326 1975 
Q 1069 1734 1069 1313 
Q 1069 891 1326 650 
Q 1584 409 2034 409 
Q 2484 409 2743 651 
Q 3003 894 3003 1313 
Q 3003 1734 2745 1975 
Q 2488 2216 2034 2216 
z
M 1403 2484 
Q 997 2584 770 2862 
Q 544 3141 544 3541 
Q 544 4100 942 4425 
Q 1341 4750 2034 4750 
Q 2731 4750 3128 4425 
Q 3525 4100 3525 3541 
Q 3525 3141 3298 2862 
Q 3072 2584 2669 2484 
Q 3125 2378 3379 2068 
Q 3634 1759 3634 1313 
Q 3634 634 3220 271 
Q 2806 -91 2034 -91 
Q 1263 -91 848 271 
Q 434 634 434 1313 
Q 434 1759 690 2068 
Q 947 2378 1403 2484 
z
M 1172 3481 
Q 1172 3119 1398 2916 
Q 1625 2713 2034 2713 
Q 2441 2713 2670 2916 
Q 2900 3119 2900 3481 
Q 2900 3844 2670 4047 
Q 2441 4250 2034 4250 
Q 1625 4250 1398 4047 
Q 1172 3844 1172 3481 
z
" transform="scale(0.015625)"/>
       </defs>
       <use xlink:href="#DejaVuSans-1b"/>
       <use xlink:href="#DejaVuSans-13" transform="translate(63.625 0)"/>
      </g>
     </g>
    </g>
    <g id="xtick_6">
     <g id="line2d_11">
      <path d="M 695.205938 349.793906 
L 695.205938 37.922578 
" clip-path="url(#p6fe4f174b2)" style="fill: none; stroke: #b0b0b0; stroke-opacity: 0.3; stroke-width: 0.8; stroke-linecap: square"/>
     </g>
     <g id="line2d_12">
      <g>
       <use xlink:href="#m15d33085b0" x="695.205938" y="349.793906" style="stroke: #000000; stroke-width: 0.8"/>
      </g>
     </g>
     <g id="text_6">
      <!-- 100 -->
      <g transform="translate(685.662188 364.391562) scale(0.1 -0.1)">
       <defs>
        <path id="DejaVuSans-14" d="M 794 531 
L 1825 531 
L 1825 4091 
L 703 3866 
L 703 4441 
L 1819 4666 
L 2450 4666 
L 2450 531 
L 3481 531 
L 3481 0 
L 794 0 
L 794 531 
z
" transform="scale(0.015625)"/>
       </defs>
       <use xlink:href="#DejaVuSans-14"/>
       <use xlink:href="#DejaVuSans-13" transform="translate(63.625 0)"/>
       <use xlink:href="#DejaVuSans-13" transform="translate(127.25 0)"/>
      </g>
     </g>
    </g>
    <g id="text_7">
     <!-- Fraction of days (%) -->
     <g transform="translate(321.247891 378.392344) scale(0.1 -0.1)">
      <defs>
       <path id="DejaVuSans-29" d="M 628 4666 
L 3309 4666 
L 3309 4134 
L 1259 4134 
L 1259 2759 
L 3109 2759 
L 3109 2228 
L 1259 2228 
L 1259 0 
L 628 0 
L 628 4666 
z
" transform="scale(0.015625)"/>
       <path id="DejaVuSans-55" d="M 2631 2963 
Q 2534 3019 2420 3045 
Q 2306 3072 2169 3072 
Q 1681 3072 1420 2755 
Q 1159 2438 1159 1844 
L 1159 0 
L 581 0 
L 581 3500 
L 1159 3500 
L 1159 2956 
Q 1341 3275 1631 3429 
Q 1922 3584 2338 3584 
Q 2397 3584 2469 3576 
Q 2541 3569 2628 3553 
L 2631 2963 
z
" transform="scale(0.015625)"/>
       <path id="DejaVuSans-44" d="M 2194 1759 
Q 1497 1759 1228 1600 
Q 959 1441 959 1056 
Q 959 750 1161 570 
Q 1363 391 1709 391 
Q 2188 391 2477 730 
Q 2766 1069 2766 1631 
L 2766 1759 
L 2194 1759 
z
M 3341 1997 
L 3341 0 
L 2766 0 
L 2766 531 
Q 2569 213 2275 61 
Q 1981 -91 1556 -91 
Q 1019 -91 701 211 
Q 384 513 384 1019 
Q 384 1609 779 1909 
Q 1175 2209 1959 2209 
L 2766 2209 
L 2766 2266 
Q 2766 2663 2505 2880 
Q 2244 3097 1772 3097 
Q 1472 3097 1187 3025 
Q 903 2953 641 2809 
L 641 3341 
Q 956 3463 1253 3523 
Q 1550 3584 1831 3584 
Q 2591 3584 2966 3190 
Q 3341 2797 3341 1997 
z
" transform="scale(0.015625)"/>
       <path id="DejaVuSans-46" d="M 3122 3366 
L 3122 2828 
Q 2878 2963 2633 3030 
Q 2388 3097 2138 3097 
Q 1578 3097 1268 2742 
Q 959 2388 959 1747 
Q 959 1106 1268 751 
Q 1578 397 2138 397 
Q 2388 397 2633 464 
Q 2878 531 3122 666 
L 3122 134 
Q 2881 22 2623 -34 
Q 2366 -91 2075 -91 
Q 1284 -91 818 406 
Q 353 903 353 1747 
Q 353 2603 823 3093 
Q 1294 3584 2113 3584 
Q 2378 3584 2631 3529 
Q 2884 3475 3122 3366 
z
" transform="scale(0.015625)"/>
       <path id="DejaVuSans-57" d="M 1172 4494 
L 1172 3500 
L 2356 3500 
L 2356 3053 
L 1172 3053 
L 1172 1153 
Q 1172 725 1289 603 
Q 1406 481 1766 481 
L 2356 481 
L 2356 0 
L 1766 0 
Q 1100 0 847 248 
Q 594 497 594 1153 
L 594 3053 
L 172 3053 
L 172 3500 
L 594 3500 
L 594 4494 
L 1172 4494 
z
" transform="scale(0.015625)"/>
       <path id="DejaVuSans-4c" d="M 603 3500 
L 1178 3500 
L 1178 0 
L 603 0 
L 603 3500 
z
M 603 4863 
L 1178 4863 
L 1178 4134 
L 603 4134 
L 603 4863 
z
" transform="scale(0.015625)"/>
       <path id="DejaVuSans-52" d="M 1959 3097 
Q 1497 3097 1228 2736 
Q 959 2375 959 1747 
Q 959 1119 1226 758 
Q 1494 397 1959 397 
Q 2419 397 2687 759 
Q 2956 1122 2956 1747 
Q 2956 2369 2687 2733 
Q 2419 3097 1959 3097 
z
M 1959 3584 
Q 2709 3584 3137 3096 
Q 3566 2609 3566 1747 
Q 3566 888 3137 398 
Q 2709 -91 1959 -91 
Q 1206 -91 779 398 
Q 353 888 353 1747 
Q 353 2609 779 3096 
Q 1206 3584 1959 3584 
z
" transform="scale(0.015625)"/>
       <path id="DejaVuSans-51" d="M 3513 2113 
L 3513 0 
L 2938 0 
L 2938 2094 
Q 2938 2591 2744 2837 
Q 2550 3084 2163 3084 
Q 1697 3084 1428 2787 
Q 1159 2491 1159 1978 
L 1159 0 
L 581 0 
L 581 3500 
L 1159 3500 
L 1159 2956 
Q 1366 3272 1645 3428 
Q 1925 3584 2291 3584 
Q 2894 3584 3203 3211 
Q 3513 2838 3513 2113 
z
" transform="scale(0.015625)"/>
       <path id="DejaVuSans-3" transform="scale(0.015625)"/>
       <path id="DejaVuSans-49" d="M 2375 4863 
L 2375 4384 
L 1825 4384 
Q 1516 4384 1395 4259 
Q 1275 4134 1275 3809 
L 1275 3500 
L 2222 3500 
L 2222 3053 
L 1275 3053 
L 1275 0 
L 697 0 
L 697 3053 
L 147 3053 
L 147 3500 
L 697 3500 
L 697 3744 
Q 697 4328 969 4595 
Q 1241 4863 1831 4863 
L 2375 4863 
z
" transform="scale(0.015625)"/>
       <path id="DejaVuSans-47" d="M 2906 2969 
L 2906 4863 
L 3481 4863 
L 3481 0 
L 2906 0 
L 2906 525 
Q 2725 213 2448 61 
Q 2172 -91 1784 -91 
Q 1150 -91 751 415 
Q 353 922 353 1747 
Q 353 2572 751 3078 
Q 1150 3584 1784 3584 
Q 2172 3584 2448 3432 
Q 2725 3281 2906 2969 
z
M 947 1747 
Q 947 1113 1208 752 
Q 1469 391 1925 391 
Q 2381 391 2643 752 
Q 2906 1113 2906 1747 
Q 2906 2381 2643 2742 
Q 2381 3103 1925 3103 
Q 1469 3103 1208 2742 
Q 947 2381 947 1747 
z
" transform="scale(0.015625)"/>
       <path id="DejaVuSans-5c" d="M 2059 -325 
Q 1816 -950 1584 -1140 
Q 1353 -1331 966 -1331 
L 506 -1331 
L 506 -850 
L 844 -850 
Q 1081 -850 1212 -737 
Q 1344 -625 1503 -206 
L 1606 56 
L 191 3500 
L 800 3500 
L 1894 763 
L 2988 3500 
L 3597 3500 
L 2059 -325 
z
" transform="scale(0.015625)"/>
       <path id="DejaVuSans-56" d="M 2834 3397 
L 2834 2853 
Q 2591 2978 2328 3040 
Q 2066 3103 1784 3103 
Q 1356 3103 1142 2972 
Q 928 2841 928 2578 
Q 928 2378 1081 2264 
Q 1234 2150 1697 2047 
L 1894 2003 
Q 2506 1872 2764 1633 
Q 3022 1394 3022 966 
Q 3022 478 2636 193 
Q 2250 -91 1575 -91 
Q 1294 -91 989 -36 
Q 684 19 347 128 
L 347 722 
Q 666 556 975 473 
Q 1284 391 1588 391 
Q 1994 391 2212 530 
Q 2431 669 2431 922 
Q 2431 1156 2273 1281 
Q 2116 1406 1581 1522 
L 1381 1569 
Q 847 1681 609 1914 
Q 372 2147 372 2553 
Q 372 3047 722 3315 
Q 1072 3584 1716 3584 
Q 2034 3584 2315 3537 
Q 2597 3491 2834 3397 
z
" transform="scale(0.015625)"/>
       <path id="DejaVuSans-b" d="M 1984 4856 
Q 1566 4138 1362 3434 
Q 1159 2731 1159 2009 
Q 1159 1288 1364 580 
Q 1569 -128 1984 -844 
L 1484 -844 
Q 1016 -109 783 600 
Q 550 1309 550 2009 
Q 550 2706 781 3412 
Q 1013 4119 1484 4856 
L 1984 4856 
z
" transform="scale(0.015625)"/>
       <path id="DejaVuSans-8" d="M 4653 2053 
Q 4381 2053 4226 1822 
Q 4072 1591 4072 1178 
Q 4072 772 4226 539 
Q 4381 306 4653 306 
Q 4919 306 5073 539 
Q 5228 772 5228 1178 
Q 5228 1588 5073 1820 
Q 4919 2053 4653 2053 
z
M 4653 2450 
Q 5147 2450 5437 2106 
Q 5728 1763 5728 1178 
Q 5728 594 5436 251 
Q 5144 -91 4653 -91 
Q 4153 -91 3862 251 
Q 3572 594 3572 1178 
Q 3572 1766 3864 2108 
Q 4156 2450 4653 2450 
z
M 1428 4353 
Q 1159 4353 1004 4120 
Q 850 3888 850 3481 
Q 850 3069 1003 2837 
Q 1156 2606 1428 2606 
Q 1700 2606 1854 2837 
Q 2009 3069 2009 3481 
Q 2009 3884 1853 4118 
Q 1697 4353 1428 4353 
z
M 4250 4750 
L 4750 4750 
L 1831 -91 
L 1331 -91 
L 4250 4750 
z
M 1428 4750 
Q 1922 4750 2215 4408 
Q 2509 4066 2509 3481 
Q 2509 2891 2217 2550 
Q 1925 2209 1428 2209 
Q 931 2209 642 2551 
Q 353 2894 353 3481 
Q 353 4063 643 4406 
Q 934 4750 1428 4750 
z
" transform="scale(0.015625)"/>
       <path id="DejaVuSans-c" d="M 513 4856 
L 1013 4856 
Q 1481 4119 1714 3412 
Q 1947 2706 1947 2009 
Q 1947 1309 1714 600 
Q 1481 -109 1013 -844 
L 513 -844 
Q 928 -128 1133 580 
Q 1338 1288 1338 2009 
Q 1338 2731 1133 3434 
Q 928 4138 513 4856 
z
" transform="scale(0.015625)"/>
      </defs>
      <use xlink:href="#DejaVuSans-29"/>
      <use xlink:href="#DejaVuSans-55" transform="translate(50.234375 0)"/>
      <use xlink:href="#DejaVuSans-44" transform="translate(91.34375 0)"/>
      <use xlink:href="#DejaVuSans-46" transform="translate(152.625 0)"/>
      <use xlink:href="#DejaVuSans-57" transform="translate(207.609375 0)"/>
      <use xlink:href="#DejaVuSans-4c" transform="translate(246.8125 0)"/>
      <use xlink:href="#DejaVuSans-52" transform="translate(274.59375 0)"/>
      <use xlink:href="#DejaVuSans-51" transform="translate(335.78125 0)"/>
      <use xlink:href="#DejaVuSans-3" transform="translate(399.15625 0)"/>
      <use xlink:href="#DejaVuSans-52" transform="translate(430.9375 0)"/>
      <use xlink:href="#DejaVuSans-49" transform="translate(492.125 0)"/>
      <use xlink:href="#DejaVuSans-3" transform="translate(527.328125 0)"/>
      <use xlink:href="#DejaVuSans-47" transform="translate(559.109375 0)"/>
      <use xlink:href="#DejaVuSans-44" transform="translate(622.59375 0)"/>
      <use xlink:href="#DejaVuSans-5c" transform="translate(683.875 0)"/>
      <use xlink:href="#DejaVuSans-56" transform="translate(743.0625 0)"/>
      <use xlink:href="#DejaVuSans-3" transform="translate(795.15625 0)"/>
      <use xlink:href="#DejaVuSans-b" transform="translate(826.9375 0)"/>
      <use xlink:href="#DejaVuSans-8" transform="translate(865.953125 0)"/>
      <use xlink:href="#DejaVuSans-c" transform="translate(960.96875 0)"/>
     </g>
    </g>
   </g>
   <g id="matplotlib.axis_2">
    <g id="ytick_1">
     <g id="line2d_13">
      <path d="M 47.288281 349.793906 
L 695.205938 349.793906 
" clip-path="url(#p6fe4f174b2)" style="fill: none; stroke: #b0b0b0; stroke-opacity: 0.3; stroke-width: 0.8; stroke-linecap: square"/>
     </g>
     <g id="line2d_14">
      <defs>
       <path id="m7ecaebfe9a" d="M 0 0 
L -3.5 0 
" style="stroke: #000000; stroke-width: 0.8"/>
      </defs>
      <g>
       <use xlink:href="#m7ecaebfe9a" x="47.288281" y="349.793906" style="stroke: #000000; stroke-width: 0.8"/>
      </g>
     </g>
     <g id="text_8">
      <!-- 0 -->
      <g transform="translate(33.925781 353.592734) scale(0.1 -0.1)">
       <use xlink:href="#DejaVuSans-13"/>
      </g>
     </g>
    </g>
    <g id="ytick_2">
     <g id="line2d_15">
      <path d="M 47.288281 314.395149 
L 695.205938 314.395149 
" clip-path="url(#p6fe4f174b2)" style="fill: none; stroke: #b0b0b0; stroke-opacity: 0.3; stroke-width: 0.8; stroke-linecap: square"/>
     </g>
     <g id="line2d_16">
      <g>
       <use xlink:href="#m7ecaebfe9a" x="47.288281" y="314.395149" style="stroke: #000000; stroke-width: 0.8"/>
      </g>
     </g>
     <g id="text_9">
      <!-- 20 -->
      <g transform="translate(27.563281 318.193978) scale(0.1 -0.1)">
       <use xlink:href="#DejaVuSans-15"/>
       <use xlink:href="#DejaVuSans-13" transform="translate(63.625 0)"/>
      </g>
     </g>
    </g>
    <g id="ytick_3">
     <g id="line2d_17">
      <path d="M 47.288281 278.996393 
L 695.205938 278.996393 
" clip-path="url(#p6fe4f174b2)" style="fill: none; stroke: #b0b0b0; stroke-opacity: 0.3; stroke-width: 0.8; stroke-linecap: square"/>
     </g>
     <g id="line2d_18">
      <g>
       <use xlink:href="#m7ecaebfe9a" x="47.288281" y="278.996393" style="stroke: #000000; stroke-width: 0.8"/>
      </g>
     </g>
     <g id="text_10">
      <!-- 40 -->
      <g transform="translate(27.563281 282.795221) scale(0.1 -0.1)">
       <use xlink:href="#DejaVuSans-17"/>
       <use xlink:href="#DejaVuSans-13" transform="translate(63.625 0)"/>
      </g>
     </g>
    </g>
    <g id="ytick_4">
     <g id="line2d_19">
      <path d="M 47.288281 243.597636 
L 695.205938 243.597636 
" clip-path="url(#p6fe4f174b2)" style="fill: none; stroke: #b0b0b0; stroke-opacity: 0.3; stroke-width: 0.8; stroke-linecap: square"/>
     </g>
     <g id="line2d_20">
      <g>
       <use xlink:href="#m7ecaebfe9a" x="47.288281" y="243.597636" style="stroke: #000000; stroke-width: 0.8"/>
      </g>
     </g>
     <g id="text_11">
      <!-- 60 -->
      <g transform="translate(27.563281 247.396464) scale(0.1 -0.1)">
       <use xlink:href="#DejaVuSans-19"/>
       <use xlink:href="#DejaVuSans-13" transform="translate(63.625 0)"/>
      </g>
     </g>
    </g>
    <g id="ytick_5">
     <g id="line2d_21">
      <path d="M 47.288281 208.198879 
L 695.205938 208.198879 
" clip-path="url(#p6fe4f174b2)" style="fill: none; stroke: #b0b0b0; stroke-opacity: 0.3; stroke-width: 0.8; stroke-linecap: square"/>
     </g>
     <g id="line2d_22">
      <g>
       <use xlink:href="#m7ecaebfe9a" x="47.288281" y="208.198879" style="stroke: #000000; stroke-width: 0.8"/>
      </g>
     </g>
     <g id="text_12">
      <!-- 80 -->
      <g transform="translate(27.563281 211.997707) scale(0.1 -0.1)">
       <use xlink:href="#DejaVuSans-1b"/>
       <use xlink:href="#DejaVuSans-13" transform="translate(63.625 0)"/>
      </g>
     </g>
    </g>
    <g id="ytick_6">
     <g id="line2d_23">
      <path d="M 47.288281 172.800122 
L 695.205938 172.800122 
" clip-path="url(#p6fe4f174b2)" style="fill: none; stroke: #b0b0b0; stroke-opacity: 0.3; stroke-width: 0.8; stroke-linecap: square"/>
     </g>
     <g id="line2d_24">
      <g>
       <use xlink:href="#m7ecaebfe9a" x="47.288281" y="172.800122" style="stroke: #000000; stroke-width: 0.8"/>
      </g>
     </g>
     <g id="text_13">
      <!-- 100 -->
      <g transform="translate(21.200781 176.598951) scale(0.1 -0.1)">
       <use xlink:href="#DejaVuSans-14"/>
       <use xlink:href="#DejaVuSans-13" transform="translate(63.625 0)"/>
       <use xlink:href="#DejaVuSans-13" transform="translate(127.25 0)"/>
      </g>
     </g>
    </g>
    <g id="ytick_7">
     <g id="line2d_25">
      <path d="M 47.288281 137.401366 
L 695.205938 137.401366 
" clip-path="url(#p6fe4f174b2)" style="fill: none; stroke: #b0b0b0; stroke-opacity: 0.3; stroke-width: 0.8; stroke-linecap: square"/>
     </g>
     <g id="line2d_26">
      <g>
       <use xlink:href="#m7ecaebfe9a" x="47.288281" y="137.401366" style="stroke: #000000; stroke-width: 0.8"/>
      </g>
     </g>
     <g id="text_14">
      <!-- 120 -->
      <g transform="translate(21.200781 141.200194) scale(0.1 -0.1)">
       <use xlink:href="#DejaVuSans-14"/>
       <use xlink:href="#DejaVuSans-15" transform="translate(63.625 0)"/>
       <use xlink:href="#DejaVuSans-13" transform="translate(127.25 0)"/>
      </g>
     </g>
    </g>
    <g id="ytick_8">
     <g id="line2d_27">
      <path d="M 47.288281 102.002609 
L 695.205938 102.002609 
" clip-path="url(#p6fe4f174b2)" style="fill: none; stroke: #b0b0b0; stroke-opacity: 0.3; stroke-width: 0.8; stroke-linecap: square"/>
     </g>
     <g id="line2d_28">
      <g>
       <use xlink:href="#m7ecaebfe9a" x="47.288281" y="102.002609" style="stroke: #000000; stroke-width: 0.8"/>
      </g>
     </g>
     <g id="text_15">
      <!-- 140 -->
      <g transform="translate(21.200781 105.801437) scale(0.1 -0.1)">
       <use xlink:href="#DejaVuSans-14"/>
       <use xlink:href="#DejaVuSans-17" transform="translate(63.625 0)"/>
       <use xlink:href="#DejaVuSans-13" transform="translate(127.25 0)"/>
      </g>
     </g>
    </g>
    <g id="ytick_9">
     <g id="line2d_29">
      <path d="M 47.288281 66.603852 
L 695.205938 66.603852 
" clip-path="url(#p6fe4f174b2)" style="fill: none; stroke: #b0b0b0; stroke-opacity: 0.3; stroke-width: 0.8; stroke-linecap: square"/>
     </g>
     <g id="line2d_30">
      <g>
       <use xlink:href="#m7ecaebfe9a" x="47.288281" y="66.603852" style="stroke: #000000; stroke-width: 0.8"/>
      </g>
     </g>
     <g id="text_16">
      <!-- 160 -->
      <g transform="translate(21.200781 70.40268) scale(0.1 -0.1)">
       <use xlink:href="#DejaVuSans-14"/>
       <use xlink:href="#DejaVuSans-19" transform="translate(63.625 0)"/>
       <use xlink:href="#DejaVuSans-13" transform="translate(127.25 0)"/>
      </g>
     </g>
    </g>
    <g id="text_17">
     <!-- Daily maximum power (kW) -->
     <g transform="translate(14.798437 263.664492) rotate(-90) scale(0.1 -0.1)">
      <defs>
       <path id="DejaVuSans-27" d="M 1259 4147 
L 1259 519 
L 2022 519 
Q 2988 519 3436 956 
Q 3884 1394 3884 2338 
Q 3884 3275 3436 3711 
Q 2988 4147 2022 4147 
L 1259 4147 
z
M 628 4666 
L 1925 4666 
Q 3281 4666 3915 4102 
Q 4550 3538 4550 2338 
Q 4550 1131 3912 565 
Q 3275 0 1925 0 
L 628 0 
L 628 4666 
z
" transform="scale(0.015625)"/>
       <path id="DejaVuSans-4f" d="M 603 4863 
L 1178 4863 
L 1178 0 
L 603 0 
L 603 4863 
z
" transform="scale(0.015625)"/>
       <path id="DejaVuSans-50" d="M 3328 2828 
Q 3544 3216 3844 3400 
Q 4144 3584 4550 3584 
Q 5097 3584 5394 3201 
Q 5691 2819 5691 2113 
L 5691 0 
L 5113 0 
L 5113 2094 
Q 5113 2597 4934 2840 
Q 4756 3084 4391 3084 
Q 3944 3084 3684 2787 
Q 3425 2491 3425 1978 
L 3425 0 
L 2847 0 
L 2847 2094 
Q 2847 2600 2669 2842 
Q 2491 3084 2119 3084 
Q 1678 3084 1418 2786 
Q 1159 2488 1159 1978 
L 1159 0 
L 581 0 
L 581 3500 
L 1159 3500 
L 1159 2956 
Q 1356 3278 1631 3431 
Q 1906 3584 2284 3584 
Q 2666 3584 2933 3390 
Q 3200 3197 3328 2828 
z
" transform="scale(0.015625)"/>
       <path id="DejaVuSans-5b" d="M 3513 3500 
L 2247 1797 
L 3578 0 
L 2900 0 
L 1881 1375 
L 863 0 
L 184 0 
L 1544 1831 
L 300 3500 
L 978 3500 
L 1906 2253 
L 2834 3500 
L 3513 3500 
z
" transform="scale(0.015625)"/>
       <path id="DejaVuSans-58" d="M 544 1381 
L 544 3500 
L 1119 3500 
L 1119 1403 
Q 1119 906 1312 657 
Q 1506 409 1894 409 
Q 2359 409 2629 706 
Q 2900 1003 2900 1516 
L 2900 3500 
L 3475 3500 
L 3475 0 
L 2900 0 
L 2900 538 
Q 2691 219 2414 64 
Q 2138 -91 1772 -91 
Q 1169 -91 856 284 
Q 544 659 544 1381 
z
M 1991 3584 
L 1991 3584 
z
" transform="scale(0.015625)"/>
       <path id="DejaVuSans-53" d="M 1159 525 
L 1159 -1331 
L 581 -1331 
L 581 3500 
L 1159 3500 
L 1159 2969 
Q 1341 3281 1617 3432 
Q 1894 3584 2278 3584 
Q 2916 3584 3314 3078 
Q 3713 2572 3713 1747 
Q 3713 922 3314 415 
Q 2916 -91 2278 -91 
Q 1894 -91 1617 61 
Q 1341 213 1159 525 
z
M 3116 1747 
Q 3116 2381 2855 2742 
Q 2594 3103 2138 3103 
Q 1681 3103 1420 2742 
Q 1159 2381 1159 1747 
Q 1159 1113 1420 752 
Q 1681 391 2138 391 
Q 2594 391 2855 752 
Q 3116 1113 3116 1747 
z
" transform="scale(0.015625)"/>
       <path id="DejaVuSans-5a" d="M 269 3500 
L 844 3500 
L 1563 769 
L 2278 3500 
L 2956 3500 
L 3675 769 
L 4391 3500 
L 4966 3500 
L 4050 0 
L 3372 0 
L 2619 2869 
L 1863 0 
L 1184 0 
L 269 3500 
z
" transform="scale(0.015625)"/>
       <path id="DejaVuSans-48" d="M 3597 1894 
L 3597 1613 
L 953 1613 
Q 991 1019 1311 708 
Q 1631 397 2203 397 
Q 2534 397 2845 478 
Q 3156 559 3463 722 
L 3463 178 
Q 3153 47 2828 -22 
Q 2503 -91 2169 -91 
Q 1331 -91 842 396 
Q 353 884 353 1716 
Q 353 2575 817 3079 
Q 1281 3584 2069 3584 
Q 2775 3584 3186 3129 
Q 3597 2675 3597 1894 
z
M 3022 2063 
Q 3016 2534 2758 2815 
Q 2500 3097 2075 3097 
Q 1594 3097 1305 2825 
Q 1016 2553 972 2059 
L 3022 2063 
z
" transform="scale(0.015625)"/>
       <path id="DejaVuSans-4e" d="M 581 4863 
L 1159 4863 
L 1159 1991 
L 2875 3500 
L 3609 3500 
L 1753 1863 
L 3688 0 
L 2938 0 
L 1159 1709 
L 1159 0 
L 581 0 
L 581 4863 
z
" transform="scale(0.015625)"/>
       <path id="DejaVuSans-3a" d="M 213 4666 
L 850 4666 
L 1831 722 
L 2809 4666 
L 3519 4666 
L 4500 722 
L 5478 4666 
L 6119 4666 
L 4947 0 
L 4153 0 
L 3169 4050 
L 2175 0 
L 1381 0 
L 213 4666 
z
" transform="scale(0.015625)"/>
      </defs>
      <use xlink:href="#DejaVuSans-27"/>
      <use xlink:href="#DejaVuSans-44" transform="translate(77 0)"/>
      <use xlink:href="#DejaVuSans-4c" transform="translate(138.28125 0)"/>
      <use xlink:href="#DejaVuSans-4f" transform="translate(166.0625 0)"/>
      <use xlink:href="#DejaVuSans-5c" transform="translate(193.84375 0)"/>
      <use xlink:href="#DejaVuSans-3" transform="translate(253.03125 0)"/>
      <use xlink:href="#DejaVuSans-50" transform="translate(284.8125 0)"/>
      <use xlink:href="#DejaVuSans-44" transform="translate(382.21875 0)"/>
      <use xlink:href="#DejaVuSans-5b" transform="translate(443.5 0)"/>
      <use xlink:href="#DejaVuSans-4c" transform="translate(502.6875 0)"/>
      <use xlink:href="#DejaVuSans-50" transform="translate(530.46875 0)"/>
      <use xlink:href="#DejaVuSans-58" transform="translate(627.875 0)"/>
      <use xlink:href="#DejaVuSans-50" transform="translate(691.25 0)"/>
      <use xlink:href="#DejaVuSans-3" transform="translate(788.65625 0)"/>
      <use xlink:href="#DejaVuSans-53" transform="translate(820.4375 0)"/>
      <use xlink:href="#DejaVuSans-52" transform="translate(883.921875 0)"/>
      <use xlink:href="#DejaVuSans-5a" transform="translate(945.109375 0)"/>
      <use xlink:href="#DejaVuSans-48" transform="translate(1026.890625 0)"/>
      <use xlink:href="#DejaVuSans-55" transform="translate(1088.421875 0)"/>
      <use xlink:href="#DejaVuSans-3" transform="translate(1129.53125 0)"/>
      <use xlink:href="#DejaVuSans-b" transform="translate(1161.3125 0)"/>
      <use xlink:href="#DejaVuSans-4e" transform="translate(1200.328125 0)"/>
      <use xlink:href="#DejaVuSans-3a" transform="translate(1258.234375 0)"/>
      <use xlink:href="#DejaVuSans-c" transform="translate(1357.109375 0)"/>
     </g>
    </g>
   </g>
   <g id="line2d_31">
    <path d="M 49.113401 68.462287 
L 50.938522 76.957988 
L 52.763642 80.763355 
L 54.588762 80.984597 
L 56.413882 82.931529 
L 60.064122 85.365193 
L 61.889243 85.630684 
L 63.714363 89.43605 
L 65.539483 91.028994 
L 67.364603 94.436125 
L 69.189723 94.701615 
L 71.014843 95.232597 
L 72.839963 96.117566 
L 74.665084 96.869789 
L 76.490204 98.064497 
L 78.315324 98.816721 
L 80.140444 98.949466 
L 81.965564 100.055677 
L 83.790684 100.144174 
L 85.615805 100.763652 
L 87.440925 101.206137 
L 92.916285 101.781367 
L 94.741405 101.869864 
L 96.566526 102.2681 
L 100.216766 102.312348 
L 102.041886 103.020323 
L 103.867006 103.241565 
L 107.517246 104.082286 
L 109.342367 104.082286 
L 111.167487 105.188497 
L 112.992607 106.117714 
L 114.817727 106.161963 
L 120.293088 106.737193 
L 122.118208 106.869938 
L 125.768448 107.577913 
L 127.593568 107.754907 
L 129.418688 107.799155 
L 131.243809 108.772621 
L 133.068929 108.81687 
L 134.894049 109.08236 
L 136.719169 109.126609 
L 138.544289 109.569093 
L 142.194529 109.923081 
L 144.01965 110.454062 
L 149.49501 110.675304 
L 151.32013 110.675304 
L 153.14525 111.029292 
L 154.970371 111.117789 
L 156.795491 111.383279 
L 158.620611 111.781515 
L 160.445731 111.914261 
L 162.270851 113.153217 
L 164.095971 113.330211 
L 167.746212 113.418708 
L 169.571332 113.993938 
L 175.046692 114.170931 
L 178.696933 114.524919 
L 182.347173 115.454136 
L 184.172293 115.852372 
L 185.997413 116.560348 
L 189.647654 116.648844 
L 191.472774 117.002832 
L 193.297894 118.463031 
L 195.123014 119.480745 
L 196.948134 119.967478 
L 198.773254 119.967478 
L 202.423495 120.896695 
L 204.248615 122.622385 
L 206.073735 122.666633 
L 207.898855 123.109118 
L 209.723975 125.233043 
L 211.549096 125.454285 
L 213.374216 125.498534 
L 215.199336 125.852521 
L 217.024456 125.985267 
L 220.674696 128.640173 
L 222.499816 128.905664 
L 224.324937 129.569391 
L 226.150057 129.702136 
L 227.975177 130.011875 
L 229.800297 130.675602 
L 231.625417 130.941093 
L 233.450537 130.985341 
L 235.275658 131.339329 
L 237.100778 132.44554 
L 238.925898 132.888024 
L 244.401258 133.817241 
L 248.051499 133.994235 
L 249.876619 134.348223 
L 251.701739 134.569465 
L 255.351979 136.162409 
L 257.177099 136.383651 
L 259.00222 136.737639 
L 260.82734 137.932347 
L 262.65246 138.330583 
L 264.47758 138.507577 
L 266.3027 141.206732 
L 268.12782 141.206732 
L 269.952941 141.870459 
L 271.778061 144.348372 
L 277.253421 144.835105 
L 279.078541 145.189092 
L 280.903662 145.233341 
L 282.728782 146.295303 
L 284.553902 147.180272 
L 286.379022 147.53426 
L 288.204142 147.53426 
L 290.029262 148.419229 
L 291.854382 149.171452 
L 293.679503 149.746682 
L 295.504623 150.720148 
L 299.154863 151.51662 
L 300.979983 151.693614 
L 302.805103 151.737862 
L 304.630224 153.596297 
L 308.280464 153.684794 
L 310.105584 154.392769 
L 311.930704 154.614011 
L 313.755824 155.587477 
L 315.580945 156.295452 
L 317.406065 156.870682 
L 319.231185 158.463626 
L 321.056305 158.463626 
L 322.881425 159.525589 
L 324.706545 159.835328 
L 326.531665 160.454806 
L 328.356786 161.561017 
L 330.181906 162.534483 
L 333.832146 162.976967 
L 341.132627 163.242458 
L 342.957747 163.330955 
L 348.433107 165.100893 
L 350.258228 165.631874 
L 352.083348 165.897365 
L 353.908468 166.472595 
L 355.733588 166.60534 
L 357.558708 168.154036 
L 363.034069 168.419526 
L 366.684309 169.083253 
L 368.509429 170.941688 
L 370.334549 172.180644 
L 372.159669 172.844371 
L 373.98479 173.198358 
L 375.80991 175.676271 
L 377.63503 177.401961 
L 379.46015 178.685166 
L 383.11039 180.455104 
L 384.935511 181.871054 
L 386.760631 184.879948 
L 388.585751 185.455178 
L 390.410871 185.499426 
L 392.235991 185.897662 
L 394.061111 187.269364 
L 395.886232 189.437538 
L 397.711352 189.703029 
L 399.536472 190.278259 
L 401.361592 190.720743 
L 403.186712 190.941985 
L 405.011832 191.738457 
L 406.836952 192.180942 
L 408.662073 192.844668 
L 410.487193 194.349116 
L 412.312313 194.481861 
L 414.137433 197.579252 
L 417.787673 198.685463 
L 419.612794 199.393438 
L 423.263034 199.968668 
L 426.913274 201.605861 
L 428.738394 201.694358 
L 430.563515 202.048345 
L 432.388635 203.198805 
L 434.213755 203.729786 
L 436.038875 204.570507 
L 439.689115 204.703252 
L 441.514235 205.455476 
L 443.339356 206.871426 
L 445.164476 208.729861 
L 446.989596 210.809537 
L 448.814716 212.048494 
L 450.639836 212.535227 
L 452.464956 212.667972 
L 454.290077 213.906929 
L 456.115197 214.747649 
L 457.940317 214.968891 
L 459.765437 215.942357 
L 461.590557 217.446804 
L 463.415677 219.880469 
L 465.240798 220.588444 
L 468.891038 222.889363 
L 470.716158 222.933612 
L 472.541278 224.039823 
L 474.366398 225.588518 
L 476.191518 226.1195 
L 479.841759 227.845189 
L 481.666879 229.172643 
L 483.491999 229.305388 
L 485.317119 230.986829 
L 487.142239 231.031077 
L 488.96736 231.562059 
L 490.79248 232.801015 
L 492.6176 232.801015 
L 494.44272 233.2435 
L 496.26784 233.331996 
L 498.09296 234.08422 
L 499.918081 234.526705 
L 501.743201 235.809909 
L 503.568321 236.340891 
L 505.393441 239.438282 
L 509.043681 243.641884 
L 510.868801 243.863127 
L 512.693922 245.057835 
L 514.519042 245.854307 
L 516.344162 246.872021 
L 519.994402 247.403002 
L 521.819522 248.863201 
L 523.644643 249.128692 
L 525.469763 249.17294 
L 527.294883 249.703921 
L 529.120003 253.597785 
L 530.945123 254.836741 
L 532.770243 254.925238 
L 534.595364 257.093412 
L 536.420484 257.4474 
L 538.245604 257.580145 
L 540.070724 258.642108 
L 541.895844 261.651002 
L 543.720964 262.580219 
L 545.546085 263.066952 
L 547.371205 263.111201 
L 549.196325 263.42094 
L 551.021445 268.642256 
L 552.846565 269.527225 
L 556.496805 269.925461 
L 558.321926 270.190952 
L 560.147046 273.775076 
L 561.972166 274.173312 
L 563.797286 277.757436 
L 565.622406 277.757436 
L 569.272647 277.93443 
L 572.922887 281.164567 
L 574.748007 282.093784 
L 578.398247 284.571697 
L 580.223368 287.536343 
L 582.048488 287.62484 
L 583.873608 287.89033 
L 585.698728 288.819548 
L 587.523848 292.669163 
L 589.348968 294.129361 
L 591.174088 294.306355 
L 592.999209 294.837336 
L 594.824329 295.766554 
L 596.649449 296.961262 
L 598.474569 297.757734 
L 600.299689 298.7312 
L 602.124809 301.740094 
L 603.94993 304.085262 
L 605.77505 304.350752 
L 607.60017 305.102976 
L 609.42529 306.474678 
L 611.25041 306.69592 
L 613.07553 307.138404 
L 616.725771 308.421609 
L 618.550891 309.52782 
L 620.376011 309.660566 
L 625.851371 311.563249 
L 627.676492 311.82874 
L 629.501612 314.439398 
L 631.326732 314.66064 
L 633.151852 315.589858 
L 634.976972 317.22705 
L 636.802092 319.616466 
L 638.627213 319.837708 
L 640.452333 321.342155 
L 644.102573 321.651895 
L 645.927693 322.315621 
L 647.752813 324.61654 
L 649.577934 325.236019 
L 651.403054 328.90864 
L 653.228174 329.17413 
L 655.053294 331.032565 
L 656.878414 331.917534 
L 658.703534 332.537012 
L 660.528654 332.846751 
L 662.353775 334.483944 
L 664.178895 335.590155 
L 666.004015 335.899894 
L 669.654255 336.03264 
L 671.479375 336.253882 
L 673.304496 336.829112 
L 675.129616 337.138851 
L 676.954736 338.510553 
L 678.779856 338.908789 
L 680.604976 339.616764 
L 686.080337 341.032714 
L 687.905457 345.015074 
L 689.730577 347.97972 
L 691.555697 348.953186 
L 693.380817 349.307173 
L 695.205938 349.498917 
L 695.205938 349.498917 
" clip-path="url(#p6fe4f174b2)" style="fill: none; stroke: #000000; stroke-width: 2; stroke-linecap: square"/>
   </g>
   <g id="line2d_32">
    <path d="M 49.113401 52.759547 
L 50.938522 56.626802 
L 52.763642 57.045369 
L 56.413882 57.422053 
L 58.239002 57.702627 
L 60.064122 60.561268 
L 61.889243 60.564464 
L 65.539483 61.27774 
L 67.364603 62.747204 
L 69.189723 63.268314 
L 71.014843 63.582021 
L 74.665084 65.087143 
L 76.490204 65.272522 
L 78.315324 65.726634 
L 80.140444 65.791192 
L 81.965564 67.082732 
L 83.790684 67.758132 
L 85.615805 68.20716 
L 87.440925 68.452151 
L 89.266045 69.34592 
L 91.091165 69.844133 
L 92.916285 72.513903 
L 94.741405 73.535452 
L 96.566526 73.867025 
L 98.391646 73.910594 
L 100.216766 74.281027 
L 102.041886 75.523226 
L 103.867006 76.534759 
L 105.692126 76.618686 
L 107.517246 78.377153 
L 109.342367 79.320757 
L 111.167487 79.488795 
L 114.817727 80.200413 
L 116.642847 81.584499 
L 118.467967 81.772055 
L 120.293088 84.402493 
L 122.118208 84.61113 
L 123.943328 85.970217 
L 125.768448 85.998865 
L 127.593568 86.348188 
L 131.243809 86.802553 
L 133.068929 87.619903 
L 134.894049 89.616031 
L 138.544289 90.389074 
L 140.369409 90.947031 
L 142.194529 91.135456 
L 144.01965 92.349491 
L 145.84477 92.413793 
L 147.66989 93.339659 
L 149.49501 93.795072 
L 151.32013 94.504774 
L 153.14525 94.943286 
L 154.970371 95.525876 
L 156.795491 95.605627 
L 160.445731 96.607318 
L 162.270851 96.90747 
L 165.921092 97.1249 
L 167.746212 97.857399 
L 169.571332 99.918752 
L 173.221572 100.207643 
L 175.046692 101.157006 
L 176.871813 101.903219 
L 178.696933 105.516208 
L 182.347173 106.516042 
L 184.172293 106.873456 
L 185.997413 107.688957 
L 187.822533 109.152643 
L 189.647654 109.653762 
L 191.472774 109.891659 
L 193.297894 111.129227 
L 195.123014 111.689521 
L 196.948134 111.827503 
L 198.773254 112.969829 
L 200.598375 113.666961 
L 202.423495 113.839533 
L 204.248615 114.412572 
L 206.073735 115.207404 
L 209.723975 116.263947 
L 211.549096 117.203326 
L 213.374216 117.215326 
L 217.024456 118.057237 
L 218.849576 118.74452 
L 220.674696 120.236808 
L 222.499816 120.335401 
L 224.324937 121.835159 
L 226.150057 121.861644 
L 227.975177 122.410433 
L 229.800297 122.73662 
L 231.625417 124.078682 
L 233.450537 124.629345 
L 235.275658 124.649289 
L 237.100778 124.792036 
L 238.925898 125.905725 
L 240.751018 126.034244 
L 242.576138 126.61947 
L 244.401258 126.952504 
L 246.226379 128.496286 
L 248.051499 128.692456 
L 249.876619 130.276823 
L 251.701739 130.571371 
L 253.526859 130.647078 
L 255.351979 131.28716 
L 257.177099 131.308534 
L 259.00222 131.545563 
L 260.82734 131.575543 
L 262.65246 132.356406 
L 264.47758 132.499113 
L 266.3027 133.962986 
L 268.12782 134.929086 
L 269.952941 135.306024 
L 271.778061 136.120001 
L 273.603181 137.072221 
L 275.428301 138.327636 
L 277.253421 138.59617 
L 279.078541 138.59842 
L 280.903662 139.186854 
L 282.728782 139.375362 
L 286.379022 140.69924 
L 288.204142 141.171829 
L 290.029262 143.026481 
L 293.679503 143.087743 
L 297.329743 144.708318 
L 299.154863 145.329312 
L 302.805103 145.509616 
L 304.630224 147.762914 
L 306.455344 149.036417 
L 308.280464 149.106164 
L 310.105584 151.456318 
L 311.930704 153.082769 
L 313.755824 154.103445 
L 315.580945 154.262623 
L 317.406065 155.044428 
L 319.231185 156.280774 
L 321.056305 157.857837 
L 322.881425 160.116388 
L 324.706545 160.26759 
L 326.531665 160.569739 
L 332.007026 160.849423 
L 333.832146 161.035639 
L 335.657266 161.088943 
L 337.482386 163.481683 
L 339.307507 163.749437 
L 341.132627 165.898372 
L 342.957747 166.152737 
L 344.782867 167.284725 
L 346.607987 167.450636 
L 348.433107 167.735403 
L 350.258228 170.485281 
L 352.083348 171.168613 
L 353.908468 171.637544 
L 355.733588 173.007361 
L 357.558708 176.228288 
L 359.383828 176.497055 
L 361.208949 176.628825 
L 363.034069 176.913034 
L 364.859189 177.310414 
L 366.684309 179.746747 
L 368.509429 181.6604 
L 370.334549 182.445698 
L 372.159669 182.901369 
L 373.98479 184.359078 
L 375.80991 184.505533 
L 377.63503 185.368555 
L 381.28527 185.886073 
L 383.11039 186.529001 
L 384.935511 186.980171 
L 386.760631 187.899919 
L 388.585751 188.355879 
L 390.410871 189.016855 
L 392.235991 189.858814 
L 394.061111 190.017509 
L 397.711352 190.857017 
L 399.536472 192.299508 
L 405.011832 192.702485 
L 406.836952 193.419074 
L 408.662073 193.427494 
L 410.487193 194.651549 
L 412.312313 194.89859 
L 414.137433 197.316882 
L 415.962553 197.771434 
L 417.787673 199.807062 
L 419.612794 200.297977 
L 423.263034 202.673761 
L 425.088154 203.861918 
L 426.913274 205.267938 
L 428.738394 205.440932 
L 432.388635 207.578846 
L 434.213755 207.807406 
L 436.038875 207.883128 
L 437.863995 208.74914 
L 439.689115 209.974363 
L 441.514235 210.199562 
L 443.339356 213.463508 
L 445.164476 213.612505 
L 446.989596 215.906562 
L 448.814716 217.872858 
L 450.639836 219.384906 
L 454.290077 220.099227 
L 456.115197 222.142972 
L 457.940317 223.14464 
L 459.765437 223.637366 
L 461.590557 223.985368 
L 463.415677 224.467141 
L 467.065918 225.63422 
L 468.891038 226.099784 
L 470.716158 227.411026 
L 472.541278 227.534862 
L 474.366398 228.221975 
L 476.191518 228.707318 
L 478.016639 230.596008 
L 481.666879 231.432751 
L 483.491999 233.785422 
L 485.317119 234.08761 
L 487.142239 235.457673 
L 488.96736 235.568687 
L 492.6176 236.068616 
L 494.44272 238.590262 
L 496.26784 239.984562 
L 498.09296 240.900044 
L 499.918081 242.258172 
L 501.743201 242.766768 
L 503.568321 244.108383 
L 505.393441 244.552962 
L 507.218561 244.574616 
L 509.043681 244.815833 
L 512.693922 246.119537 
L 514.519042 246.205019 
L 516.344162 249.097536 
L 518.169282 249.887288 
L 519.994402 251.666588 
L 523.644643 252.406782 
L 525.469763 252.925865 
L 527.294883 253.994008 
L 529.120003 254.584235 
L 530.945123 255.309184 
L 534.595364 255.479787 
L 538.245604 256.331841 
L 541.895844 256.628311 
L 543.720964 260.838107 
L 545.546085 260.870721 
L 547.371205 261.407686 
L 549.196325 262.387081 
L 551.021445 262.668166 
L 552.846565 263.09486 
L 556.496805 263.198637 
L 558.321926 263.526961 
L 560.147046 263.587888 
L 561.972166 264.869858 
L 563.797286 266.645663 
L 565.622406 266.840729 
L 567.447526 267.630036 
L 569.272647 267.96568 
L 571.097767 272.458097 
L 574.748007 272.96982 
L 576.573127 273.00087 
L 578.398247 274.220499 
L 580.223368 274.258771 
L 582.048488 281.364105 
L 583.873608 282.20266 
L 585.698728 283.725421 
L 587.523848 285.629094 
L 589.348968 287.026627 
L 591.174088 287.033693 
L 592.999209 287.35461 
L 594.824329 287.982578 
L 596.649449 290.35692 
L 598.474569 290.983074 
L 600.299689 292.441525 
L 602.124809 292.453398 
L 603.94993 293.462464 
L 605.77505 294.163683 
L 607.60017 296.589335 
L 609.42529 297.029684 
L 611.25041 298.572656 
L 613.07553 298.703579 
L 614.900651 300.534636 
L 616.725771 301.593114 
L 618.550891 302.047913 
L 620.376011 302.264788 
L 622.201131 303.438185 
L 624.026251 303.916721 
L 625.851371 304.836356 
L 627.676492 305.305441 
L 631.326732 305.60021 
L 633.151852 309.172532 
L 634.976972 309.668989 
L 636.802092 309.672407 
L 638.627213 311.407847 
L 640.452333 314.896473 
L 642.277453 316.15073 
L 644.102573 316.435671 
L 645.927693 316.930923 
L 647.752813 317.094785 
L 649.577934 317.881795 
L 651.403054 317.882603 
L 653.228174 319.057503 
L 656.878414 319.105302 
L 660.528654 319.987661 
L 662.353775 320.454502 
L 664.178895 323.159378 
L 666.004015 326.456751 
L 667.829135 326.635686 
L 669.654255 329.192329 
L 671.479375 330.537009 
L 673.304496 331.083818 
L 675.129616 331.786114 
L 676.954736 332.815042 
L 678.779856 333.266827 
L 680.604976 333.401455 
L 682.430096 337.130969 
L 684.255217 338.987542 
L 686.080337 339.160967 
L 687.905457 340.016582 
L 689.730577 340.027725 
L 691.555697 340.159542 
L 693.380817 341.69894 
L 695.205938 341.794768 
L 695.205938 341.794768 
" clip-path="url(#p6fe4f174b2)" style="fill: none; stroke-dasharray: 5.92,2.56; stroke-dashoffset: 0; stroke: #1f77b4; stroke-width: 1.6"/>
   </g>
   <g id="line2d_33">
    <path d="M 49.113401 69.366019 
L 50.938522 70.214101 
L 52.763642 70.798528 
L 54.588762 71.016558 
L 56.413882 71.665765 
L 58.239002 72.561802 
L 60.064122 74.308592 
L 61.889243 74.383917 
L 63.714363 75.264347 
L 65.539483 75.290825 
L 67.364603 77.714871 
L 71.014843 78.358468 
L 72.839963 79.271808 
L 76.490204 79.526158 
L 78.315324 80.099426 
L 80.140444 80.925789 
L 81.965564 81.561288 
L 83.790684 82.068517 
L 87.440925 82.592135 
L 89.266045 82.928042 
L 91.091165 84.657875 
L 92.916285 86.797248 
L 100.216766 88.254902 
L 105.692126 89.509491 
L 107.517246 91.459436 
L 109.342367 91.827466 
L 111.167487 92.629109 
L 112.992607 94.084108 
L 114.817727 95.939324 
L 118.467967 96.325425 
L 120.293088 96.83511 
L 122.118208 97.092661 
L 123.943328 97.139256 
L 125.768448 98.961877 
L 127.593568 100.196509 
L 129.418688 100.381071 
L 131.243809 100.894263 
L 134.894049 101.114036 
L 136.719169 101.705933 
L 138.544289 102.095939 
L 140.369409 102.129041 
L 142.194529 103.520205 
L 145.84477 103.778542 
L 147.66989 104.183313 
L 149.49501 105.614376 
L 151.32013 106.17114 
L 153.14525 106.239632 
L 154.970371 106.529099 
L 156.795491 106.545147 
L 160.445731 107.168328 
L 164.095971 107.821167 
L 165.921092 107.852758 
L 167.746212 108.960829 
L 169.571332 109.298239 
L 171.396452 110.496683 
L 173.221572 112.410993 
L 175.046692 112.515798 
L 176.871813 112.987024 
L 178.696933 113.060448 
L 180.522053 114.359989 
L 182.347173 114.544315 
L 184.172293 115.052211 
L 185.997413 116.459279 
L 187.822533 117.092318 
L 189.647654 117.144533 
L 191.472774 118.430472 
L 196.948134 121.671896 
L 198.773254 121.943239 
L 200.598375 122.773053 
L 202.423495 122.817817 
L 204.248615 123.71854 
L 206.073735 124.355454 
L 207.898855 124.734537 
L 209.723975 124.905672 
L 211.549096 125.562337 
L 215.199336 125.955118 
L 217.024456 125.981475 
L 218.849576 126.392983 
L 220.674696 127.909267 
L 222.499816 128.301677 
L 224.324937 129.217841 
L 226.150057 129.455074 
L 227.975177 129.963975 
L 229.800297 130.622095 
L 231.625417 132.457148 
L 233.450537 133.598086 
L 235.275658 133.648093 
L 238.925898 134.225821 
L 244.401258 135.509524 
L 248.051499 136.038462 
L 249.876619 136.504898 
L 253.526859 138.16974 
L 255.351979 139.372586 
L 257.177099 139.768866 
L 260.82734 141.589849 
L 264.47758 141.694067 
L 266.3027 142.213447 
L 271.778061 142.643889 
L 273.603181 143.288862 
L 275.428301 143.732214 
L 277.253421 145.28169 
L 279.078541 145.879247 
L 282.728782 146.430343 
L 284.553902 146.772282 
L 288.204142 148.195073 
L 290.029262 149.205585 
L 291.854382 149.813131 
L 293.679503 149.825073 
L 295.504623 149.977954 
L 297.329743 151.714289 
L 299.154863 151.980487 
L 300.979983 153.612421 
L 302.805103 153.642792 
L 304.630224 153.99901 
L 306.455344 154.179089 
L 308.280464 154.843814 
L 310.105584 154.908018 
L 311.930704 155.917528 
L 313.755824 157.676671 
L 315.580945 157.977971 
L 317.406065 160.125183 
L 319.231185 163.17352 
L 321.056305 163.20943 
L 322.881425 164.239319 
L 324.706545 164.320696 
L 326.531665 164.514336 
L 328.356786 164.519935 
L 330.181906 164.833809 
L 332.007026 165.260785 
L 333.832146 165.9748 
L 335.657266 168.018662 
L 339.307507 168.233492 
L 341.132627 169.046321 
L 342.957747 169.993847 
L 344.782867 172.352029 
L 346.607987 173.306114 
L 348.433107 173.918174 
L 350.258228 177.2955 
L 353.908468 179.154731 
L 355.733588 179.233286 
L 357.558708 179.503589 
L 359.383828 179.605139 
L 361.208949 180.04735 
L 363.034069 180.29459 
L 364.859189 181.793207 
L 368.509429 182.133533 
L 370.334549 183.20524 
L 372.159669 183.296771 
L 373.98479 183.828724 
L 375.80991 183.974404 
L 377.63503 184.608246 
L 379.46015 184.624973 
L 381.28527 185.05924 
L 383.11039 185.097086 
L 384.935511 187.567637 
L 388.585751 188.407602 
L 390.410871 188.558537 
L 392.235991 189.886869 
L 394.061111 190.587207 
L 395.886232 190.676713 
L 397.711352 192.366881 
L 399.536472 192.942865 
L 401.361592 193.952517 
L 403.186712 195.393349 
L 405.011832 196.005498 
L 408.662073 196.078998 
L 410.487193 197.125412 
L 412.312313 198.611426 
L 414.137433 201.190379 
L 415.962553 204.924588 
L 419.612794 206.229732 
L 421.437914 206.314589 
L 426.913274 206.974331 
L 428.738394 208.175514 
L 430.563515 208.252538 
L 432.388635 208.54204 
L 434.213755 209.297203 
L 436.038875 209.494584 
L 437.863995 209.500157 
L 439.689115 209.685744 
L 441.514235 210.022041 
L 445.164476 211.543954 
L 446.989596 211.971274 
L 448.814716 214.535148 
L 452.464956 214.731333 
L 454.290077 216.590351 
L 456.115197 220.524095 
L 457.940317 220.72417 
L 459.765437 221.080051 
L 461.590557 221.983247 
L 463.415677 222.417722 
L 465.240798 223.145576 
L 467.065918 224.800696 
L 468.891038 224.851193 
L 470.716158 226.340338 
L 472.541278 227.265792 
L 476.191518 227.422207 
L 478.016639 229.262286 
L 479.841759 229.647824 
L 481.666879 231.680466 
L 483.491999 231.739399 
L 487.142239 232.715357 
L 488.96736 235.399193 
L 490.79248 236.728512 
L 492.6176 238.612757 
L 496.26784 239.539849 
L 499.918081 239.689906 
L 501.743201 239.777649 
L 505.393441 242.443074 
L 507.218561 242.4645 
L 509.043681 243.003112 
L 510.868801 243.70888 
L 512.693922 244.021009 
L 514.519042 244.154793 
L 516.344162 245.27586 
L 518.169282 245.873 
L 523.644643 246.974105 
L 525.469763 249.163832 
L 527.294883 249.539459 
L 529.120003 249.554154 
L 532.770243 251.018629 
L 534.595364 251.424123 
L 536.420484 251.51461 
L 538.245604 252.343455 
L 540.070724 253.008829 
L 545.546085 253.23201 
L 547.371205 254.189204 
L 549.196325 256.498183 
L 551.021445 256.543695 
L 552.846565 258.435988 
L 554.671685 260.008015 
L 556.496805 262.384002 
L 558.321926 262.611254 
L 560.147046 262.967276 
L 561.972166 263.176226 
L 563.797286 264.082726 
L 565.622406 265.886199 
L 567.447526 266.966727 
L 569.272647 267.026379 
L 571.097767 268.191338 
L 572.922887 268.482152 
L 574.748007 269.72977 
L 578.398247 273.858757 
L 580.223368 274.113565 
L 582.048488 274.685828 
L 583.873608 276.181747 
L 585.698728 280.576044 
L 587.523848 283.506295 
L 589.348968 285.135279 
L 591.174088 285.619289 
L 592.999209 285.707332 
L 594.824329 287.024854 
L 596.649449 288.655458 
L 598.474569 288.767497 
L 600.299689 289.904864 
L 602.124809 290.381249 
L 603.94993 291.912016 
L 605.77505 292.364884 
L 607.60017 294.950725 
L 609.42529 296.595923 
L 611.25041 300.116829 
L 613.07553 300.751949 
L 614.900651 302.614479 
L 616.725771 303.788356 
L 620.376011 304.520451 
L 622.201131 305.442045 
L 624.026251 306.01716 
L 625.851371 306.437643 
L 627.676492 309.368644 
L 629.501612 310.22874 
L 631.326732 310.763749 
L 633.151852 314.36143 
L 634.976972 314.781372 
L 636.802092 315.496909 
L 638.627213 317.842167 
L 640.452333 317.844866 
L 642.277453 318.573464 
L 644.102573 318.846686 
L 645.927693 319.449384 
L 653.228174 320.504353 
L 655.053294 322.60586 
L 656.878414 323.183255 
L 658.703534 324.618707 
L 660.528654 324.741067 
L 662.353775 325.211041 
L 664.178895 326.233137 
L 666.004015 326.266212 
L 667.829135 332.346161 
L 669.654255 333.303515 
L 671.479375 333.524411 
L 673.304496 336.13763 
L 678.779856 336.462218 
L 680.604976 338.051681 
L 684.255217 340.944819 
L 686.080337 341.991399 
L 691.555697 344.424912 
L 693.380817 344.662109 
L 695.205938 345.693938 
L 695.205938 345.693938 
" clip-path="url(#p6fe4f174b2)" style="fill: none; stroke-dasharray: 10.24,2.56,1.6,2.56; stroke-dashoffset: 0; stroke: #2ca02c; stroke-width: 1.6"/>
   </g>
   <g id="patch_3">
    <path d="M 47.288281 349.793906 
L 47.288281 37.922578 
" style="fill: none; stroke: #000000; stroke-width: 0.8; stroke-linejoin: miter; stroke-linecap: square"/>
   </g>
   <g id="patch_4">
    <path d="M 695.205938 349.793906 
L 695.205938 37.922578 
" style="fill: none; stroke: #000000; stroke-width: 0.8; stroke-linejoin: miter; stroke-linecap: square"/>
   </g>
   <g id="patch_5">
    <path d="M 47.288281 349.793906 
L 695.205938 349.793906 
" style="fill: none; stroke: #000000; stroke-width: 0.8; stroke-linejoin: miter; stroke-linecap: square"/>
   </g>
   <g id="patch_6">
    <path d="M 47.288281 37.922578 
L 695.205938 37.922578 
" style="fill: none; stroke: #000000; stroke-width: 0.8; stroke-linejoin: miter; stroke-linecap: square"/>
   </g>
   <g id="text_18">
    <!-- Jülich PV 2023 — duration curve of daily maximum generation -->
    <g transform="translate(184.009609 17.519297) scale(0.12 -0.12)">
     <defs>
      <path id="DejaVuSans-2d" d="M 628 4666 
L 1259 4666 
L 1259 325 
Q 1259 -519 939 -900 
Q 619 -1281 -91 -1281 
L -331 -1281 
L -331 -750 
L -134 -750 
Q 284 -750 456 -515 
Q 628 -281 628 325 
L 628 4666 
z
" transform="scale(0.015625)"/>
      <path id="DejaVuSans-be" d="M 544 1381 
L 544 3500 
L 1119 3500 
L 1119 1403 
Q 1119 906 1312 657 
Q 1506 409 1894 409 
Q 2359 409 2629 706 
Q 2900 1003 2900 1516 
L 2900 3500 
L 3475 3500 
L 3475 0 
L 2900 0 
L 2900 538 
Q 2691 219 2414 64 
Q 2138 -91 1772 -91 
Q 1169 -91 856 284 
Q 544 659 544 1381 
z
M 1991 3584 
L 1991 3584 
z
M 2278 4850 
L 2912 4850 
L 2912 4219 
L 2278 4219 
L 2278 4850 
z
M 1056 4850 
L 1690 4850 
L 1690 4219 
L 1056 4219 
L 1056 4850 
z
" transform="scale(0.015625)"/>
      <path id="DejaVuSans-4b" d="M 3513 2113 
L 3513 0 
L 2938 0 
L 2938 2094 
Q 2938 2591 2744 2837 
Q 2550 3084 2163 3084 
Q 1697 3084 1428 2787 
Q 1159 2491 1159 1978 
L 1159 0 
L 581 0 
L 581 4863 
L 1159 4863 
L 1159 2956 
Q 1366 3272 1645 3428 
Q 1925 3584 2291 3584 
Q 2894 3584 3203 3211 
Q 3513 2838 3513 2113 
z
" transform="scale(0.015625)"/>
      <path id="DejaVuSans-33" d="M 1259 4147 
L 1259 2394 
L 2053 2394 
Q 2494 2394 2734 2622 
Q 2975 2850 2975 3272 
Q 2975 3691 2734 3919 
Q 2494 4147 2053 4147 
L 1259 4147 
z
M 628 4666 
L 2053 4666 
Q 2838 4666 3239 4311 
Q 3641 3956 3641 3272 
Q 3641 2581 3239 2228 
Q 2838 1875 2053 1875 
L 1259 1875 
L 1259 0 
L 628 0 
L 628 4666 
z
" transform="scale(0.015625)"/>
      <path id="DejaVuSans-39" d="M 1831 0 
L 50 4666 
L 709 4666 
L 2188 738 
L 3669 4666 
L 4325 4666 
L 2547 0 
L 1831 0 
z
" transform="scale(0.015625)"/>
      <path id="DejaVuSans-16" d="M 2597 2516 
Q 3050 2419 3304 2112 
Q 3559 1806 3559 1356 
Q 3559 666 3084 287 
Q 2609 -91 1734 -91 
Q 1441 -91 1130 -33 
Q 819 25 488 141 
L 488 750 
Q 750 597 1062 519 
Q 1375 441 1716 441 
Q 2309 441 2620 675 
Q 2931 909 2931 1356 
Q 2931 1769 2642 2001 
Q 2353 2234 1838 2234 
L 1294 2234 
L 1294 2753 
L 1863 2753 
Q 2328 2753 2575 2939 
Q 2822 3125 2822 3475 
Q 2822 3834 2567 4026 
Q 2313 4219 1838 4219 
Q 1578 4219 1281 4162 
Q 984 4106 628 3988 
L 628 4550 
Q 988 4650 1302 4700 
Q 1616 4750 1894 4750 
Q 2613 4750 3031 4423 
Q 3450 4097 3450 3541 
Q 3450 3153 3228 2886 
Q 3006 2619 2597 2516 
z
" transform="scale(0.015625)"/>
      <path id="DejaVuSans-af6" d="M 313 1978 
L 6088 1978 
L 6088 1528 
L 313 1528 
L 313 1978 
z
" transform="scale(0.015625)"/>
      <path id="DejaVuSans-59" d="M 191 3500 
L 800 3500 
L 1894 563 
L 2988 3500 
L 3597 3500 
L 2284 0 
L 1503 0 
L 191 3500 
z
" transform="scale(0.015625)"/>
      <path id="DejaVuSans-4a" d="M 2906 1791 
Q 2906 2416 2648 2759 
Q 2391 3103 1925 3103 
Q 1463 3103 1205 2759 
Q 947 2416 947 1791 
Q 947 1169 1205 825 
Q 1463 481 1925 481 
Q 2391 481 2648 825 
Q 2906 1169 2906 1791 
z
M 3481 434 
Q 3481 -459 3084 -895 
Q 2688 -1331 1869 -1331 
Q 1566 -1331 1297 -1286 
Q 1028 -1241 775 -1147 
L 775 -588 
Q 1028 -725 1275 -790 
Q 1522 -856 1778 -856 
Q 2344 -856 2625 -561 
Q 2906 -266 2906 331 
L 2906 616 
Q 2728 306 2450 153 
Q 2172 0 1784 0 
Q 1141 0 747 490 
Q 353 981 353 1791 
Q 353 2603 747 3093 
Q 1141 3584 1784 3584 
Q 2172 3584 2450 3431 
Q 2728 3278 2906 2969 
L 2906 3500 
L 3481 3500 
L 3481 434 
z
" transform="scale(0.015625)"/>
     </defs>
     <use xlink:href="#DejaVuSans-2d"/>
     <use xlink:href="#DejaVuSans-be" transform="translate(29.5 0)"/>
     <use xlink:href="#DejaVuSans-4f" transform="translate(92.875 0)"/>
     <use xlink:href="#DejaVuSans-4c" transform="translate(120.65625 0)"/>
     <use xlink:href="#DejaVuSans-46" transform="translate(148.4375 0)"/>
     <use xlink:href="#DejaVuSans-4b" transform="translate(203.421875 0)"/>
     <use xlink:href="#DejaVuSans-3" transform="translate(266.796875 0)"/>
     <use xlink:href="#DejaVuSans-33" transform="translate(298.578125 0)"/>
     <use xlink:href="#DejaVuSans-39" transform="translate(358.875 0)"/>
     <use xlink:href="#DejaVuSans-3" transform="translate(427.28125 0)"/>
     <use xlink:href="#DejaVuSans-15" transform="translate(459.0625 0)"/>
     <use xlink:href="#DejaVuSans-13" transform="translate(522.6875 0)"/>
     <use xlink:href="#DejaVuSans-15" transform="translate(586.3125 0)"/>
     <use xlink:href="#DejaVuSans-16" transform="translate(649.9375 0)"/>
     <use xlink:href="#DejaVuSans-3" transform="translate(713.5625 0)"/>
     <use xlink:href="#DejaVuSans-af6" transform="translate(745.34375 0)"/>
     <use xlink:href="#DejaVuSans-3" transform="translate(845.34375 0)"/>
     <use xlink:href="#DejaVuSans-47" transform="translate(877.125 0)"/>
     <use xlink:href="#DejaVuSans-58" transform="translate(940.609375 0)"/>
     <use xlink:href="#DejaVuSans-55" transform="translate(1003.984375 0)"/>
     <use xlink:href="#DejaVuSans-44" transform="translate(1045.09375 0)"/>
     <use xlink:href="#DejaVuSans-57" transform="translate(1106.375 0)"/>
     <use xlink:href="#DejaVuSans-4c" transform="translate(1145.578125 0)"/>
     <use xlink:href="#DejaVuSans-52" transform="translate(1173.359375 0)"/>
     <use xlink:href="#DejaVuSans-51" transform="translate(1234.546875 0)"/>
     <use xlink:href="#DejaVuSans-3" transform="translate(1297.921875 0)"/>
     <use xlink:href="#DejaVuSans-46" transform="translate(1329.703125 0)"/>
     <use xlink:href="#DejaVuSans-58" transform="translate(1384.6875 0)"/>
     <use xlink:href="#DejaVuSans-55" transform="translate(1448.0625 0)"/>
     <use xlink:href="#DejaVuSans-59" transform="translate(1489.171875 0)"/>
     <use xlink:href="#DejaVuSans-48" transform="translate(1548.359375 0)"/>
     <use xlink:href="#DejaVuSans-3" transform="translate(1609.890625 0)"/>
     <use xlink:href="#DejaVuSans-52" transform="translate(1641.671875 0)"/>
     <use xlink:href="#DejaVuSans-49" transform="translate(1702.859375 0)"/>
     <use xlink:href="#DejaVuSans-3" transform="translate(1738.0625 0)"/>
     <use xlink:href="#DejaVuSans-47" transform="translate(1769.84375 0)"/>
     <use xlink:href="#DejaVuSans-44" transform="translate(1833.328125 0)"/>
     <use xlink:href="#DejaVuSans-4c" transform="translate(1894.609375 0)"/>
     <use xlink:href="#DejaVuSans-4f" transform="translate(1922.390625 0)"/>
     <use xlink:href="#DejaVuSans-5c" transform="translate(1950.171875 0)"/>
     <use xlink:href="#DejaVuSans-3" transform="translate(2009.359375 0)"/>
     <use xlink:href="#DejaVuSans-50" transform="translate(2041.140625 0)"/>
     <use xlink:href="#DejaVuSans-44" transform="translate(2138.546875 0)"/>
     <use xlink:href="#DejaVuSans-5b" transform="translate(2199.828125 0)"/>
     <use xlink:href="#DejaVuSans-4c" transform="translate(2259.015625 0)"/>
     <use xlink:href="#DejaVuSans-50" transform="translate(2286.796875 0)"/>
     <use xlink:href="#DejaVuSans-58" transform="translate(2384.203125 0)"/>
     <use xlink:href="#DejaVuSans-50" transform="translate(2447.578125 0)"/>
     <use xlink:href="#DejaVuSans-3" transform="translate(2544.984375 0)"/>
     <use xlink:href="#DejaVuSans-4a" transform="translate(2576.765625 0)"/>
     <use xlink:href="#DejaVuSans-48" transform="translate(2640.25 0)"/>
     <use xlink:href="#DejaVuSans-51" transform="translate(2701.78125 0)"/>
     <use xlink:href="#DejaVuSans-48" transform="translate(2765.15625 0)"/>
     <use xlink:href="#DejaVuSans-55" transform="translate(2826.6875 0)"/>
     <use xlink:href="#DejaVuSans-44" transform="translate(2867.796875 0)"/>
     <use xlink:href="#DejaVuSans-57" transform="translate(2929.078125 0)"/>
     <use xlink:href="#DejaVuSans-4c" transform="translate(2968.28125 0)"/>
     <use xlink:href="#DejaVuSans-52" transform="translate(2996.0625 0)"/>
     <use xlink:href="#DejaVuSans-51" transform="translate(3057.25 0)"/>
    </g>
    <!-- (sims include inverter/aging) -->
    <g transform="translate(284.774922 31.922578) scale(0.12 -0.12)">
     <defs>
      <path id="DejaVuSans-12" d="M 1625 4666 
L 2156 4666 
L 531 -594 
L 0 -594 
L 1625 4666 
z
" transform="scale(0.015625)"/>
     </defs>
     <use xlink:href="#DejaVuSans-b"/>
     <use xlink:href="#DejaVuSans-56" transform="translate(39.015625 0)"/>
     <use xlink:href="#DejaVuSans-4c" transform="translate(91.109375 0)"/>
     <use xlink:href="#DejaVuSans-50" transform="translate(118.890625 0)"/>
     <use xlink:href="#DejaVuSans-56" transform="translate(216.296875 0)"/>
     <use xlink:href="#DejaVuSans-3" transform="translate(268.390625 0)"/>
     <use xlink:href="#DejaVuSans-4c" transform="translate(300.171875 0)"/>
     <use xlink:href="#DejaVuSans-51" transform="translate(327.953125 0)"/>
     <use xlink:href="#DejaVuSans-46" transform="translate(391.328125 0)"/>
     <use xlink:href="#DejaVuSans-4f" transform="translate(446.3125 0)"/>
     <use xlink:href="#DejaVuSans-58" transform="translate(474.09375 0)"/>
     <use xlink:href="#DejaVuSans-47" transform="translate(537.46875 0)"/>
     <use xlink:href="#DejaVuSans-48" transform="translate(600.953125 0)"/>
     <use xlink:href="#DejaVuSans-3" transform="translate(662.484375 0)"/>
     <use xlink:href="#DejaVuSans-4c" transform="translate(694.265625 0)"/>
     <use xlink:href="#DejaVuSans-51" transform="translate(722.046875 0)"/>
     <use xlink:href="#DejaVuSans-59" transform="translate(785.421875 0)"/>
     <use xlink:href="#DejaVuSans-48" transform="translate(844.609375 0)"/>
     <use xlink:href="#DejaVuSans-55" transform="translate(906.140625 0)"/>
     <use xlink:href="#DejaVuSans-57" transform="translate(947.25 0)"/>
     <use xlink:href="#DejaVuSans-48" transform="translate(986.453125 0)"/>
     <use xlink:href="#DejaVuSans-55" transform="translate(1047.984375 0)"/>
     <use xlink:href="#DejaVuSans-12" transform="translate(1089.09375 0)"/>
     <use xlink:href="#DejaVuSans-44" transform="translate(1122.78125 0)"/>
     <use xlink:href="#DejaVuSans-4a" transform="translate(1184.0625 0)"/>
     <use xlink:href="#DejaVuSans-4c" transform="translate(1247.546875 0)"/>
     <use xlink:href="#DejaVuSans-51" transform="translate(1275.328125 0)"/>
     <use xlink:href="#DejaVuSans-4a" transform="translate(1338.703125 0)"/>
     <use xlink:href="#DejaVuSans-c" transform="translate(1402.1875 0)"/>
    </g>
   </g>
   <g id="legend_1">
    <g id="patch_7">
     <path d="M 463.277813 90.924922 
L 688.205938 90.924922 
Q 690.205938 90.924922 690.205938 88.924922 
L 690.205938 44.922578 
Q 690.205938 42.922578 688.205938 42.922578 
L 463.277813 42.922578 
Q 461.277813 42.922578 461.277813 44.922578 
L 461.277813 88.924922 
Q 461.277813 90.924922 463.277813 90.924922 
z
" style="fill: #ffffff; opacity: 0.95; stroke: #cccccc; stroke-linejoin: miter"/>
    </g>
    <g id="line2d_34">
     <path d="M 465.277813 51.021016 
L 475.277813 51.021016 
L 485.277813 51.021016 
" style="fill: none; stroke: #000000; stroke-width: 2; stroke-linecap: square"/>
    </g>
    <g id="text_19">
     <!-- Actual (daily max) -->
     <g transform="translate(493.277813 54.521016) scale(0.1 -0.1)">
      <defs>
       <path id="DejaVuSans-24" d="M 2188 4044 
L 1331 1722 
L 3047 1722 
L 2188 4044 
z
M 1831 4666 
L 2547 4666 
L 4325 0 
L 3669 0 
L 3244 1197 
L 1141 1197 
L 716 0 
L 50 0 
L 1831 4666 
z
" transform="scale(0.015625)"/>
      </defs>
      <use xlink:href="#DejaVuSans-24"/>
      <use xlink:href="#DejaVuSans-46" transform="translate(66.65625 0)"/>
      <use xlink:href="#DejaVuSans-57" transform="translate(121.640625 0)"/>
      <use xlink:href="#DejaVuSans-58" transform="translate(160.84375 0)"/>
      <use xlink:href="#DejaVuSans-44" transform="translate(224.21875 0)"/>
      <use xlink:href="#DejaVuSans-4f" transform="translate(285.5 0)"/>
      <use xlink:href="#DejaVuSans-3" transform="translate(313.28125 0)"/>
      <use xlink:href="#DejaVuSans-b" transform="translate(345.0625 0)"/>
      <use xlink:href="#DejaVuSans-47" transform="translate(384.078125 0)"/>
      <use xlink:href="#DejaVuSans-44" transform="translate(447.5625 0)"/>
      <use xlink:href="#DejaVuSans-4c" transform="translate(508.84375 0)"/>
      <use xlink:href="#DejaVuSans-4f" transform="translate(536.625 0)"/>
      <use xlink:href="#DejaVuSans-5c" transform="translate(564.40625 0)"/>
      <use xlink:href="#DejaVuSans-3" transform="translate(623.59375 0)"/>
      <use xlink:href="#DejaVuSans-50" transform="translate(655.375 0)"/>
      <use xlink:href="#DejaVuSans-44" transform="translate(752.78125 0)"/>
      <use xlink:href="#DejaVuSans-5b" transform="translate(814.0625 0)"/>
      <use xlink:href="#DejaVuSans-c" transform="translate(873.25 0)"/>
     </g>
    </g>
    <g id="line2d_35">
     <path d="M 465.277813 66.021797 
L 475.277813 66.021797 
L 485.277813 66.021797 
" style="fill: none; stroke-dasharray: 5.92,2.56; stroke-dashoffset: 0; stroke: #1f77b4; stroke-width: 1.6"/>
    </g>
    <g id="text_20">
     <!-- PVLib SAPM ×η_inv×aging (daily max) -->
     <g transform="translate(493.277813 69.521797) scale(0.1 -0.1)">
      <defs>
       <path id="DejaVuSans-2f" d="M 628 4666 
L 1259 4666 
L 1259 531 
L 3531 531 
L 3531 0 
L 628 0 
L 628 4666 
z
" transform="scale(0.015625)"/>
       <path id="DejaVuSans-45" d="M 3116 1747 
Q 3116 2381 2855 2742 
Q 2594 3103 2138 3103 
Q 1681 3103 1420 2742 
Q 1159 2381 1159 1747 
Q 1159 1113 1420 752 
Q 1681 391 2138 391 
Q 2594 391 2855 752 
Q 3116 1113 3116 1747 
z
M 1159 2969 
Q 1341 3281 1617 3432 
Q 1894 3584 2278 3584 
Q 2916 3584 3314 3078 
Q 3713 2572 3713 1747 
Q 3713 922 3314 415 
Q 2916 -91 2278 -91 
Q 1894 -91 1617 61 
Q 1341 213 1159 525 
L 1159 0 
L 581 0 
L 581 4863 
L 1159 4863 
L 1159 2969 
z
" transform="scale(0.015625)"/>
       <path id="DejaVuSans-36" d="M 3425 4513 
L 3425 3897 
Q 3066 4069 2747 4153 
Q 2428 4238 2131 4238 
Q 1616 4238 1336 4038 
Q 1056 3838 1056 3469 
Q 1056 3159 1242 3001 
Q 1428 2844 1947 2747 
L 2328 2669 
Q 3034 2534 3370 2195 
Q 3706 1856 3706 1288 
Q 3706 609 3251 259 
Q 2797 -91 1919 -91 
Q 1588 -91 1214 -16 
Q 841 59 441 206 
L 441 856 
Q 825 641 1194 531 
Q 1563 422 1919 422 
Q 2459 422 2753 634 
Q 3047 847 3047 1241 
Q 3047 1584 2836 1778 
Q 2625 1972 2144 2069 
L 1759 2144 
Q 1053 2284 737 2584 
Q 422 2884 422 3419 
Q 422 4038 858 4394 
Q 1294 4750 2059 4750 
Q 2388 4750 2728 4690 
Q 3069 4631 3425 4513 
z
" transform="scale(0.015625)"/>
       <path id="DejaVuSans-30" d="M 628 4666 
L 1569 4666 
L 2759 1491 
L 3956 4666 
L 4897 4666 
L 4897 0 
L 4281 0 
L 4281 4097 
L 3078 897 
L 2444 897 
L 1241 4097 
L 1241 0 
L 628 0 
L 628 4666 
z
" transform="scale(0.015625)"/>
       <path id="DejaVuSans-99" d="M 4488 3438 
L 3059 2003 
L 4488 575 
L 4116 197 
L 2681 1631 
L 1247 197 
L 878 575 
L 2303 2003 
L 878 3438 
L 1247 3816 
L 2681 2381 
L 4116 3816 
L 4488 3438 
z
" transform="scale(0.015625)"/>
       <path id="DejaVuSans-34b" d="M 3513 2113 
L 3513 -1331 
L 2938 -1331 
L 2938 2094 
Q 2938 2591 2744 2837 
Q 2550 3084 2163 3084 
Q 1697 3084 1428 2787 
Q 1159 2491 1159 1978 
L 1159 0 
L 581 0 
L 581 3500 
L 1159 3500 
L 1159 2956 
Q 1366 3272 1644 3428 
Q 1925 3584 2291 3584 
Q 2894 3584 3203 3213 
Q 3513 2838 3513 2113 
z
" transform="scale(0.015625)"/>
       <path id="DejaVuSans-42" d="M 3263 -1063 
L 3263 -1509 
L -63 -1509 
L -63 -1063 
L 3263 -1063 
z
" transform="scale(0.015625)"/>
      </defs>
      <use xlink:href="#DejaVuSans-33"/>
      <use xlink:href="#DejaVuSans-39" transform="translate(60.296875 0)"/>
      <use xlink:href="#DejaVuSans-2f" transform="translate(128.703125 0)"/>
      <use xlink:href="#DejaVuSans-4c" transform="translate(184.421875 0)"/>
      <use xlink:href="#DejaVuSans-45" transform="translate(212.203125 0)"/>
      <use xlink:href="#DejaVuSans-3" transform="translate(275.6875 0)"/>
      <use xlink:href="#DejaVuSans-36" transform="translate(307.46875 0)"/>
      <use xlink:href="#DejaVuSans-24" transform="translate(372.8125 0)"/>
      <use xlink:href="#DejaVuSans-33" transform="translate(441.21875 0)"/>
      <use xlink:href="#DejaVuSans-30" transform="translate(501.515625 0)"/>
      <use xlink:href="#DejaVuSans-3" transform="translate(587.796875 0)"/>
      <use xlink:href="#DejaVuSans-99" transform="translate(619.578125 0)"/>
      <use xlink:href="#DejaVuSans-34b" transform="translate(703.375 0)"/>
      <use xlink:href="#DejaVuSans-42" transform="translate(766.75 0)"/>
      <use xlink:href="#DejaVuSans-4c" transform="translate(816.75 0)"/>
      <use xlink:href="#DejaVuSans-51" transform="translate(844.53125 0)"/>
      <use xlink:href="#DejaVuSans-59" transform="translate(907.90625 0)"/>
      <use xlink:href="#DejaVuSans-99" transform="translate(967.09375 0)"/>
      <use xlink:href="#DejaVuSans-44" transform="translate(1050.890625 0)"/>
      <use xlink:href="#DejaVuSans-4a" transform="translate(1112.171875 0)"/>
      <use xlink:href="#DejaVuSans-4c" transform="translate(1175.65625 0)"/>
      <use xlink:href="#DejaVuSans-51" transform="translate(1203.4375 0)"/>
      <use xlink:href="#DejaVuSans-4a" transform="translate(1266.8125 0)"/>
      <use xlink:href="#DejaVuSans-3" transform="translate(1330.296875 0)"/>
      <use xlink:href="#DejaVuSans-b" transform="translate(1362.078125 0)"/>
      <use xlink:href="#DejaVuSans-47" transform="translate(1401.09375 0)"/>
      <use xlink:href="#DejaVuSans-44" transform="translate(1464.578125 0)"/>
      <use xlink:href="#DejaVuSans-4c" transform="translate(1525.859375 0)"/>
      <use xlink:href="#DejaVuSans-4f" transform="translate(1553.640625 0)"/>
      <use xlink:href="#DejaVuSans-5c" transform="translate(1581.421875 0)"/>
      <use xlink:href="#DejaVuSans-3" transform="translate(1640.609375 0)"/>
      <use xlink:href="#DejaVuSans-50" transform="translate(1672.390625 0)"/>
      <use xlink:href="#DejaVuSans-44" transform="translate(1769.796875 0)"/>
      <use xlink:href="#DejaVuSans-5b" transform="translate(1831.078125 0)"/>
      <use xlink:href="#DejaVuSans-c" transform="translate(1890.265625 0)"/>
     </g>
    </g>
    <g id="line2d_36">
     <path d="M 465.277813 81.022578 
L 475.277813 81.022578 
L 485.277813 81.022578 
" style="fill: none; stroke-dasharray: 10.24,2.56,1.6,2.56; stroke-dashoffset: 0; stroke: #2ca02c; stroke-width: 1.6"/>
    </g>
    <g id="text_21">
     <!-- Atlite CSi ×aging (daily max) -->
     <g transform="translate(493.277813 84.522578) scale(0.1 -0.1)">
      <defs>
       <path id="DejaVuSans-26" d="M 4122 4306 
L 4122 3641 
Q 3803 3938 3442 4084 
Q 3081 4231 2675 4231 
Q 1875 4231 1450 3742 
Q 1025 3253 1025 2328 
Q 1025 1406 1450 917 
Q 1875 428 2675 428 
Q 3081 428 3442 575 
Q 3803 722 4122 1019 
L 4122 359 
Q 3791 134 3420 21 
Q 3050 -91 2638 -91 
Q 1578 -91 968 557 
Q 359 1206 359 2328 
Q 359 3453 968 4101 
Q 1578 4750 2638 4750 
Q 3056 4750 3426 4639 
Q 3797 4528 4122 4306 
z
" transform="scale(0.015625)"/>
      </defs>
      <use xlink:href="#DejaVuSans-24"/>
      <use xlink:href="#DejaVuSans-57" transform="translate(66.65625 0)"/>
      <use xlink:href="#DejaVuSans-4f" transform="translate(105.859375 0)"/>
      <use xlink:href="#DejaVuSans-4c" transform="translate(133.640625 0)"/>
      <use xlink:href="#DejaVuSans-57" transform="translate(161.421875 0)"/>
      <use xlink:href="#DejaVuSans-48" transform="translate(200.625 0)"/>
      <use xlink:href="#DejaVuSans-3" transform="translate(262.15625 0)"/>
      <use xlink:href="#DejaVuSans-26" transform="translate(293.9375 0)"/>
      <use xlink:href="#DejaVuSans-36" transform="translate(363.765625 0)"/>
      <use xlink:href="#DejaVuSans-4c" transform="translate(427.25 0)"/>
      <use xlink:href="#DejaVuSans-3" transform="translate(455.03125 0)"/>
      <use xlink:href="#DejaVuSans-99" transform="translate(486.8125 0)"/>
      <use xlink:href="#DejaVuSans-44" transform="translate(570.609375 0)"/>
      <use xlink:href="#DejaVuSans-4a" transform="translate(631.890625 0)"/>
      <use xlink:href="#DejaVuSans-4c" transform="translate(695.375 0)"/>
      <use xlink:href="#DejaVuSans-51" transform="translate(723.15625 0)"/>
      <use xlink:href="#DejaVuSans-4a" transform="translate(786.53125 0)"/>
      <use xlink:href="#DejaVuSans-3" transform="translate(850.015625 0)"/>
      <use xlink:href="#DejaVuSans-b" transform="translate(881.796875 0)"/>
      <use xlink:href="#DejaVuSans-47" transform="translate(920.8125 0)"/>
      <use xlink:href="#DejaVuSans-44" transform="translate(984.296875 0)"/>
      <use xlink:href="#DejaVuSans-4c" transform="translate(1045.578125 0)"/>
      <use xlink:href="#DejaVuSans-4f" transform="translate(1073.359375 0)"/>
      <use xlink:href="#DejaVuSans-5c" transform="translate(1101.140625 0)"/>
      <use xlink:href="#DejaVuSans-3" transform="translate(1160.328125 0)"/>
      <use xlink:href="#DejaVuSans-50" transform="translate(1192.109375 0)"/>
      <use xlink:href="#DejaVuSans-44" transform="translate(1289.515625 0)"/>
      <use xlink:href="#DejaVuSans-5b" transform="translate(1350.796875 0)"/>
      <use xlink:href="#DejaVuSans-c" transform="translate(1409.984375 0)"/>
     </g>
    </g>
   </g>
  </g>
 </g>
 <defs>
  <clipPath id="p6fe4f174b2">
   <rect x="47.288281" y="37.922578" width="647.917656" height="311.871328"/>
  </clipPath>
 </defs>
</svg>
