<?xml version="1.0" encoding="utf-8" standalone="no"?>
<!DOCTYPE svg PUBLIC "-//W3C//DTD SVG 1.1//EN"
  "http://www.w3.org/Graphics/SVG/1.1/DTD/svg11.dtd">
<svg xmlns:xlink="http://www.w3.org/1999/xlink" width="711.714687pt" height="387.994687pt" viewBox="0 0 711.714687 387.994687" xmlns="http://www.w3.org/2000/svg" version="1.1">
 <metadata>
  <rdf:RDF xmlns:dc="http://purl.org/dc/elements/1.1/" xmlns:cc="http://creativecommons.org/ns#" xmlns:rdf="http://www.w3.org/1999/02/22-rdf-syntax-ns#">
   <cc:Work>
    <dc:type rdf:resource="http://purl.org/dc/dcmitype/StillImage"/>
    <dc:date>2026-07-21T16:00:30.832749</dc:date>
    <dc:format>image/svg+xml</dc:format>
    <dc:creator>
     <cc:Agent>
      <dc:title>Matplotlib v3.11.1, https://matplotlib.org/</dc:title>
     </cc:Agent>
    </dc:creator>
   </cc:Work>
  </rdf:RDF>
 </metadata>
 <defs>
  <style type="text/css">*{stroke-linejoin: round; stroke-linecap: butt}</style>
 </defs>
 <g id="figure_1">
  <g id="patch_1">
   <path d="M 0 387.994687 
L 711.714687 387.994687 
L 711.714687 0 
L 0 0 
z
" style="fill: #ffffff"/>
  </g>
  <g id="axes_1">
   <g id="patch_2">
    <path d="M 60.013281 349.793906 
L 694.970937 349.793906 
L 694.970937 37.922578 
L 60.013281 37.922578 
z
" style="fill: #ffffff"/>
   </g>
   <g id="matplotlib.axis_1">
    <g id="xtick_1">
     <g id="line2d_1">
      <path d="M 60.013281 349.793906 
L 60.013281 37.922578 
" clip-path="url(#p71f38c729d)" style="fill: none; stroke: #b0b0b0; stroke-opacity: 0.3; stroke-width: 0.8; stroke-linecap: square"/>
     </g>
     <g id="line2d_2">
      <defs>
       <path id="m02e491b6f3" d="M 0 0 
L 0 3.5 
" style="stroke: #000000; stroke-width: 0.8"/>
      </defs>
      <g>
       <use xlink:href="#m02e491b6f3" x="60.013281" y="349.793906" style="stroke: #000000; stroke-width: 0.8"/>
      </g>
     </g>
     <g id="text_1">
      <!-- 0 -->
      <g transform="translate(56.832031 364.391562) scale(0.1 -0.1)">
       <defs>
        <path id="DejaVuSans-13" d="M 2034 4250 
Q 1547 4250 1301 3770 
Q 1056 3291 1056 2328 
Q 1056 1369 1301 889 
Q 1547 409 2034 409 
Q 2525 409 2770 889 
Q 3016 1369 3016 2328 
Q 3016 3291 2770 3770 
Q 2525 4250 2034 4250 
z
M 2034 4750 
Q 2819 4750 3233 4129 
Q 3647 3509 3647 2328 
Q 3647 1150 3233 529 
Q 2819 -91 2034 -91 
Q 1250 -91 836 529 
Q 422 1150 422 2328 
Q 422 3509 836 4129 
Q 1250 4750 2034 4750 
z
" transform="scale(0.015625)"/>
       </defs>
       <use xlink:href="#DejaVuSans-13"/>
      </g>
     </g>
    </g>
    <g id="xtick_2">
     <g id="line2d_3">
      <path d="M 187.004813 349.793906 
L 187.004813 37.922578 
" clip-path="url(#p71f38c729d)" style="fill: none; stroke: #b0b0b0; stroke-opacity: 0.3; stroke-width: 0.8; stroke-linecap: square"/>
     </g>
     <g id="line2d_4">
      <g>
       <use xlink:href="#m02e491b6f3" x="187.004813" y="349.793906" style="stroke: #000000; stroke-width: 0.8"/>
      </g>
     </g>
     <g id="text_2">
      <!-- 20 -->
      <g transform="translate(180.642313 364.391562) scale(0.1 -0.1)">
       <defs>
        <path id="DejaVuSans-15" d="M 1228 531 
L 3431 531 
L 3431 0 
L 469 0 
L 469 531 
Q 828 903 1448 1529 
Q 2069 2156 2228 2338 
Q 2531 2678 2651 2914 
Q 2772 3150 2772 3378 
Q 2772 3750 2511 3984 
Q 2250 4219 1831 4219 
Q 1534 4219 1204 4116 
Q 875 4013 500 3803 
L 500 4441 
Q 881 4594 1212 4672 
Q 1544 4750 1819 4750 
Q 2544 4750 2975 4387 
Q 3406 4025 3406 3419 
Q 3406 3131 3298 2873 
Q 3191 2616 2906 2266 
Q 2828 2175 2409 1742 
Q 1991 1309 1228 531 
z
" transform="scale(0.015625)"/>
       </defs>
       <use xlink:href="#DejaVuSans-15"/>
       <use xlink:href="#DejaVuSans-13" transform="translate(63.625 0)"/>
      </g>
     </g>
    </g>
    <g id="xtick_3">
     <g id="line2d_5">
      <path d="M 313.996344 349.793906 
L 313.996344 37.922578 
" clip-path="url(#p71f38c729d)" style="fill: none; stroke: #b0b0b0; stroke-opacity: 0.3; stroke-width: 0.8; stroke-linecap: square"/>
     </g>
     <g id="line2d_6">
      <g>
       <use xlink:href="#m02e491b6f3" x="313.996344" y="349.793906" style="stroke: #000000; stroke-width: 0.8"/>
      </g>
     </g>
     <g id="text_3">
      <!-- 40 -->
      <g transform="translate(307.633844 364.391562) scale(0.1 -0.1)">
       <defs>
        <path id="DejaVuSans-17" d="M 2419 4116 
L 825 1625 
L 2419 1625 
L 2419 4116 
z
M 2253 4666 
L 3047 4666 
L 3047 1625 
L 3713 1625 
L 3713 1100 
L 3047 1100 
L 3047 0 
L 2419 0 
L 2419 1100 
L 313 1100 
L 313 1709 
L 2253 4666 
z
" transform="scale(0.015625)"/>
       </defs>
       <use xlink:href="#DejaVuSans-17"/>
       <use xlink:href="#DejaVuSans-13" transform="translate(63.625 0)"/>
      </g>
     </g>
    </g>
    <g id="xtick_4">
     <g id="line2d_7">
      <path d="M 440.987875 349.793906 
L 440.987875 37.922578 
" clip-path="url(#p71f38c729d)" style="fill: none; stroke: #b0b0b0; stroke-opacity: 0.3; stroke-width: 0.8; stroke-linecap: square"/>
     </g>
     <g id="line2d_8">
      <g>
       <use xlink:href="#m02e491b6f3" x="440.987875" y="349.793906" style="stroke: #000000; stroke-width: 0.8"/>
      </g>
     </g>
     <g id="text_4">
      <!-- 60 -->
      <g transform="translate(434.625375 364.391562) scale(0.1 -0.1)">
       <defs>
        <path id="DejaVuSans-19" d="M 2113 2584 
Q 1688 2584 1439 2293 
Q 1191 2003 1191 1497 
Q 1191 994 1439 701 
Q 1688 409 2113 409 
Q 2538 409 2786 701 
Q 3034 994 3034 1497 
Q 3034 2003 2786 2293 
Q 2538 2584 2113 2584 
z
M 3366 4563 
L 3366 3988 
Q 3128 4100 2886 4159 
Q 2644 4219 2406 4219 
Q 1781 4219 1451 3797 
Q 1122 3375 1075 2522 
Q 1259 2794 1537 2939 
Q 1816 3084 2150 3084 
Q 2853 3084 3261 2657 
Q 3669 2231 3669 1497 
Q 3669 778 3244 343 
Q 2819 -91 2113 -91 
Q 1303 -91 875 529 
Q 447 1150 447 2328 
Q 447 3434 972 4092 
Q 1497 4750 2381 4750 
Q 2619 4750 2861 4703 
Q 3103 4656 3366 4563 
z
" transform="scale(0.015625)"/>
       </defs>
       <use xlink:href="#DejaVuSans-19"/>
       <use xlink:href="#DejaVuSans-13" transform="translate(63.625 0)"/>
      </g>
     </g>
    </g>
    <g id="xtick_5">
     <g id="line2d_9">
      <path d="M 567.979406 349.793906 
L 567.979406 37.922578 
" clip-path="url(#p71f38c729d)" style="fill: none; stroke: #b0b0b0; stroke-opacity: 0.3; stroke-width: 0.8; stroke-linecap: square"/>
     </g>
     <g id="line2d_10">
      <g>
       <use xlink:href="#m02e491b6f3" x="567.979406" y="349.793906" style="stroke: #000000; stroke-width: 0.8"/>
      </g>
     </g>
     <g id="text_5">
      <!-- 80 -->
      <g transform="translate(561.616906 364.391562) scale(0.1 -0.1)">
       <defs>
        <path id="DejaVuSans-1b" d="M 2034 2216 
Q 1584 2216 1326 1975 
Q 1069 1734 1069 1313 
Q 1069 891 1326 650 
Q 1584 409 2034 409 
Q 2484 409 2743 651 
Q 3003 894 3003 1313 
Q 3003 1734 2745 1975 
Q 2488 2216 2034 2216 
z
M 1403 2484 
Q 997 2584 770 2862 
Q 544 3141 544 3541 
Q 544 4100 942 4425 
Q 1341 4750 2034 4750 
Q 2731 4750 3128 4425 
Q 3525 4100 3525 3541 
Q 3525 3141 3298 2862 
Q 3072 2584 2669 2484 
Q 3125 2378 3379 2068 
Q 3634 1759 3634 1313 
Q 3634 634 3220 271 
Q 2806 -91 2034 -91 
Q 1263 -91 848 271 
Q 434 634 434 1313 
Q 434 1759 690 2068 
Q 947 2378 1403 2484 
z
M 1172 3481 
Q 1172 3119 1398 2916 
Q 1625 2713 2034 2713 
Q 2441 2713 2670 2916 
Q 2900 3119 2900 3481 
Q 2900 3844 2670 4047 
Q 2441 4250 2034 4250 
Q 1625 4250 1398 4047 
Q 1172 3844 1172 3481 
z
" transform="scale(0.015625)"/>
       </defs>
       <use xlink:href="#DejaVuSans-1b"/>
       <use xlink:href="#DejaVuSans-13" transform="translate(63.625 0)"/>
      </g>
     </g>
    </g>
    <g id="xtick_6">
     <g id="line2d_11">
      <path d="M 694.970937 349.793906 
L 694.970937 37.922578 
" clip-path="url(#p71f38c729d)" style="fill: none; stroke: #b0b0b0; stroke-opacity: 0.3; stroke-width: 0.8; stroke-linecap: square"/>
     </g>
     <g id="line2d_12">
      <g>
       <use xlink:href="#m02e491b6f3" x="694.970937" y="349.793906" style="stroke: #000000; stroke-width: 0.8"/>
      </g>
     </g>
     <g id="text_6">
      <!-- 100 -->
      <g transform="translate(685.427187 364.391562) scale(0.1 -0.1)">
       <defs>
        <path id="DejaVuSans-14" d="M 794 531 
L 1825 531 
L 1825 4091 
L 703 3866 
L 703 4441 
L 1819 4666 
L 2450 4666 
L 2450 531 
L 3481 531 
L 3481 0 
L 794 0 
L 794 531 
z
" transform="scale(0.015625)"/>
       </defs>
       <use xlink:href="#DejaVuSans-14"/>
       <use xlink:href="#DejaVuSans-13" transform="translate(63.625 0)"/>
       <use xlink:href="#DejaVuSans-13" transform="translate(127.25 0)"/>
      </g>
     </g>
    </g>
    <g id="text_7">
     <!-- Percentage of days (%) -->
     <g transform="translate(319.322578 378.392344) scale(0.1 -0.1)">
      <defs>
       <path id="DejaVuSans-33" d="M 1259 4147 
L 1259 2394 
L 2053 2394 
Q 2494 2394 2734 2622 
Q 2975 2850 2975 3272 
Q 2975 3691 2734 3919 
Q 2494 4147 2053 4147 
L 1259 4147 
z
M 628 4666 
L 2053 4666 
Q 2838 4666 3239 4311 
Q 3641 3956 3641 3272 
Q 3641 2581 3239 2228 
Q 2838 1875 2053 1875 
L 1259 1875 
L 1259 0 
L 628 0 
L 628 4666 
z
" transform="scale(0.015625)"/>
       <path id="DejaVuSans-48" d="M 3597 1894 
L 3597 1613 
L 953 1613 
Q 991 1019 1311 708 
Q 1631 397 2203 397 
Q 2534 397 2845 478 
Q 3156 559 3463 722 
L 3463 178 
Q 3153 47 2828 -22 
Q 2503 -91 2169 -91 
Q 1331 -91 842 396 
Q 353 884 353 1716 
Q 353 2575 817 3079 
Q 1281 3584 2069 3584 
Q 2775 3584 3186 3129 
Q 3597 2675 3597 1894 
z
M 3022 2063 
Q 3016 2534 2758 2815 
Q 2500 3097 2075 3097 
Q 1594 3097 1305 2825 
Q 1016 2553 972 2059 
L 3022 2063 
z
" transform="scale(0.015625)"/>
       <path id="DejaVuSans-55" d="M 2631 2963 
Q 2534 3019 2420 3045 
Q 2306 3072 2169 3072 
Q 1681 3072 1420 2755 
Q 1159 2438 1159 1844 
L 1159 0 
L 581 0 
L 581 3500 
L 1159 3500 
L 1159 2956 
Q 1341 3275 1631 3429 
Q 1922 3584 2338 3584 
Q 2397 3584 2469 3576 
Q 2541 3569 2628 3553 
L 2631 2963 
z
" transform="scale(0.015625)"/>
       <path id="DejaVuSans-46" d="M 3122 3366 
L 3122 2828 
Q 2878 2963 2633 3030 
Q 2388 3097 2138 3097 
Q 1578 3097 1268 2742 
Q 959 2388 959 1747 
Q 959 1106 1268 751 
Q 1578 397 2138 397 
Q 2388 397 2633 464 
Q 2878 531 3122 666 
L 3122 134 
Q 2881 22 2623 -34 
Q 2366 -91 2075 -91 
Q 1284 -91 818 406 
Q 353 903 353 1747 
Q 353 2603 823 3093 
Q 1294 3584 2113 3584 
Q 2378 3584 2631 3529 
Q 2884 3475 3122 3366 
z
" transform="scale(0.015625)"/>
       <path id="DejaVuSans-51" d="M 3513 2113 
L 3513 0 
L 2938 0 
L 2938 2094 
Q 2938 2591 2744 2837 
Q 2550 3084 2163 3084 
Q 1697 3084 1428 2787 
Q 1159 2491 1159 1978 
L 1159 0 
L 581 0 
L 581 3500 
L 1159 3500 
L 1159 2956 
Q 1366 3272 1645 3428 
Q 1925 3584 2291 3584 
Q 2894 3584 3203 3211 
Q 3513 2838 3513 2113 
z
" transform="scale(0.015625)"/>
       <path id="DejaVuSans-57" d="M 1172 4494 
L 1172 3500 
L 2356 3500 
L 2356 3053 
L 1172 3053 
L 1172 1153 
Q 1172 725 1289 603 
Q 1406 481 1766 481 
L 2356 481 
L 2356 0 
L 1766 0 
Q 1100 0 847 248 
Q 594 497 594 1153 
L 594 3053 
L 172 3053 
L 172 3500 
L 594 3500 
L 594 4494 
L 1172 4494 
z
" transform="scale(0.015625)"/>
       <path id="DejaVuSans-44" d="M 2194 1759 
Q 1497 1759 1228 1600 
Q 959 1441 959 1056 
Q 959 750 1161 570 
Q 1363 391 1709 391 
Q 2188 391 2477 730 
Q 2766 1069 2766 1631 
L 2766 1759 
L 2194 1759 
z
M 3341 1997 
L 3341 0 
L 2766 0 
L 2766 531 
Q 2569 213 2275 61 
Q 1981 -91 1556 -91 
Q 1019 -91 701 211 
Q 384 513 384 1019 
Q 384 1609 779 1909 
Q 1175 2209 1959 2209 
L 2766 2209 
L 2766 2266 
Q 2766 2663 2505 2880 
Q 2244 3097 1772 3097 
Q 1472 3097 1187 3025 
Q 903 2953 641 2809 
L 641 3341 
Q 956 3463 1253 3523 
Q 1550 3584 1831 3584 
Q 2591 3584 2966 3190 
Q 3341 2797 3341 1997 
z
" transform="scale(0.015625)"/>
       <path id="DejaVuSans-4a" d="M 2906 1791 
Q 2906 2416 2648 2759 
Q 2391 3103 1925 3103 
Q 1463 3103 1205 2759 
Q 947 2416 947 1791 
Q 947 1169 1205 825 
Q 1463 481 1925 481 
Q 2391 481 2648 825 
Q 2906 1169 2906 1791 
z
M 3481 434 
Q 3481 -459 3084 -895 
Q 2688 -1331 1869 -1331 
Q 1566 -1331 1297 -1286 
Q 1028 -1241 775 -1147 
L 775 -588 
Q 1028 -725 1275 -790 
Q 1522 -856 1778 -856 
Q 2344 -856 2625 -561 
Q 2906 -266 2906 331 
L 2906 616 
Q 2728 306 2450 153 
Q 2172 0 1784 0 
Q 1141 0 747 490 
Q 353 981 353 1791 
Q 353 2603 747 3093 
Q 1141 3584 1784 3584 
Q 2172 3584 2450 3431 
Q 2728 3278 2906 2969 
L 2906 3500 
L 3481 3500 
L 3481 434 
z
" transform="scale(0.015625)"/>
       <path id="DejaVuSans-3" transform="scale(0.015625)"/>
       <path id="DejaVuSans-52" d="M 1959 3097 
Q 1497 3097 1228 2736 
Q 959 2375 959 1747 
Q 959 1119 1226 758 
Q 1494 397 1959 397 
Q 2419 397 2687 759 
Q 2956 1122 2956 1747 
Q 2956 2369 2687 2733 
Q 2419 3097 1959 3097 
z
M 1959 3584 
Q 2709 3584 3137 3096 
Q 3566 2609 3566 1747 
Q 3566 888 3137 398 
Q 2709 -91 1959 -91 
Q 1206 -91 779 398 
Q 353 888 353 1747 
Q 353 2609 779 3096 
Q 1206 3584 1959 3584 
z
" transform="scale(0.015625)"/>
       <path id="DejaVuSans-49" d="M 2375 4863 
L 2375 4384 
L 1825 4384 
Q 1516 4384 1395 4259 
Q 1275 4134 1275 3809 
L 1275 3500 
L 2222 3500 
L 2222 3053 
L 1275 3053 
L 1275 0 
L 697 0 
L 697 3053 
L 147 3053 
L 147 3500 
L 697 3500 
L 697 3744 
Q 697 4328 969 4595 
Q 1241 4863 1831 4863 
L 2375 4863 
z
" transform="scale(0.015625)"/>
       <path id="DejaVuSans-47" d="M 2906 2969 
L 2906 4863 
L 3481 4863 
L 3481 0 
L 2906 0 
L 2906 525 
Q 2725 213 2448 61 
Q 2172 -91 1784 -91 
Q 1150 -91 751 415 
Q 353 922 353 1747 
Q 353 2572 751 3078 
Q 1150 3584 1784 3584 
Q 2172 3584 2448 3432 
Q 2725 3281 2906 2969 
z
M 947 1747 
Q 947 1113 1208 752 
Q 1469 391 1925 391 
Q 2381 391 2643 752 
Q 2906 1113 2906 1747 
Q 2906 2381 2643 2742 
Q 2381 3103 1925 3103 
Q 1469 3103 1208 2742 
Q 947 2381 947 1747 
z
" transform="scale(0.015625)"/>
       <path id="DejaVuSans-5c" d="M 2059 -325 
Q 1816 -950 1584 -1140 
Q 1353 -1331 966 -1331 
L 506 -1331 
L 506 -850 
L 844 -850 
Q 1081 -850 1212 -737 
Q 1344 -625 1503 -206 
L 1606 56 
L 191 3500 
L 800 3500 
L 1894 763 
L 2988 3500 
L 3597 3500 
L 2059 -325 
z
" transform="scale(0.015625)"/>
       <path id="DejaVuSans-56" d="M 2834 3397 
L 2834 2853 
Q 2591 2978 2328 3040 
Q 2066 3103 1784 3103 
Q 1356 3103 1142 2972 
Q 928 2841 928 2578 
Q 928 2378 1081 2264 
Q 1234 2150 1697 2047 
L 1894 2003 
Q 2506 1872 2764 1633 
Q 3022 1394 3022 966 
Q 3022 478 2636 193 
Q 2250 -91 1575 -91 
Q 1294 -91 989 -36 
Q 684 19 347 128 
L 347 722 
Q 666 556 975 473 
Q 1284 391 1588 391 
Q 1994 391 2212 530 
Q 2431 669 2431 922 
Q 2431 1156 2273 1281 
Q 2116 1406 1581 1522 
L 1381 1569 
Q 847 1681 609 1914 
Q 372 2147 372 2553 
Q 372 3047 722 3315 
Q 1072 3584 1716 3584 
Q 2034 3584 2315 3537 
Q 2597 3491 2834 3397 
z
" transform="scale(0.015625)"/>
       <path id="DejaVuSans-b" d="M 1984 4856 
Q 1566 4138 1362 3434 
Q 1159 2731 1159 2009 
Q 1159 1288 1364 580 
Q 1569 -128 1984 -844 
L 1484 -844 
Q 1016 -109 783 600 
Q 550 1309 550 2009 
Q 550 2706 781 3412 
Q 1013 4119 1484 4856 
L 1984 4856 
z
" transform="scale(0.015625)"/>
       <path id="DejaVuSans-8" d="M 4653 2053 
Q 4381 2053 4226 1822 
Q 4072 1591 4072 1178 
Q 4072 772 4226 539 
Q 4381 306 4653 306 
Q 4919 306 5073 539 
Q 5228 772 5228 1178 
Q 5228 1588 5073 1820 
Q 4919 2053 4653 2053 
z
M 4653 2450 
Q 5147 2450 5437 2106 
Q 5728 1763 5728 1178 
Q 5728 594 5436 251 
Q 5144 -91 4653 -91 
Q 4153 -91 3862 251 
Q 3572 594 3572 1178 
Q 3572 1766 3864 2108 
Q 4156 2450 4653 2450 
z
M 1428 4353 
Q 1159 4353 1004 4120 
Q 850 3888 850 3481 
Q 850 3069 1003 2837 
Q 1156 2606 1428 2606 
Q 1700 2606 1854 2837 
Q 2009 3069 2009 3481 
Q 2009 3884 1853 4118 
Q 1697 4353 1428 4353 
z
M 4250 4750 
L 4750 4750 
L 1831 -91 
L 1331 -91 
L 4250 4750 
z
M 1428 4750 
Q 1922 4750 2215 4408 
Q 2509 4066 2509 3481 
Q 2509 2891 2217 2550 
Q 1925 2209 1428 2209 
Q 931 2209 642 2551 
Q 353 2894 353 3481 
Q 353 4063 643 4406 
Q 934 4750 1428 4750 
z
" transform="scale(0.015625)"/>
       <path id="DejaVuSans-c" d="M 513 4856 
L 1013 4856 
Q 1481 4119 1714 3412 
Q 1947 2706 1947 2009 
Q 1947 1309 1714 600 
Q 1481 -109 1013 -844 
L 513 -844 
Q 928 -128 1133 580 
Q 1338 1288 1338 2009 
Q 1338 2731 1133 3434 
Q 928 4138 513 4856 
z
" transform="scale(0.015625)"/>
      </defs>
      <use xlink:href="#DejaVuSans-33"/>
      <use xlink:href="#DejaVuSans-48" transform="translate(56.734375 0)"/>
      <use xlink:href="#DejaVuSans-55" transform="translate(118.265625 0)"/>
      <use xlink:href="#DejaVuSans-46" transform="translate(157.171875 0)"/>
      <use xlink:href="#DejaVuSans-48" transform="translate(212.15625 0)"/>
      <use xlink:href="#DejaVuSans-51" transform="translate(273.6875 0)"/>
      <use xlink:href="#DejaVuSans-57" transform="translate(337.0625 0)"/>
      <use xlink:href="#DejaVuSans-44" transform="translate(376.265625 0)"/>
      <use xlink:href="#DejaVuSans-4a" transform="translate(437.546875 0)"/>
      <use xlink:href="#DejaVuSans-48" transform="translate(501.03125 0)"/>
      <use xlink:href="#DejaVuSans-3" transform="translate(562.5625 0)"/>
      <use xlink:href="#DejaVuSans-52" transform="translate(594.34375 0)"/>
      <use xlink:href="#DejaVuSans-49" transform="translate(655.53125 0)"/>
      <use xlink:href="#DejaVuSans-3" transform="translate(690.734375 0)"/>
      <use xlink:href="#DejaVuSans-47" transform="translate(722.515625 0)"/>
      <use xlink:href="#DejaVuSans-44" transform="translate(786 0)"/>
      <use xlink:href="#DejaVuSans-5c" transform="translate(847.28125 0)"/>
      <use xlink:href="#DejaVuSans-56" transform="translate(906.46875 0)"/>
      <use xlink:href="#DejaVuSans-3" transform="translate(958.5625 0)"/>
      <use xlink:href="#DejaVuSans-b" transform="translate(990.34375 0)"/>
      <use xlink:href="#DejaVuSans-8" transform="translate(1029.359375 0)"/>
      <use xlink:href="#DejaVuSans-c" transform="translate(1124.375 0)"/>
     </g>
    </g>
   </g>
   <g id="matplotlib.axis_2">
    <g id="ytick_1">
     <g id="line2d_13">
      <path d="M 60.013281 349.793906 
L 694.970937 349.793906 
" clip-path="url(#p71f38c729d)" style="fill: none; stroke: #b0b0b0; stroke-opacity: 0.3; stroke-width: 0.8; stroke-linecap: square"/>
     </g>
     <g id="line2d_14">
      <defs>
       <path id="m4320b34723" d="M 0 0 
L -3.5 0 
" style="stroke: #000000; stroke-width: 0.8"/>
      </defs>
      <g>
       <use xlink:href="#m4320b34723" x="60.013281" y="349.793906" style="stroke: #000000; stroke-width: 0.8"/>
      </g>
     </g>
     <g id="text_8">
      <!-- 0 -->
      <g transform="translate(46.650781 353.592734) scale(0.1 -0.1)">
       <use xlink:href="#DejaVuSans-13"/>
      </g>
     </g>
    </g>
    <g id="ytick_2">
     <g id="line2d_15">
      <path d="M 60.013281 301.602287 
L 694.970937 301.602287 
" clip-path="url(#p71f38c729d)" style="fill: none; stroke: #b0b0b0; stroke-opacity: 0.3; stroke-width: 0.8; stroke-linecap: square"/>
     </g>
     <g id="line2d_16">
      <g>
       <use xlink:href="#m4320b34723" x="60.013281" y="301.602287" style="stroke: #000000; stroke-width: 0.8"/>
      </g>
     </g>
     <g id="text_9">
      <!-- 10000 -->
      <g transform="translate(21.200781 305.401115) scale(0.1 -0.1)">
       <use xlink:href="#DejaVuSans-14"/>
       <use xlink:href="#DejaVuSans-13" transform="translate(63.625 0)"/>
       <use xlink:href="#DejaVuSans-13" transform="translate(127.25 0)"/>
       <use xlink:href="#DejaVuSans-13" transform="translate(190.875 0)"/>
       <use xlink:href="#DejaVuSans-13" transform="translate(254.5 0)"/>
      </g>
     </g>
    </g>
    <g id="ytick_3">
     <g id="line2d_17">
      <path d="M 60.013281 253.410668 
L 694.970937 253.410668 
" clip-path="url(#p71f38c729d)" style="fill: none; stroke: #b0b0b0; stroke-opacity: 0.3; stroke-width: 0.8; stroke-linecap: square"/>
     </g>
     <g id="line2d_18">
      <g>
       <use xlink:href="#m4320b34723" x="60.013281" y="253.410668" style="stroke: #000000; stroke-width: 0.8"/>
      </g>
     </g>
     <g id="text_10">
      <!-- 20000 -->
      <g transform="translate(21.200781 257.209496) scale(0.1 -0.1)">
       <use xlink:href="#DejaVuSans-15"/>
       <use xlink:href="#DejaVuSans-13" transform="translate(63.625 0)"/>
       <use xlink:href="#DejaVuSans-13" transform="translate(127.25 0)"/>
       <use xlink:href="#DejaVuSans-13" transform="translate(190.875 0)"/>
       <use xlink:href="#DejaVuSans-13" transform="translate(254.5 0)"/>
      </g>
     </g>
    </g>
    <g id="ytick_4">
     <g id="line2d_19">
      <path d="M 60.013281 205.219049 
L 694.970937 205.219049 
" clip-path="url(#p71f38c729d)" style="fill: none; stroke: #b0b0b0; stroke-opacity: 0.3; stroke-width: 0.8; stroke-linecap: square"/>
     </g>
     <g id="line2d_20">
      <g>
       <use xlink:href="#m4320b34723" x="60.013281" y="205.219049" style="stroke: #000000; stroke-width: 0.8"/>
      </g>
     </g>
     <g id="text_11">
      <!-- 30000 -->
      <g transform="translate(21.200781 209.017877) scale(0.1 -0.1)">
       <defs>
        <path id="DejaVuSans-16" d="M 2597 2516 
Q 3050 2419 3304 2112 
Q 3559 1806 3559 1356 
Q 3559 666 3084 287 
Q 2609 -91 1734 -91 
Q 1441 -91 1130 -33 
Q 819 25 488 141 
L 488 750 
Q 750 597 1062 519 
Q 1375 441 1716 441 
Q 2309 441 2620 675 
Q 2931 909 2931 1356 
Q 2931 1769 2642 2001 
Q 2353 2234 1838 2234 
L 1294 2234 
L 1294 2753 
L 1863 2753 
Q 2328 2753 2575 2939 
Q 2822 3125 2822 3475 
Q 2822 3834 2567 4026 
Q 2313 4219 1838 4219 
Q 1578 4219 1281 4162 
Q 984 4106 628 3988 
L 628 4550 
Q 988 4650 1302 4700 
Q 1616 4750 1894 4750 
Q 2613 4750 3031 4423 
Q 3450 4097 3450 3541 
Q 3450 3153 3228 2886 
Q 3006 2619 2597 2516 
z
" transform="scale(0.015625)"/>
       </defs>
       <use xlink:href="#DejaVuSans-16"/>
       <use xlink:href="#DejaVuSans-13" transform="translate(63.625 0)"/>
       <use xlink:href="#DejaVuSans-13" transform="translate(127.25 0)"/>
       <use xlink:href="#DejaVuSans-13" transform="translate(190.875 0)"/>
       <use xlink:href="#DejaVuSans-13" transform="translate(254.5 0)"/>
      </g>
     </g>
    </g>
    <g id="ytick_5">
     <g id="line2d_21">
      <path d="M 60.013281 157.02743 
L 694.970937 157.02743 
" clip-path="url(#p71f38c729d)" style="fill: none; stroke: #b0b0b0; stroke-opacity: 0.3; stroke-width: 0.8; stroke-linecap: square"/>
     </g>
     <g id="line2d_22">
      <g>
       <use xlink:href="#m4320b34723" x="60.013281" y="157.02743" style="stroke: #000000; stroke-width: 0.8"/>
      </g>
     </g>
     <g id="text_12">
      <!-- 40000 -->
      <g transform="translate(21.200781 160.826258) scale(0.1 -0.1)">
       <use xlink:href="#DejaVuSans-17"/>
       <use xlink:href="#DejaVuSans-13" transform="translate(63.625 0)"/>
       <use xlink:href="#DejaVuSans-13" transform="translate(127.25 0)"/>
       <use xlink:href="#DejaVuSans-13" transform="translate(190.875 0)"/>
       <use xlink:href="#DejaVuSans-13" transform="translate(254.5 0)"/>
      </g>
     </g>
    </g>
    <g id="ytick_6">
     <g id="line2d_23">
      <path d="M 60.013281 108.835811 
L 694.970937 108.835811 
" clip-path="url(#p71f38c729d)" style="fill: none; stroke: #b0b0b0; stroke-opacity: 0.3; stroke-width: 0.8; stroke-linecap: square"/>
     </g>
     <g id="line2d_24">
      <g>
       <use xlink:href="#m4320b34723" x="60.013281" y="108.835811" style="stroke: #000000; stroke-width: 0.8"/>
      </g>
     </g>
     <g id="text_13">
      <!-- 50000 -->
      <g transform="translate(21.200781 112.634639) scale(0.1 -0.1)">
       <defs>
        <path id="DejaVuSans-18" d="M 691 4666 
L 3169 4666 
L 3169 4134 
L 1269 4134 
L 1269 2991 
Q 1406 3038 1543 3061 
Q 1681 3084 1819 3084 
Q 2600 3084 3056 2656 
Q 3513 2228 3513 1497 
Q 3513 744 3044 326 
Q 2575 -91 1722 -91 
Q 1428 -91 1123 -41 
Q 819 9 494 109 
L 494 744 
Q 775 591 1075 516 
Q 1375 441 1709 441 
Q 2250 441 2565 725 
Q 2881 1009 2881 1497 
Q 2881 1984 2565 2268 
Q 2250 2553 1709 2553 
Q 1456 2553 1204 2497 
Q 953 2441 691 2322 
L 691 4666 
z
" transform="scale(0.015625)"/>
       </defs>
       <use xlink:href="#DejaVuSans-18"/>
       <use xlink:href="#DejaVuSans-13" transform="translate(63.625 0)"/>
       <use xlink:href="#DejaVuSans-13" transform="translate(127.25 0)"/>
       <use xlink:href="#DejaVuSans-13" transform="translate(190.875 0)"/>
       <use xlink:href="#DejaVuSans-13" transform="translate(254.5 0)"/>
      </g>
     </g>
    </g>
    <g id="ytick_7">
     <g id="line2d_25">
      <path d="M 60.013281 60.644192 
L 694.970937 60.644192 
" clip-path="url(#p71f38c729d)" style="fill: none; stroke: #b0b0b0; stroke-opacity: 0.3; stroke-width: 0.8; stroke-linecap: square"/>
     </g>
     <g id="line2d_26">
      <g>
       <use xlink:href="#m4320b34723" x="60.013281" y="60.644192" style="stroke: #000000; stroke-width: 0.8"/>
      </g>
     </g>
     <g id="text_14">
      <!-- 60000 -->
      <g transform="translate(21.200781 64.44302) scale(0.1 -0.1)">
       <use xlink:href="#DejaVuSans-19"/>
       <use xlink:href="#DejaVuSans-13" transform="translate(63.625 0)"/>
       <use xlink:href="#DejaVuSans-13" transform="translate(127.25 0)"/>
       <use xlink:href="#DejaVuSans-13" transform="translate(190.875 0)"/>
       <use xlink:href="#DejaVuSans-13" transform="translate(254.5 0)"/>
      </g>
     </g>
    </g>
    <g id="text_15">
     <!-- Daily maximum power (MW) -->
     <g transform="translate(14.798438 265.083242) rotate(-90) scale(0.1 -0.1)">
      <defs>
       <path id="DejaVuSans-27" d="M 1259 4147 
L 1259 519 
L 2022 519 
Q 2988 519 3436 956 
Q 3884 1394 3884 2338 
Q 3884 3275 3436 3711 
Q 2988 4147 2022 4147 
L 1259 4147 
z
M 628 4666 
L 1925 4666 
Q 3281 4666 3915 4102 
Q 4550 3538 4550 2338 
Q 4550 1131 3912 565 
Q 3275 0 1925 0 
L 628 0 
L 628 4666 
z
" transform="scale(0.015625)"/>
       <path id="DejaVuSans-4c" d="M 603 3500 
L 1178 3500 
L 1178 0 
L 603 0 
L 603 3500 
z
M 603 4863 
L 1178 4863 
L 1178 4134 
L 603 4134 
L 603 4863 
z
" transform="scale(0.015625)"/>
       <path id="DejaVuSans-4f" d="M 603 4863 
L 1178 4863 
L 1178 0 
L 603 0 
L 603 4863 
z
" transform="scale(0.015625)"/>
       <path id="DejaVuSans-50" d="M 3328 2828 
Q 3544 3216 3844 3400 
Q 4144 3584 4550 3584 
Q 5097 3584 5394 3201 
Q 5691 2819 5691 2113 
L 5691 0 
L 5113 0 
L 5113 2094 
Q 5113 2597 4934 2840 
Q 4756 3084 4391 3084 
Q 3944 3084 3684 2787 
Q 3425 2491 3425 1978 
L 3425 0 
L 2847 0 
L 2847 2094 
Q 2847 2600 2669 2842 
Q 2491 3084 2119 3084 
Q 1678 3084 1418 2786 
Q 1159 2488 1159 1978 
L 1159 0 
L 581 0 
L 581 3500 
L 1159 3500 
L 1159 2956 
Q 1356 3278 1631 3431 
Q 1906 3584 2284 3584 
Q 2666 3584 2933 3390 
Q 3200 3197 3328 2828 
z
" transform="scale(0.015625)"/>
       <path id="DejaVuSans-5b" d="M 3513 3500 
L 2247 1797 
L 3578 0 
L 2900 0 
L 1881 1375 
L 863 0 
L 184 0 
L 1544 1831 
L 300 3500 
L 978 3500 
L 1906 2253 
L 2834 3500 
L 3513 3500 
z
" transform="scale(0.015625)"/>
       <path id="DejaVuSans-58" d="M 544 1381 
L 544 3500 
L 1119 3500 
L 1119 1403 
Q 1119 906 1312 657 
Q 1506 409 1894 409 
Q 2359 409 2629 706 
Q 2900 1003 2900 1516 
L 2900 3500 
L 3475 3500 
L 3475 0 
L 2900 0 
L 2900 538 
Q 2691 219 2414 64 
Q 2138 -91 1772 -91 
Q 1169 -91 856 284 
Q 544 659 544 1381 
z
M 1991 3584 
L 1991 3584 
z
" transform="scale(0.015625)"/>
       <path id="DejaVuSans-53" d="M 1159 525 
L 1159 -1331 
L 581 -1331 
L 581 3500 
L 1159 3500 
L 1159 2969 
Q 1341 3281 1617 3432 
Q 1894 3584 2278 3584 
Q 2916 3584 3314 3078 
Q 3713 2572 3713 1747 
Q 3713 922 3314 415 
Q 2916 -91 2278 -91 
Q 1894 -91 1617 61 
Q 1341 213 1159 525 
z
M 3116 1747 
Q 3116 2381 2855 2742 
Q 2594 3103 2138 3103 
Q 1681 3103 1420 2742 
Q 1159 2381 1159 1747 
Q 1159 1113 1420 752 
Q 1681 391 2138 391 
Q 2594 391 2855 752 
Q 3116 1113 3116 1747 
z
" transform="scale(0.015625)"/>
       <path id="DejaVuSans-5a" d="M 269 3500 
L 844 3500 
L 1563 769 
L 2278 3500 
L 2956 3500 
L 3675 769 
L 4391 3500 
L 4966 3500 
L 4050 0 
L 3372 0 
L 2619 2869 
L 1863 0 
L 1184 0 
L 269 3500 
z
" transform="scale(0.015625)"/>
       <path id="DejaVuSans-30" d="M 628 4666 
L 1569 4666 
L 2759 1491 
L 3956 4666 
L 4897 4666 
L 4897 0 
L 4281 0 
L 4281 4097 
L 3078 897 
L 2444 897 
L 1241 4097 
L 1241 0 
L 628 0 
L 628 4666 
z
" transform="scale(0.015625)"/>
       <path id="DejaVuSans-3a" d="M 213 4666 
L 850 4666 
L 1831 722 
L 2809 4666 
L 3519 4666 
L 4500 722 
L 5478 4666 
L 6119 4666 
L 4947 0 
L 4153 0 
L 3169 4050 
L 2175 0 
L 1381 0 
L 213 4666 
z
" transform="scale(0.015625)"/>
      </defs>
      <use xlink:href="#DejaVuSans-27"/>
      <use xlink:href="#DejaVuSans-44" transform="translate(77 0)"/>
      <use xlink:href="#DejaVuSans-4c" transform="translate(138.28125 0)"/>
      <use xlink:href="#DejaVuSans-4f" transform="translate(166.0625 0)"/>
      <use xlink:href="#DejaVuSans-5c" transform="translate(193.84375 0)"/>
      <use xlink:href="#DejaVuSans-3" transform="translate(253.03125 0)"/>
      <use xlink:href="#DejaVuSans-50" transform="translate(284.8125 0)"/>
      <use xlink:href="#DejaVuSans-44" transform="translate(382.21875 0)"/>
      <use xlink:href="#DejaVuSans-5b" transform="translate(443.5 0)"/>
      <use xlink:href="#DejaVuSans-4c" transform="translate(502.6875 0)"/>
      <use xlink:href="#DejaVuSans-50" transform="translate(530.46875 0)"/>
      <use xlink:href="#DejaVuSans-58" transform="translate(627.875 0)"/>
      <use xlink:href="#DejaVuSans-50" transform="translate(691.25 0)"/>
      <use xlink:href="#DejaVuSans-3" transform="translate(788.65625 0)"/>
      <use xlink:href="#DejaVuSans-53" transform="translate(820.4375 0)"/>
      <use xlink:href="#DejaVuSans-52" transform="translate(883.921875 0)"/>
      <use xlink:href="#DejaVuSans-5a" transform="translate(945.109375 0)"/>
      <use xlink:href="#DejaVuSans-48" transform="translate(1026.890625 0)"/>
      <use xlink:href="#DejaVuSans-55" transform="translate(1088.421875 0)"/>
      <use xlink:href="#DejaVuSans-3" transform="translate(1129.53125 0)"/>
      <use xlink:href="#DejaVuSans-b" transform="translate(1161.3125 0)"/>
      <use xlink:href="#DejaVuSans-30" transform="translate(1200.328125 0)"/>
      <use xlink:href="#DejaVuSans-3a" transform="translate(1286.609375 0)"/>
      <use xlink:href="#DejaVuSans-c" transform="translate(1385.484375 0)"/>
     </g>
    </g>
   </g>
   <g id="line2d_27">
    <path d="M 61.752891 153.781725 
L 63.492501 154.273279 
L 65.232111 154.366048 
L 66.971721 157.127428 
L 68.711331 157.127428 
L 70.450941 157.831026 
L 73.930161 163.514022 
L 75.669771 163.814015 
L 77.409381 165.338075 
L 79.148991 165.658549 
L 84.367821 166.068178 
L 86.107432 166.452506 
L 87.847042 166.512746 
L 89.586652 167.471759 
L 91.326262 167.583804 
L 93.065872 168.257282 
L 94.805482 168.382581 
L 96.545092 168.662092 
L 98.284702 169.530746 
L 100.024312 170.935532 
L 101.763922 171.269259 
L 106.982752 171.680092 
L 108.722362 172.834281 
L 110.461972 172.872835 
L 112.201582 174.141479 
L 113.941192 174.928207 
L 115.680802 174.99688 
L 117.420412 176.199261 
L 119.160022 176.388413 
L 120.899632 176.704068 
L 122.639242 177.422123 
L 124.378852 177.602842 
L 126.118462 179.157022 
L 127.858072 179.173889 
L 129.597682 179.311235 
L 133.076902 180.356993 
L 134.816512 181.191913 
L 136.556122 181.370222 
L 138.295732 182.546097 
L 140.035342 182.588265 
L 141.774952 182.919582 
L 143.514562 183.082229 
L 145.254172 183.390655 
L 146.993782 184.741226 
L 150.473002 184.926763 
L 152.212612 185.812284 
L 153.952222 186.944787 
L 155.691832 187.903801 
L 157.431442 188.407403 
L 159.171052 188.65318 
L 162.650272 188.860404 
L 164.389882 191.276009 
L 167.869102 192.961511 
L 169.608712 193.208493 
L 174.827542 194.526534 
L 178.306762 196.345767 
L 180.046372 196.372273 
L 183.525592 196.969849 
L 185.265202 196.996354 
L 187.004813 197.280685 
L 188.744423 197.28189 
L 190.484033 197.82766 
L 195.702863 198.321624 
L 197.442473 198.777035 
L 199.182083 198.787878 
L 200.921693 200.151701 
L 202.661303 200.686628 
L 204.400913 200.842046 
L 206.140523 202.162496 
L 207.880133 202.480561 
L 209.619743 203.972091 
L 211.359353 205.038331 
L 214.838573 205.358805 
L 216.578183 206.053969 
L 218.317793 206.593715 
L 220.057403 206.706966 
L 223.536623 208.431021 
L 225.276233 208.631016 
L 227.015843 209.421358 
L 228.755453 210.803253 
L 230.495063 211.644197 
L 232.234673 211.794796 
L 233.974283 212.091174 
L 235.713893 212.810434 
L 237.453503 213.103198 
L 239.193113 213.717641 
L 242.672333 214.062211 
L 244.411943 214.363409 
L 246.151553 215.200738 
L 247.891163 215.245316 
L 249.630773 215.980238 
L 251.370383 216.164571 
L 253.109993 216.176619 
L 256.589213 217.587428 
L 263.547653 217.846458 
L 265.287263 218.042839 
L 267.026873 218.524755 
L 268.766483 218.833182 
L 270.506093 218.971733 
L 272.245703 219.498226 
L 273.985313 219.539189 
L 275.724923 220.035563 
L 277.464533 220.123512 
L 279.204143 221.012648 
L 280.943753 221.251196 
L 284.422973 221.306617 
L 286.162583 221.672873 
L 287.902193 223.084887 
L 289.641804 223.087297 
L 291.381414 223.407771 
L 293.121024 223.422229 
L 296.600244 226.031805 
L 298.339854 226.587213 
L 300.079464 227.585984 
L 301.819074 227.619719 
L 303.558684 228.07272 
L 305.298294 228.210066 
L 307.037904 229.163055 
L 308.777514 230.342545 
L 312.256734 230.507601 
L 313.996344 231.800342 
L 317.475564 231.990698 
L 319.215174 232.771403 
L 320.954784 232.783451 
L 322.694394 233.183441 
L 324.434004 233.343678 
L 326.173614 235.095443 
L 329.652834 235.307487 
L 331.392444 235.358088 
L 333.132054 236.507458 
L 334.871664 236.597817 
L 336.611274 239.157997 
L 338.350884 239.292934 
L 340.090494 240.110986 
L 341.830104 240.191707 
L 343.569714 241.684443 
L 345.309324 242.286838 
L 347.048934 243.971135 
L 350.528154 244.481966 
L 352.267764 246.622879 
L 354.007374 247.452979 
L 359.226204 248.289104 
L 360.965814 251.104699 
L 366.184644 251.52999 
L 367.924254 252.433583 
L 369.663864 252.570929 
L 371.403474 252.573339 
L 373.143084 253.146819 
L 376.622304 254.651602 
L 378.361914 255.088941 
L 380.101524 255.102194 
L 381.841134 255.521461 
L 383.580744 255.572062 
L 385.320354 255.902175 
L 388.799574 256.086508 
L 390.539185 256.339514 
L 392.278795 256.375658 
L 394.018405 256.840707 
L 395.758015 257.45274 
L 397.497625 257.774419 
L 399.237235 257.816587 
L 400.976845 258.158748 
L 402.716455 258.316575 
L 406.195675 260.552666 
L 407.935285 260.929766 
L 409.674895 262.144194 
L 411.414505 262.500812 
L 413.154115 262.577919 
L 414.893725 263.051402 
L 418.372945 263.095979 
L 420.112555 263.246578 
L 421.852165 263.842949 
L 423.591775 264.09475 
L 427.070995 264.29595 
L 428.810605 265.595919 
L 430.550215 267.080221 
L 434.029435 267.299493 
L 435.769045 267.88984 
L 437.508655 267.969356 
L 439.248265 268.23441 
L 440.987875 269.835577 
L 444.467095 271.836734 
L 446.206705 273.501754 
L 449.685925 273.572837 
L 451.425535 274.023429 
L 453.165145 274.102945 
L 454.904755 274.301735 
L 456.644365 275.233038 
L 458.383975 275.36436 
L 460.123585 277.706473 
L 463.602805 277.846229 
L 467.082025 278.475129 
L 468.821635 278.745002 
L 470.561245 280.014852 
L 472.300855 280.104006 
L 474.040465 281.095549 
L 475.780075 281.219642 
L 477.519685 281.519635 
L 479.259295 284.154512 
L 480.998905 285.955673 
L 482.738515 286.476143 
L 486.217735 286.565297 
L 487.957345 287.221908 
L 491.436565 287.649609 
L 493.176176 288.880905 
L 494.915786 289.502577 
L 496.655396 289.711005 
L 498.395006 290.051961 
L 500.134616 290.649537 
L 501.874226 291.683247 
L 503.613836 291.723005 
L 505.353446 292.119381 
L 507.093056 292.900086 
L 508.832666 293.068756 
L 510.572276 293.566335 
L 512.311886 293.659104 
L 514.051496 294.447037 
L 515.791106 294.5133 
L 517.530716 295.86628 
L 519.270326 297.543348 
L 521.009936 297.967434 
L 522.749546 299.145719 
L 524.489156 300.015578 
L 526.228766 300.17702 
L 527.968376 300.495085 
L 529.707986 300.511952 
L 531.447596 301.373377 
L 533.187206 301.951677 
L 534.926816 302.107094 
L 536.666426 302.65166 
L 538.406036 302.895027 
L 540.145646 302.945629 
L 541.885256 303.684165 
L 543.624866 303.763681 
L 545.364476 304.484146 
L 547.104086 304.858836 
L 550.583306 305.073289 
L 552.322916 305.890137 
L 554.062526 305.951581 
L 555.802136 306.372053 
L 557.541746 306.450364 
L 561.020966 307.023844 
L 564.500186 307.22384 
L 566.239796 307.816597 
L 567.979406 311.065916 
L 569.719016 311.323742 
L 571.458626 311.717708 
L 573.198236 311.833368 
L 574.937846 312.122518 
L 576.677456 313.111651 
L 578.417066 313.43333 
L 581.896286 313.657421 
L 583.635896 314.291141 
L 585.375506 314.454992 
L 587.115116 315.152566 
L 588.854726 316.368199 
L 595.813167 316.736865 
L 597.552777 317.132036 
L 599.292387 318.111531 
L 601.031997 318.227191 
L 602.771607 318.86814 
L 604.511217 319.06452 
L 606.250827 319.401862 
L 607.990437 320.38738 
L 611.469657 320.548822 
L 618.428097 321.271697 
L 621.907317 322.010233 
L 623.646927 323.00298 
L 625.386537 323.84031 
L 627.126147 324.171627 
L 630.605367 324.275239 
L 635.824197 324.535474 
L 637.563807 324.652339 
L 639.303417 324.905345 
L 642.782637 326.546269 
L 644.522247 326.972765 
L 646.261857 326.983608 
L 648.001467 327.828166 
L 649.741077 327.858286 
L 651.480687 328.504054 
L 653.220297 328.649833 
L 654.959907 328.994403 
L 656.699517 330.007632 
L 658.439127 331.305192 
L 660.178737 331.43049 
L 661.918347 332.597932 
L 663.657957 332.793108 
L 665.397567 334.676195 
L 668.876787 335.680991 
L 670.616397 335.964116 
L 672.356007 337.035175 
L 674.095617 337.125534 
L 675.835227 337.646004 
L 679.314447 339.037537 
L 681.054057 339.760411 
L 682.793667 341.172426 
L 686.272887 341.218208 
L 688.012497 341.92542 
L 689.752107 341.997707 
L 691.491717 343.998864 
L 693.231327 344.801255 
L 694.970937 349.793906 
L 694.970937 349.793906 
" clip-path="url(#p71f38c729d)" style="fill: none; stroke: #000000; stroke-width: 2; stroke-linecap: square"/>
   </g>
   <g id="line2d_28">
    <path d="M 61.752891 52.773594 
L 63.492501 53.609869 
L 65.232111 57.066597 
L 66.971721 60.070879 
L 68.711331 61.519108 
L 70.450941 62.657824 
L 72.190551 67.806928 
L 73.930161 69.667735 
L 75.669771 71.068673 
L 77.409381 74.189712 
L 79.148991 74.250152 
L 80.888601 75.097923 
L 82.628211 77.693824 
L 84.367821 78.819149 
L 86.107432 78.978938 
L 91.326262 80.88069 
L 93.065872 81.916057 
L 94.805482 82.00572 
L 96.545092 82.958855 
L 98.284702 83.272966 
L 100.024312 85.010726 
L 101.763922 85.813614 
L 103.503532 87.647052 
L 105.243142 87.79704 
L 106.982752 89.582119 
L 108.722362 89.6563 
L 110.461972 89.949767 
L 112.201582 93.543413 
L 113.941192 93.840168 
L 119.160022 95.04624 
L 120.899632 96.64178 
L 122.639242 96.911657 
L 124.378852 97.058454 
L 126.118462 97.51335 
L 127.858072 97.745356 
L 133.076902 99.65678 
L 134.816512 100.379467 
L 136.556122 102.307413 
L 138.295732 103.98255 
L 143.514562 104.587473 
L 145.254172 105.115556 
L 146.993782 105.43952 
L 150.473002 105.524862 
L 155.691832 105.843617 
L 159.171052 106.805289 
L 160.910662 110.059244 
L 162.650272 110.733409 
L 164.389882 111.112552 
L 166.129492 111.644043 
L 167.869102 112.025094 
L 169.608712 114.151547 
L 171.348322 114.304149 
L 173.087932 115.431263 
L 176.567152 115.523333 
L 178.306762 116.748166 
L 181.785982 117.334196 
L 183.525592 117.701781 
L 185.265202 117.714737 
L 188.744423 118.374536 
L 190.484033 119.140089 
L 192.223643 119.195792 
L 195.702863 119.590257 
L 197.442473 120.497542 
L 199.182083 120.842848 
L 206.140523 121.4444 
L 207.880133 121.969046 
L 209.619743 123.302698 
L 211.359353 123.849457 
L 213.098963 124.108292 
L 214.838573 124.138482 
L 216.578183 124.712522 
L 218.317793 125.166556 
L 220.057403 126.168536 
L 221.797013 126.509315 
L 225.276233 128.098136 
L 227.015843 128.144793 
L 228.755453 129.045105 
L 232.234673 129.42153 
L 233.974283 129.438765 
L 235.713893 130.259483 
L 237.453503 130.582922 
L 239.193113 130.614177 
L 240.932723 131.501448 
L 242.672333 134.08141 
L 246.151553 134.790686 
L 247.891163 136.435685 
L 249.630773 136.499117 
L 251.370383 137.256072 
L 253.109993 137.512828 
L 254.849603 138.705162 
L 256.589213 139.260071 
L 258.328823 139.460218 
L 260.068433 139.514812 
L 263.547653 140.4282 
L 265.287263 140.71483 
L 267.026873 141.360888 
L 268.766483 143.911226 
L 270.506093 144.504757 
L 277.464533 144.928578 
L 279.204143 145.961035 
L 280.943753 146.334607 
L 282.683363 146.431475 
L 284.422973 146.751478 
L 286.162583 149.219218 
L 287.902193 149.458905 
L 289.641804 151.806993 
L 291.381414 152.962081 
L 294.860634 153.874079 
L 296.600244 157.115468 
L 298.339854 157.25738 
L 300.079464 157.555472 
L 301.819074 157.63881 
L 303.558684 158.132575 
L 307.037904 159.541753 
L 310.517124 159.8772 
L 312.256734 160.64366 
L 313.996344 160.798213 
L 315.735954 161.187425 
L 317.475564 161.243322 
L 319.215174 161.572881 
L 320.954784 162.954964 
L 324.434004 163.242197 
L 326.173614 163.772527 
L 327.913224 164.527968 
L 329.652834 166.356877 
L 331.392444 166.487164 
L 333.132054 166.898559 
L 334.871664 167.038769 
L 336.611274 167.407343 
L 338.350884 167.994765 
L 340.090494 168.408485 
L 341.830104 170.076746 
L 343.569714 170.60119 
L 345.309324 175.011871 
L 347.048934 177.019687 
L 350.528154 177.234385 
L 352.267764 177.917756 
L 354.007374 178.310441 
L 355.746984 181.115119 
L 357.486594 181.421652 
L 359.226204 182.494388 
L 360.965814 182.784062 
L 362.705424 182.859109 
L 364.445034 183.166411 
L 366.184644 183.265307 
L 367.924254 184.189238 
L 369.663864 184.195495 
L 371.403474 185.103977 
L 373.143084 185.686733 
L 374.882694 185.931468 
L 376.622304 187.814702 
L 378.361914 188.184539 
L 380.101524 189.262305 
L 381.841134 189.902437 
L 383.580744 190.257721 
L 385.320354 190.909093 
L 387.059964 191.15099 
L 388.799574 191.778221 
L 390.539185 193.767637 
L 392.278795 194.389813 
L 394.018405 195.243407 
L 395.758015 195.50627 
L 397.497625 196.490882 
L 399.237235 196.831814 
L 400.976845 196.914698 
L 402.716455 197.181565 
L 404.456065 197.981126 
L 406.195675 198.094484 
L 407.935285 198.540873 
L 409.674895 199.609005 
L 411.414505 199.985381 
L 413.154115 202.83614 
L 414.893725 205.238944 
L 416.633335 206.884699 
L 418.372945 207.720578 
L 420.112555 208.082533 
L 421.852165 209.140196 
L 423.591775 209.802764 
L 427.070995 209.901131 
L 428.810605 210.244631 
L 430.550215 210.729455 
L 432.289825 211.804042 
L 434.029435 213.136525 
L 435.769045 213.709315 
L 437.508655 214.091452 
L 439.248265 215.031057 
L 440.987875 215.130315 
L 442.727485 215.999274 
L 444.467095 217.199647 
L 446.206705 217.964634 
L 447.946315 218.063378 
L 449.685925 218.614577 
L 451.425535 218.914519 
L 453.165145 219.330739 
L 454.904755 220.414173 
L 456.644365 221.910171 
L 458.383975 222.090255 
L 461.863195 223.677862 
L 463.602805 223.69017 
L 465.342415 224.457305 
L 467.082025 224.750456 
L 468.821635 225.162238 
L 470.561245 229.49193 
L 474.040465 229.874288 
L 475.780075 230.027816 
L 477.519685 230.033208 
L 479.259295 230.266533 
L 480.998905 231.623845 
L 482.738515 232.633894 
L 484.478125 233.26284 
L 486.217735 237.339891 
L 487.957345 238.546986 
L 489.696955 239.480558 
L 491.436565 239.710962 
L 493.176176 240.907398 
L 494.915786 241.258481 
L 496.655396 242.103812 
L 498.395006 246.279381 
L 500.134616 247.473523 
L 501.874226 248.076493 
L 503.613836 248.119164 
L 505.353446 248.48881 
L 507.093056 249.103179 
L 508.832666 249.130336 
L 510.572276 249.607771 
L 512.311886 249.85889 
L 514.051496 250.415086 
L 515.791106 250.751303 
L 517.530716 250.914928 
L 519.270326 251.956611 
L 521.009936 252.625726 
L 522.749546 253.085726 
L 524.489156 253.247505 
L 526.228766 253.569777 
L 527.968376 254.60163 
L 529.707986 254.661725 
L 531.447596 255.082698 
L 533.187206 255.652003 
L 534.926816 256.783205 
L 538.406036 256.964234 
L 540.145646 257.684892 
L 541.885256 258.119577 
L 545.364476 258.572627 
L 547.104086 259.581091 
L 548.843696 260.36284 
L 550.583306 260.620522 
L 554.062526 264.692345 
L 555.802136 265.245099 
L 557.541746 265.302506 
L 559.281356 265.48668 
L 561.020966 266.38181 
L 562.760576 266.447482 
L 564.500186 266.899157 
L 566.239796 269.339246 
L 567.979406 269.996029 
L 569.719016 270.981605 
L 571.458626 271.528758 
L 573.198236 272.446023 
L 574.937846 272.961301 
L 576.677456 274.805742 
L 578.417066 274.887304 
L 580.156676 275.112703 
L 581.896286 275.640753 
L 583.635896 275.953444 
L 585.375506 277.60824 
L 587.115116 278.121191 
L 590.594336 278.330091 
L 592.333946 279.292412 
L 594.073557 280.104782 
L 595.813167 281.140506 
L 599.292387 282.000881 
L 601.031997 282.082751 
L 602.771607 283.298655 
L 604.511217 283.620308 
L 606.250827 285.432485 
L 607.990437 285.677934 
L 609.730047 286.485175 
L 611.469657 288.726461 
L 613.209267 289.222983 
L 614.948877 289.23388 
L 616.688487 289.509685 
L 618.428097 289.975675 
L 620.167707 290.694007 
L 623.646927 290.799685 
L 625.386537 291.679816 
L 627.126147 291.920655 
L 628.865757 292.275023 
L 630.605367 292.286106 
L 632.344977 293.152185 
L 634.084587 294.179976 
L 635.824197 294.194009 
L 637.563807 295.063776 
L 639.303417 296.634171 
L 641.043027 297.44606 
L 642.782637 298.073261 
L 644.522247 298.403295 
L 646.261857 299.212176 
L 649.741077 300.049024 
L 651.480687 300.132407 
L 653.220297 300.435733 
L 654.959907 301.340637 
L 656.699517 301.873395 
L 661.918347 302.380581 
L 663.657957 303.226341 
L 665.397567 303.326242 
L 667.137177 304.478333 
L 668.876787 305.028542 
L 670.616397 305.902904 
L 672.356007 307.183175 
L 674.095617 308.055068 
L 675.835227 308.542552 
L 677.574837 310.438222 
L 679.314447 311.709329 
L 681.054057 313.901761 
L 682.793667 314.420049 
L 684.533277 320.261784 
L 686.272887 321.431642 
L 688.012497 323.834641 
L 689.752107 328.326155 
L 691.491717 332.074627 
L 693.231327 337.024304 
L 694.970937 341.008776 
L 694.970937 341.008776 
" clip-path="url(#p71f38c729d)" style="fill: none; stroke-dasharray: 5.92,2.56; stroke-dashoffset: 0; stroke: #1f77b4; stroke-width: 1.6"/>
   </g>
   <g id="line2d_29">
    <path d="M 61.752891 57.92339 
L 63.492501 61.629313 
L 65.232111 61.786565 
L 66.971721 64.74346 
L 68.711331 66.972247 
L 70.450941 69.571526 
L 72.190551 74.946274 
L 73.930161 74.97931 
L 75.669771 76.667348 
L 77.409381 76.812892 
L 79.148991 77.635271 
L 80.888601 81.416594 
L 82.628211 82.340301 
L 84.367821 82.834636 
L 86.107432 83.02304 
L 87.847042 83.054854 
L 89.586652 83.718058 
L 91.326262 84.112428 
L 93.065872 84.17537 
L 94.805482 87.252702 
L 96.545092 87.67813 
L 100.024312 88.918723 
L 101.763922 89.302606 
L 103.503532 90.89106 
L 105.243142 90.949504 
L 106.982752 92.196042 
L 108.722362 92.839829 
L 110.461972 93.913683 
L 112.201582 95.807063 
L 113.941192 97.424653 
L 115.680802 97.564363 
L 119.160022 98.231118 
L 120.899632 98.729448 
L 124.378852 98.850355 
L 129.597682 100.85761 
L 133.076902 101.395931 
L 134.816512 103.708036 
L 136.556122 104.453105 
L 140.035342 104.928394 
L 141.774952 105.005729 
L 143.514562 105.612947 
L 145.254172 107.254202 
L 146.993782 107.893829 
L 148.733392 107.943068 
L 152.212612 108.498389 
L 157.431442 108.590136 
L 159.171052 108.770003 
L 160.910662 108.793743 
L 162.650272 109.028223 
L 164.389882 111.479087 
L 166.129492 113.097817 
L 167.869102 113.113395 
L 169.608712 115.853049 
L 171.348322 116.157814 
L 174.827542 116.235736 
L 180.046372 116.880728 
L 183.525592 117.715256 
L 185.265202 118.099292 
L 187.004813 118.177075 
L 188.744423 118.419943 
L 190.484033 119.33494 
L 192.223643 119.769295 
L 193.963253 119.81248 
L 197.442473 120.779411 
L 199.182083 120.989964 
L 200.921693 121.831042 
L 204.400913 121.964871 
L 206.140523 123.589011 
L 207.880133 123.681957 
L 209.619743 124.373743 
L 216.578183 125.179968 
L 218.317793 125.281291 
L 220.057403 126.800621 
L 221.797013 127.05252 
L 225.276233 129.539345 
L 228.755453 129.921143 
L 230.495063 130.990508 
L 232.234673 131.042334 
L 233.974283 131.394122 
L 235.713893 131.472399 
L 239.193113 133.102543 
L 242.672333 133.93506 
L 244.411943 134.065377 
L 246.151553 135.137318 
L 247.891163 135.294267 
L 249.630773 137.378009 
L 251.370383 137.425292 
L 253.109993 138.001664 
L 254.849603 138.20101 
L 258.328823 139.326022 
L 260.068433 140.13098 
L 261.808043 140.208057 
L 263.547653 141.317678 
L 265.287263 141.516544 
L 267.026873 142.317274 
L 268.766483 142.537359 
L 270.506093 142.916277 
L 272.245703 144.535816 
L 273.985313 145.033134 
L 275.724923 145.274866 
L 277.464533 146.048065 
L 279.204143 146.233501 
L 280.943753 147.068907 
L 282.683363 147.630092 
L 286.162583 148.03336 
L 287.902193 149.5375 
L 289.641804 149.841293 
L 291.381414 152.783351 
L 293.121024 152.832819 
L 294.860634 153.87458 
L 298.339854 154.310578 
L 301.819074 155.737547 
L 303.558684 155.996383 
L 305.298294 156.531806 
L 307.037904 157.509118 
L 308.777514 157.682157 
L 310.517124 158.368419 
L 313.996344 160.882619 
L 315.735954 161.788677 
L 317.475564 162.288972 
L 319.215174 162.62385 
L 320.954784 162.813256 
L 322.694394 162.821241 
L 329.652834 163.347665 
L 331.392444 164.766103 
L 334.871664 165.547817 
L 336.611274 165.764925 
L 338.350884 167.284862 
L 340.090494 168.113265 
L 341.830104 168.29452 
L 343.569714 169.453311 
L 345.309324 170.863194 
L 348.788544 171.980133 
L 350.528154 174.672126 
L 352.267764 174.967303 
L 354.007374 177.4195 
L 355.746984 177.816006 
L 357.486594 178.387299 
L 359.226204 180.787179 
L 360.965814 181.355462 
L 362.705424 181.555394 
L 364.445034 182.002461 
L 366.184644 182.105754 
L 369.663864 183.940353 
L 371.403474 184.105483 
L 373.143084 184.697732 
L 374.882694 185.725342 
L 376.622304 186.417301 
L 378.361914 186.435304 
L 380.101524 186.685285 
L 381.841134 188.662401 
L 383.580744 189.813895 
L 387.059964 189.95449 
L 388.799574 191.938412 
L 390.539185 191.991542 
L 392.278795 194.528421 
L 395.758015 195.470831 
L 400.976845 195.800078 
L 402.716455 196.864483 
L 404.456065 197.022953 
L 406.195675 197.405868 
L 407.935285 197.410019 
L 409.674895 197.565556 
L 411.414505 198.434436 
L 413.154115 198.619464 
L 414.893725 200.186172 
L 416.633335 200.773179 
L 418.372945 201.623916 
L 420.112555 202.236544 
L 421.852165 207.567615 
L 423.591775 208.110536 
L 425.331385 208.184558 
L 427.070995 209.030673 
L 428.810605 209.23234 
L 432.289825 209.395554 
L 434.029435 209.837832 
L 435.769045 210.164039 
L 437.508655 211.115022 
L 439.248265 211.812834 
L 444.467095 212.126148 
L 446.206705 212.144121 
L 449.685925 212.765956 
L 451.425535 213.90615 
L 453.165145 218.144949 
L 454.904755 219.44933 
L 456.644365 219.699887 
L 458.383975 219.808124 
L 460.123585 221.52124 
L 461.863195 221.645276 
L 463.602805 222.272285 
L 465.342415 222.705987 
L 467.082025 222.851447 
L 468.821635 223.356992 
L 472.300855 226.321019 
L 474.040465 227.42898 
L 475.780075 229.140457 
L 480.998905 231.154801 
L 482.738515 231.283761 
L 484.478125 232.173364 
L 486.217735 232.696207 
L 487.957345 232.888932 
L 489.696955 233.333832 
L 491.436565 239.190421 
L 493.176176 239.233261 
L 496.655396 239.812474 
L 498.395006 240.677923 
L 500.134616 240.912267 
L 503.613836 243.169417 
L 505.353446 243.844651 
L 507.093056 245.061983 
L 508.832666 245.354477 
L 510.572276 246.381244 
L 512.311886 246.44694 
L 514.051496 246.7791 
L 515.791106 247.37034 
L 517.530716 247.776705 
L 519.270326 248.306761 
L 521.009936 248.341482 
L 522.749546 249.108219 
L 524.489156 249.202287 
L 526.228766 249.697218 
L 529.707986 250.195504 
L 531.447596 250.831499 
L 534.926816 250.904799 
L 536.666426 252.731775 
L 540.145646 253.830651 
L 541.885256 256.308999 
L 543.624866 256.935495 
L 545.364476 257.109122 
L 547.104086 257.677995 
L 548.843696 257.844035 
L 550.583306 258.127 
L 552.322916 258.919024 
L 554.062526 260.170032 
L 555.802136 260.22 
L 557.541746 260.625156 
L 559.281356 261.207395 
L 564.500186 261.648482 
L 566.239796 263.773393 
L 567.979406 265.496081 
L 569.719016 266.147444 
L 573.198236 266.28932 
L 574.937846 266.626233 
L 576.677456 266.767796 
L 578.417066 268.107539 
L 580.156676 269.630173 
L 581.896286 270.200236 
L 583.635896 270.27522 
L 585.375506 271.092008 
L 587.115116 272.966188 
L 588.854726 274.059233 
L 590.594336 276.734909 
L 597.552777 277.412775 
L 599.292387 277.996009 
L 601.031997 278.180728 
L 602.771607 278.986469 
L 604.511217 280.691798 
L 606.250827 281.413262 
L 607.990437 281.984004 
L 609.730047 283.990922 
L 611.469657 284.658055 
L 613.209267 286.206715 
L 616.688487 288.464116 
L 618.428097 288.552551 
L 620.167707 289.206279 
L 621.907317 289.49705 
L 628.865757 289.959248 
L 630.605367 290.401587 
L 632.344977 291.361588 
L 634.084587 292.575761 
L 635.824197 293.172253 
L 637.563807 295.445196 
L 641.043027 295.505552 
L 642.782637 296.039815 
L 644.522247 297.107918 
L 648.001467 297.360353 
L 649.741077 297.642485 
L 651.480687 297.783018 
L 653.220297 298.844628 
L 654.959907 299.290503 
L 658.439127 299.346909 
L 660.178737 299.913839 
L 661.918347 300.073845 
L 663.657957 300.870721 
L 665.397567 300.968542 
L 667.137177 301.785789 
L 668.876787 304.867309 
L 670.616397 304.890345 
L 672.356007 305.273103 
L 674.095617 306.058559 
L 675.835227 307.073123 
L 677.574837 307.289463 
L 679.314447 312.049399 
L 681.054057 315.8587 
L 682.793667 316.960434 
L 684.533277 321.976518 
L 686.272887 324.023005 
L 688.012497 327.053865 
L 689.752107 331.737291 
L 691.491717 335.750214 
L 693.231327 340.925265 
L 694.970937 344.291468 
L 694.970937 344.291468 
" clip-path="url(#p71f38c729d)" style="fill: none; stroke-dasharray: 10.24,2.56,1.6,2.56; stroke-dashoffset: 0; stroke: #2ca02c; stroke-width: 1.6"/>
   </g>
   <g id="line2d_30">
    <path d="M 61.752891 165.641312 
L 63.492501 166.159803 
L 65.232111 168.302974 
L 66.971721 170.165629 
L 68.711331 171.063531 
L 70.450941 171.769536 
L 72.190551 174.96198 
L 73.930161 176.11568 
L 75.669771 176.984262 
L 77.409381 178.919306 
L 79.148991 178.956779 
L 80.888601 179.482397 
L 82.628211 181.091855 
L 84.367821 181.789557 
L 86.107432 181.888626 
L 91.326262 183.067712 
L 93.065872 183.70964 
L 94.805482 183.76523 
L 96.545092 184.356175 
L 98.284702 184.550923 
L 100.024312 185.628334 
L 101.763922 186.126125 
L 103.503532 187.262857 
L 105.243142 187.355849 
L 106.982752 188.462598 
L 108.722362 188.50859 
L 110.461972 188.69054 
L 112.201582 190.9186 
L 115.680802 191.372858 
L 119.160022 191.850353 
L 120.899632 192.839588 
L 127.858072 193.523805 
L 133.076902 194.708888 
L 134.816512 195.156954 
L 136.556122 196.352281 
L 138.295732 197.390865 
L 143.514562 197.765917 
L 145.254172 198.093329 
L 146.993782 198.294187 
L 152.212612 198.412449 
L 155.691832 198.544727 
L 159.171052 199.140963 
L 160.910662 201.158416 
L 162.650272 201.576398 
L 167.869102 202.377243 
L 169.608712 203.695643 
L 171.348322 203.790257 
L 173.087932 204.489068 
L 176.567152 204.546151 
L 178.306762 205.305547 
L 181.785982 205.668886 
L 183.525592 205.896788 
L 185.265202 205.904821 
L 188.744423 206.313897 
L 190.484033 206.78854 
L 193.963253 206.933981 
L 195.702863 207.067644 
L 197.442473 207.63016 
L 199.182083 207.84425 
L 206.140523 208.217212 
L 207.880133 208.542493 
L 209.619743 209.369357 
L 211.359353 209.708348 
L 213.098963 209.868825 
L 214.838573 209.887543 
L 218.317793 210.524949 
L 220.057403 211.146176 
L 221.797013 211.35746 
L 225.276233 212.342528 
L 227.015843 212.371456 
L 228.755453 212.92965 
L 232.234673 213.163033 
L 233.974283 213.173719 
L 235.713893 213.682564 
L 237.453503 213.883096 
L 239.193113 213.902474 
L 240.932723 214.452582 
L 242.672333 216.052159 
L 246.151553 216.49191 
L 247.891163 217.511809 
L 249.630773 217.551137 
L 251.370383 218.020449 
L 253.109993 218.179637 
L 254.849603 218.918885 
L 256.589213 219.262928 
L 261.808043 219.726483 
L 267.026873 220.565435 
L 268.766483 222.146644 
L 270.506093 222.514634 
L 277.464533 222.777403 
L 279.204143 223.417526 
L 280.943753 223.649141 
L 282.683363 223.709199 
L 284.422973 223.907601 
L 286.162583 225.4376 
L 287.902193 225.586205 
L 289.641804 227.04202 
L 291.381414 227.758175 
L 294.860634 228.323613 
L 296.600244 230.333274 
L 301.819074 230.657747 
L 303.558684 230.963881 
L 307.037904 231.837571 
L 310.517124 232.045548 
L 312.256734 232.520753 
L 313.996344 232.616576 
L 315.735954 232.857888 
L 317.475564 232.892544 
L 319.215174 233.096871 
L 320.954784 233.953762 
L 324.434004 234.131847 
L 326.173614 234.460651 
L 327.913224 234.929024 
L 329.652834 236.062948 
L 331.392444 236.143726 
L 333.132054 236.398791 
L 334.871664 236.485721 
L 336.611274 236.714237 
L 340.090494 237.334945 
L 341.830104 238.369267 
L 343.569714 238.694422 
L 345.309324 241.429044 
L 347.048934 242.67389 
L 350.528154 242.807003 
L 352.267764 243.230693 
L 354.007374 243.474158 
L 355.746984 245.213058 
L 357.486594 245.403109 
L 359.226204 246.068205 
L 360.965814 246.247803 
L 362.705424 246.294332 
L 364.445034 246.484859 
L 366.184644 246.546175 
L 367.924254 247.119012 
L 369.663864 247.122891 
L 371.403474 247.68615 
L 373.143084 248.047459 
L 374.882694 248.199194 
L 376.622304 249.366799 
L 378.361914 249.596098 
L 380.101524 250.264314 
L 381.841134 250.661195 
L 383.580744 250.881472 
L 385.320354 251.285322 
L 387.059964 251.435298 
L 388.799574 251.824181 
L 390.539185 253.057619 
L 392.278795 253.443369 
L 394.018405 253.972597 
L 395.758015 254.135571 
L 397.497625 254.746032 
L 399.237235 254.957409 
L 400.976845 255.008797 
L 402.716455 255.174255 
L 404.456065 255.669983 
L 406.195675 255.740265 
L 407.935285 256.017025 
L 409.674895 256.679267 
L 411.414505 256.912621 
L 413.154115 258.680091 
L 414.893725 260.16983 
L 416.633335 261.190198 
L 418.372945 261.708443 
L 420.112555 261.932855 
L 421.852165 262.588606 
L 423.591775 262.999398 
L 428.810605 263.273356 
L 430.550215 263.573946 
L 432.289825 264.240191 
L 434.029435 265.06633 
L 435.769045 265.42146 
L 437.508655 265.658385 
L 439.248265 266.24094 
L 440.987875 266.30248 
L 442.727485 266.841234 
L 444.467095 267.585466 
L 446.206705 268.059757 
L 447.946315 268.120979 
L 449.685925 268.462722 
L 453.165145 268.906743 
L 454.904755 269.578471 
L 456.644365 270.505991 
L 458.383975 270.617642 
L 461.863195 271.601959 
L 463.602805 271.609589 
L 465.342415 272.085213 
L 468.821635 272.522272 
L 470.561245 275.206681 
L 475.780075 275.538931 
L 477.519685 275.542273 
L 479.259295 275.686935 
L 480.998905 276.528468 
L 482.738515 277.154699 
L 484.478125 277.544645 
L 486.217735 280.072417 
L 487.957345 280.820816 
L 489.696955 281.39963 
L 491.436565 281.542481 
L 493.176176 282.284271 
L 494.915786 282.501942 
L 496.655396 283.026048 
L 498.395006 285.6149 
L 500.134616 286.355269 
L 501.874226 286.72911 
L 503.613836 286.755566 
L 505.353446 286.984747 
L 507.093056 287.365656 
L 508.832666 287.382493 
L 510.572276 287.678502 
L 512.311886 287.834196 
L 514.051496 288.179038 
L 517.530716 288.48894 
L 519.270326 289.134783 
L 521.009936 289.549635 
L 522.749546 289.834835 
L 526.228766 290.134946 
L 527.968376 290.774695 
L 529.707986 290.811954 
L 533.187206 291.425926 
L 534.926816 292.127272 
L 538.406036 292.239509 
L 540.145646 292.686317 
L 541.885256 292.955822 
L 545.364476 293.236713 
L 547.104086 293.861961 
L 548.843696 294.346645 
L 550.583306 294.506408 
L 554.062526 297.030938 
L 555.802136 297.373646 
L 559.281356 297.523426 
L 561.020966 298.078407 
L 562.760576 298.119123 
L 564.500186 298.399162 
L 566.239796 299.912017 
L 567.979406 300.319223 
L 569.719016 300.93028 
L 571.458626 301.269514 
L 573.198236 301.838218 
L 574.937846 302.157691 
L 576.677456 303.301244 
L 580.156676 303.49156 
L 581.896286 303.818951 
L 583.635896 304.01282 
L 585.375506 305.038793 
L 587.115116 305.356823 
L 590.594336 305.486341 
L 595.813167 307.228798 
L 599.292387 307.762231 
L 601.031997 307.81299 
L 602.771607 308.56685 
L 604.511217 308.766275 
L 606.250827 309.889825 
L 607.990437 310.042004 
L 609.730047 310.542493 
L 611.469657 311.93209 
L 613.209267 312.239934 
L 614.948877 312.24669 
L 616.688487 312.417689 
L 618.428097 312.706603 
L 620.167707 313.151969 
L 623.646927 313.217489 
L 625.386537 313.76317 
L 630.605367 314.13907 
L 634.084587 315.313269 
L 635.824197 315.32197 
L 637.563807 315.861226 
L 639.303417 316.83487 
L 642.782637 317.727106 
L 644.522247 317.931727 
L 646.261857 318.433233 
L 649.741077 318.952079 
L 651.480687 319.003777 
L 653.220297 319.191839 
L 654.959907 319.752879 
L 656.699517 320.083189 
L 661.918347 320.397645 
L 663.657957 320.922016 
L 665.397567 320.983954 
L 667.137177 321.698251 
L 668.876787 322.03938 
L 670.616397 322.581485 
L 672.356007 323.375253 
L 674.095617 323.915826 
L 675.835227 324.218067 
L 677.574837 325.393382 
L 679.314447 326.181469 
L 681.054057 327.540776 
L 682.793667 327.862115 
L 684.533277 331.483991 
L 686.272887 332.209303 
L 688.012497 333.699162 
L 689.752107 336.4839 
L 691.491717 338.807953 
L 693.231327 341.876753 
L 694.970937 344.347125 
L 694.970937 344.347125 
" clip-path="url(#p71f38c729d)" style="fill: none; stroke-dasharray: 1,1.65; stroke-dashoffset: 0; stroke: #1f77b4; stroke-opacity: 0.8"/>
   </g>
   <g id="line2d_31">
    <path d="M 61.752891 168.834186 
L 63.492501 171.131858 
L 65.232111 171.229355 
L 66.971721 173.06263 
L 68.711331 174.444477 
L 70.450941 176.05603 
L 72.190551 179.388374 
L 73.930161 179.408857 
L 75.669771 180.45544 
L 77.409381 180.545677 
L 79.148991 181.055552 
L 80.888601 183.399972 
L 82.628211 183.972671 
L 84.367821 184.279159 
L 87.847042 184.415694 
L 89.586652 184.82688 
L 91.326262 185.07139 
L 93.065872 185.110414 
L 94.805482 187.018359 
L 96.545092 187.282125 
L 100.024312 188.051293 
L 101.763922 188.2893 
L 103.503532 189.274142 
L 105.243142 189.310377 
L 106.982752 190.08323 
L 108.722362 190.482378 
L 110.461972 191.148168 
L 112.201582 192.322063 
L 113.941192 193.324969 
L 115.680802 193.411589 
L 122.639242 194.156847 
L 124.378852 194.208905 
L 129.597682 195.453403 
L 133.076902 195.787162 
L 134.816512 197.220667 
L 136.556122 197.68261 
L 140.035342 197.977289 
L 141.774952 198.025236 
L 143.514562 198.401712 
L 145.254172 199.419289 
L 146.993782 199.815858 
L 148.733392 199.846386 
L 152.212612 200.190685 
L 157.431442 200.247569 
L 162.650272 200.519183 
L 164.389882 202.038718 
L 166.129492 203.042331 
L 167.869102 203.051989 
L 169.608712 204.750574 
L 171.348322 204.939529 
L 174.827542 204.987841 
L 180.046372 205.387736 
L 185.265202 206.143246 
L 188.744423 206.342049 
L 190.484033 206.909347 
L 192.223643 207.178647 
L 193.963253 207.205422 
L 199.182083 207.935462 
L 200.921693 208.45693 
L 204.400913 208.539904 
L 206.140523 209.546871 
L 207.880133 209.604498 
L 209.619743 210.033405 
L 216.578183 210.533265 
L 218.317793 210.596085 
L 220.057403 211.53807 
L 221.797013 211.694247 
L 225.276233 213.236078 
L 228.755453 213.472793 
L 230.495063 214.135799 
L 232.234673 214.167931 
L 233.974283 214.38604 
L 235.713893 214.434572 
L 239.193113 215.445261 
L 242.672333 215.961421 
L 244.411943 216.042218 
L 246.151553 216.706821 
L 247.891163 216.80413 
L 249.630773 218.09605 
L 251.370383 218.125365 
L 253.109993 218.482716 
L 254.849603 218.60631 
L 258.328823 219.303818 
L 260.068433 219.802892 
L 261.808043 219.850679 
L 263.547653 220.538645 
L 265.287263 220.661942 
L 267.026873 221.158394 
L 270.506093 221.529776 
L 272.245703 222.533891 
L 273.985313 222.842228 
L 275.724923 222.992101 
L 277.464533 223.471485 
L 279.204143 223.586455 
L 280.943753 224.104407 
L 282.683363 224.452341 
L 286.162583 224.702367 
L 287.902193 225.634934 
L 289.641804 225.823286 
L 291.381414 227.647362 
L 293.121024 227.678032 
L 294.860634 228.323924 
L 298.339854 228.594243 
L 301.819074 229.478963 
L 303.558684 229.639442 
L 305.298294 229.971404 
L 307.037904 230.577338 
L 308.777514 230.684622 
L 310.517124 231.110104 
L 313.996344 232.668908 
L 315.735954 233.230664 
L 319.215174 233.748471 
L 320.954784 233.865903 
L 324.434004 233.963817 
L 329.652834 234.197237 
L 331.392444 235.076668 
L 334.871664 235.561331 
L 336.611274 235.695938 
L 338.350884 236.638299 
L 340.090494 237.151909 
L 341.830104 237.264287 
L 343.569714 237.982737 
L 345.309324 238.856865 
L 348.788544 239.549367 
L 350.528154 241.218403 
L 352.267764 241.401412 
L 354.007374 242.921774 
L 357.486594 243.52181 
L 359.226204 245.009736 
L 360.965814 245.362071 
L 362.705424 245.486028 
L 364.445034 245.76321 
L 366.184644 245.827252 
L 369.663864 246.964703 
L 371.403474 247.067084 
L 373.143084 247.434278 
L 374.882694 248.071397 
L 376.622304 248.500411 
L 378.361914 248.511573 
L 380.101524 248.666561 
L 381.841134 249.892373 
L 383.580744 250.606299 
L 387.059964 250.693468 
L 388.799574 251.9235 
L 390.539185 251.95644 
L 392.278795 253.529305 
L 395.758015 254.113599 
L 400.976845 254.317733 
L 402.716455 254.977664 
L 404.456065 255.075915 
L 406.195675 255.313323 
L 409.674895 255.412329 
L 411.414505 255.951035 
L 413.154115 256.065752 
L 414.893725 257.037111 
L 416.633335 257.401056 
L 418.372945 257.928513 
L 420.112555 258.308342 
L 421.852165 261.613605 
L 423.591775 261.950217 
L 425.331385 261.996111 
L 427.070995 262.520701 
L 430.550215 262.692614 
L 432.289825 262.746928 
L 435.769045 263.223388 
L 437.508655 263.812998 
L 439.248265 264.245641 
L 444.467095 264.439896 
L 446.206705 264.451039 
L 449.685925 264.836577 
L 451.425535 265.543498 
L 453.165145 268.171552 
L 454.904755 268.980269 
L 458.383975 269.202721 
L 460.123585 270.264853 
L 461.863195 270.341756 
L 463.602805 270.730501 
L 465.342415 270.999397 
L 467.082025 271.089581 
L 468.821635 271.403019 
L 472.300855 273.240716 
L 474.040465 273.927652 
L 475.780075 274.988768 
L 480.998905 276.237661 
L 482.738515 276.317616 
L 484.478125 276.86917 
L 486.217735 277.193333 
L 487.957345 277.312822 
L 489.696955 277.58866 
L 491.436565 281.219745 
L 493.176176 281.246306 
L 496.655396 281.605418 
L 498.395006 282.141997 
L 500.134616 282.28729 
L 503.613836 283.686723 
L 505.353446 284.105368 
L 507.093056 284.860114 
L 508.832666 285.04146 
L 510.572276 285.678056 
L 512.311886 285.718787 
L 514.051496 285.924726 
L 515.791106 286.291295 
L 519.270326 286.871876 
L 521.009936 286.893403 
L 522.749546 287.36878 
L 524.489156 287.427102 
L 526.228766 287.73396 
L 529.707986 288.042897 
L 531.447596 288.437214 
L 534.926816 288.48266 
L 536.666426 289.615385 
L 540.145646 290.296688 
L 541.885256 291.833264 
L 543.624866 292.221691 
L 545.364476 292.32934 
L 547.104086 292.682041 
L 550.583306 292.960424 
L 552.322916 293.451479 
L 554.062526 294.227104 
L 555.802136 294.258085 
L 561.020966 294.954681 
L 564.500186 295.143743 
L 566.239796 296.461188 
L 567.979406 297.529254 
L 569.719016 297.9331 
L 573.198236 298.021063 
L 574.937846 298.229949 
L 576.677456 298.317718 
L 580.156676 300.092392 
L 581.896286 300.445831 
L 583.635896 300.492321 
L 585.375506 300.998729 
L 587.115116 302.160721 
L 588.854726 302.838409 
L 590.594336 304.497328 
L 597.552777 304.917605 
L 599.292387 305.27921 
L 601.031997 305.393736 
L 602.771607 305.893295 
L 604.511217 306.950599 
L 607.990437 307.751767 
L 609.730047 308.996056 
L 611.469657 309.409678 
L 613.209267 310.369848 
L 616.688487 311.769436 
L 618.428097 311.824266 
L 620.167707 312.229577 
L 623.646927 312.496024 
L 627.126147 312.683557 
L 628.865757 312.696418 
L 630.605367 312.970668 
L 632.344977 313.565869 
L 634.084587 314.318656 
L 635.824197 314.688481 
L 637.563807 316.097706 
L 641.043027 316.135126 
L 642.782637 316.46637 
L 644.522247 317.128593 
L 651.480687 317.547156 
L 653.220297 318.205353 
L 654.959907 318.481796 
L 658.439127 318.516768 
L 660.178737 318.868265 
L 661.918347 318.967469 
L 663.657957 319.461532 
L 665.397567 319.522181 
L 667.137177 320.028874 
L 668.876787 321.939416 
L 670.616397 321.953699 
L 672.356007 322.191008 
L 674.095617 322.677991 
L 675.835227 323.307021 
L 677.574837 323.441152 
L 679.314447 326.392312 
L 681.054057 328.754078 
L 682.793667 329.437153 
L 684.533277 332.547126 
L 686.272887 333.815948 
L 688.012497 335.69508 
L 689.752107 338.598805 
L 691.491717 341.086817 
L 693.231327 344.295348 
L 694.970937 346.382394 
L 694.970937 346.382394 
" clip-path="url(#p71f38c729d)" style="fill: none; stroke-dasharray: 1,1.65; stroke-dashoffset: 0; stroke: #2ca02c; stroke-opacity: 0.8"/>
   </g>
   <g id="patch_3">
    <path d="M 60.013281 349.793906 
L 60.013281 37.922578 
" style="fill: none; stroke: #000000; stroke-width: 0.8; stroke-linejoin: miter; stroke-linecap: square"/>
   </g>
   <g id="patch_4">
    <path d="M 694.970937 349.793906 
L 694.970937 37.922578 
" style="fill: none; stroke: #000000; stroke-width: 0.8; stroke-linejoin: miter; stroke-linecap: square"/>
   </g>
   <g id="patch_5">
    <path d="M 60.013281 349.793906 
L 694.970937 349.793906 
" style="fill: none; stroke: #000000; stroke-width: 0.8; stroke-linejoin: miter; stroke-linecap: square"/>
   </g>
   <g id="patch_6">
    <path d="M 60.013281 37.922578 
L 694.970937 37.922578 
" style="fill: none; stroke: #000000; stroke-width: 0.8; stroke-linejoin: miter; stroke-linecap: square"/>
   </g>
   <g id="text_16">
    <!-- Germany national solar 2023 — duration curve of daily maximum -->
    <g transform="translate(180.115547 17.519297) scale(0.12 -0.12)">
     <defs>
      <path id="DejaVuSans-2a" d="M 3809 666 
L 3809 1919 
L 2778 1919 
L 2778 2438 
L 4434 2438 
L 4434 434 
Q 4069 175 3628 42 
Q 3188 -91 2688 -91 
Q 1594 -91 976 548 
Q 359 1188 359 2328 
Q 359 3472 976 4111 
Q 1594 4750 2688 4750 
Q 3144 4750 3555 4637 
Q 3966 4525 4313 4306 
L 4313 3634 
Q 3963 3931 3569 4081 
Q 3175 4231 2741 4231 
Q 1884 4231 1454 3753 
Q 1025 3275 1025 2328 
Q 1025 1384 1454 906 
Q 1884 428 2741 428 
Q 3075 428 3337 486 
Q 3600 544 3809 666 
z
" transform="scale(0.015625)"/>
      <path id="DejaVuSans-af6" d="M 313 1978 
L 6088 1978 
L 6088 1528 
L 313 1528 
L 313 1978 
z
" transform="scale(0.015625)"/>
      <path id="DejaVuSans-59" d="M 191 3500 
L 800 3500 
L 1894 563 
L 2988 3500 
L 3597 3500 
L 2284 0 
L 1503 0 
L 191 3500 
z
" transform="scale(0.015625)"/>
     </defs>
     <use xlink:href="#DejaVuSans-2a"/>
     <use xlink:href="#DejaVuSans-48" transform="translate(77.484375 0)"/>
     <use xlink:href="#DejaVuSans-55" transform="translate(139.015625 0)"/>
     <use xlink:href="#DejaVuSans-50" transform="translate(178.375 0)"/>
     <use xlink:href="#DejaVuSans-44" transform="translate(275.78125 0)"/>
     <use xlink:href="#DejaVuSans-51" transform="translate(337.0625 0)"/>
     <use xlink:href="#DejaVuSans-5c" transform="translate(400.4375 0)"/>
     <use xlink:href="#DejaVuSans-3" transform="translate(459.625 0)"/>
     <use xlink:href="#DejaVuSans-51" transform="translate(491.40625 0)"/>
     <use xlink:href="#DejaVuSans-44" transform="translate(554.78125 0)"/>
     <use xlink:href="#DejaVuSans-57" transform="translate(616.0625 0)"/>
     <use xlink:href="#DejaVuSans-4c" transform="translate(655.265625 0)"/>
     <use xlink:href="#DejaVuSans-52" transform="translate(683.046875 0)"/>
     <use xlink:href="#DejaVuSans-51" transform="translate(744.234375 0)"/>
     <use xlink:href="#DejaVuSans-44" transform="translate(807.609375 0)"/>
     <use xlink:href="#DejaVuSans-4f" transform="translate(868.890625 0)"/>
     <use xlink:href="#DejaVuSans-3" transform="translate(896.671875 0)"/>
     <use xlink:href="#DejaVuSans-56" transform="translate(928.453125 0)"/>
     <use xlink:href="#DejaVuSans-52" transform="translate(980.546875 0)"/>
     <use xlink:href="#DejaVuSans-4f" transform="translate(1041.734375 0)"/>
     <use xlink:href="#DejaVuSans-44" transform="translate(1069.515625 0)"/>
     <use xlink:href="#DejaVuSans-55" transform="translate(1130.796875 0)"/>
     <use xlink:href="#DejaVuSans-3" transform="translate(1171.90625 0)"/>
     <use xlink:href="#DejaVuSans-15" transform="translate(1203.6875 0)"/>
     <use xlink:href="#DejaVuSans-13" transform="translate(1267.3125 0)"/>
     <use xlink:href="#DejaVuSans-15" transform="translate(1330.9375 0)"/>
     <use xlink:href="#DejaVuSans-16" transform="translate(1394.5625 0)"/>
     <use xlink:href="#DejaVuSans-3" transform="translate(1458.1875 0)"/>
     <use xlink:href="#DejaVuSans-af6" transform="translate(1489.96875 0)"/>
     <use xlink:href="#DejaVuSans-3" transform="translate(1589.96875 0)"/>
     <use xlink:href="#DejaVuSans-47" transform="translate(1621.75 0)"/>
     <use xlink:href="#DejaVuSans-58" transform="translate(1685.234375 0)"/>
     <use xlink:href="#DejaVuSans-55" transform="translate(1748.609375 0)"/>
     <use xlink:href="#DejaVuSans-44" transform="translate(1789.71875 0)"/>
     <use xlink:href="#DejaVuSans-57" transform="translate(1851 0)"/>
     <use xlink:href="#DejaVuSans-4c" transform="translate(1890.203125 0)"/>
     <use xlink:href="#DejaVuSans-52" transform="translate(1917.984375 0)"/>
     <use xlink:href="#DejaVuSans-51" transform="translate(1979.171875 0)"/>
     <use xlink:href="#DejaVuSans-3" transform="translate(2042.546875 0)"/>
     <use xlink:href="#DejaVuSans-46" transform="translate(2074.328125 0)"/>
     <use xlink:href="#DejaVuSans-58" transform="translate(2129.3125 0)"/>
     <use xlink:href="#DejaVuSans-55" transform="translate(2192.6875 0)"/>
     <use xlink:href="#DejaVuSans-59" transform="translate(2233.796875 0)"/>
     <use xlink:href="#DejaVuSans-48" transform="translate(2292.984375 0)"/>
     <use xlink:href="#DejaVuSans-3" transform="translate(2354.515625 0)"/>
     <use xlink:href="#DejaVuSans-52" transform="translate(2386.296875 0)"/>
     <use xlink:href="#DejaVuSans-49" transform="translate(2447.484375 0)"/>
     <use xlink:href="#DejaVuSans-3" transform="translate(2482.6875 0)"/>
     <use xlink:href="#DejaVuSans-47" transform="translate(2514.46875 0)"/>
     <use xlink:href="#DejaVuSans-44" transform="translate(2577.953125 0)"/>
     <use xlink:href="#DejaVuSans-4c" transform="translate(2639.234375 0)"/>
     <use xlink:href="#DejaVuSans-4f" transform="translate(2667.015625 0)"/>
     <use xlink:href="#DejaVuSans-5c" transform="translate(2694.796875 0)"/>
     <use xlink:href="#DejaVuSans-3" transform="translate(2753.984375 0)"/>
     <use xlink:href="#DejaVuSans-50" transform="translate(2785.765625 0)"/>
     <use xlink:href="#DejaVuSans-44" transform="translate(2883.171875 0)"/>
     <use xlink:href="#DejaVuSans-5b" transform="translate(2944.453125 0)"/>
     <use xlink:href="#DejaVuSans-4c" transform="translate(3003.640625 0)"/>
     <use xlink:href="#DejaVuSans-50" transform="translate(3031.421875 0)"/>
     <use xlink:href="#DejaVuSans-58" transform="translate(3128.828125 0)"/>
     <use xlink:href="#DejaVuSans-50" transform="translate(3192.203125 0)"/>
    </g>
    <!-- (n=365 days; sims = generation after inverter/aging; ENTSO-E = public feed-in) -->
    <g transform="translate(136.541484 31.922578) scale(0.12 -0.12)">
     <defs>
      <path id="DejaVuSans-20" d="M 678 2906 
L 4684 2906 
L 4684 2381 
L 678 2381 
L 678 2906 
z
M 678 1631 
L 4684 1631 
L 4684 1100 
L 678 1100 
L 678 1631 
z
" transform="scale(0.015625)"/>
      <path id="DejaVuSans-1e" d="M 750 3309 
L 1409 3309 
L 1409 2516 
L 750 2516 
L 750 3309 
z
M 750 794 
L 1409 794 
L 1409 256 
L 897 -744 
L 494 -744 
L 750 256 
L 750 794 
z
" transform="scale(0.015625)"/>
      <path id="DejaVuSans-12" d="M 1625 4666 
L 2156 4666 
L 531 -594 
L 0 -594 
L 1625 4666 
z
" transform="scale(0.015625)"/>
      <path id="DejaVuSans-28" d="M 628 4666 
L 3578 4666 
L 3578 4134 
L 1259 4134 
L 1259 2753 
L 3481 2753 
L 3481 2222 
L 1259 2222 
L 1259 531 
L 3634 531 
L 3634 0 
L 628 0 
L 628 4666 
z
" transform="scale(0.015625)"/>
      <path id="DejaVuSans-31" d="M 628 4666 
L 1478 4666 
L 3547 763 
L 3547 4666 
L 4159 4666 
L 4159 0 
L 3309 0 
L 1241 3903 
L 1241 0 
L 628 0 
L 628 4666 
z
" transform="scale(0.015625)"/>
      <path id="DejaVuSans-37" d="M -19 4666 
L 3928 4666 
L 3928 4134 
L 2272 4134 
L 2272 0 
L 1638 0 
L 1638 4134 
L -19 4134 
L -19 4666 
z
" transform="scale(0.015625)"/>
      <path id="DejaVuSans-36" d="M 3425 4513 
L 3425 3897 
Q 3066 4069 2747 4153 
Q 2428 4238 2131 4238 
Q 1616 4238 1336 4038 
Q 1056 3838 1056 3469 
Q 1056 3159 1242 3001 
Q 1428 2844 1947 2747 
L 2328 2669 
Q 3034 2534 3370 2195 
Q 3706 1856 3706 1288 
Q 3706 609 3251 259 
Q 2797 -91 1919 -91 
Q 1588 -91 1214 -16 
Q 841 59 441 206 
L 441 856 
Q 825 641 1194 531 
Q 1563 422 1919 422 
Q 2459 422 2753 634 
Q 3047 847 3047 1241 
Q 3047 1584 2836 1778 
Q 2625 1972 2144 2069 
L 1759 2144 
Q 1053 2284 737 2584 
Q 422 2884 422 3419 
Q 422 4038 858 4394 
Q 1294 4750 2059 4750 
Q 2388 4750 2728 4690 
Q 3069 4631 3425 4513 
z
" transform="scale(0.015625)"/>
      <path id="DejaVuSans-32" d="M 2522 4238 
Q 1834 4238 1429 3725 
Q 1025 3213 1025 2328 
Q 1025 1447 1429 934 
Q 1834 422 2522 422 
Q 3209 422 3611 934 
Q 4013 1447 4013 2328 
Q 4013 3213 3611 3725 
Q 3209 4238 2522 4238 
z
M 2522 4750 
Q 3503 4750 4090 4092 
Q 4678 3434 4678 2328 
Q 4678 1225 4090 567 
Q 3503 -91 2522 -91 
Q 1538 -91 948 565 
Q 359 1222 359 2328 
Q 359 3434 948 4092 
Q 1538 4750 2522 4750 
z
" transform="scale(0.015625)"/>
      <path id="DejaVuSans-10" d="M 313 2009 
L 1997 2009 
L 1997 1497 
L 313 1497 
L 313 2009 
z
" transform="scale(0.015625)"/>
      <path id="DejaVuSans-45" d="M 3116 1747 
Q 3116 2381 2855 2742 
Q 2594 3103 2138 3103 
Q 1681 3103 1420 2742 
Q 1159 2381 1159 1747 
Q 1159 1113 1420 752 
Q 1681 391 2138 391 
Q 2594 391 2855 752 
Q 3116 1113 3116 1747 
z
M 1159 2969 
Q 1341 3281 1617 3432 
Q 1894 3584 2278 3584 
Q 2916 3584 3314 3078 
Q 3713 2572 3713 1747 
Q 3713 922 3314 415 
Q 2916 -91 2278 -91 
Q 1894 -91 1617 61 
Q 1341 213 1159 525 
L 1159 0 
L 581 0 
L 581 4863 
L 1159 4863 
L 1159 2969 
z
" transform="scale(0.015625)"/>
     </defs>
     <use xlink:href="#DejaVuSans-b"/>
     <use xlink:href="#DejaVuSans-51" transform="translate(39.015625 0)"/>
     <use xlink:href="#DejaVuSans-20" transform="translate(102.390625 0)"/>
     <use xlink:href="#DejaVuSans-16" transform="translate(186.1875 0)"/>
     <use xlink:href="#DejaVuSans-19" transform="translate(249.8125 0)"/>
     <use xlink:href="#DejaVuSans-18" transform="translate(313.4375 0)"/>
     <use xlink:href="#DejaVuSans-3" transform="translate(377.0625 0)"/>
     <use xlink:href="#DejaVuSans-47" transform="translate(408.84375 0)"/>
     <use xlink:href="#DejaVuSans-44" transform="translate(472.328125 0)"/>
     <use xlink:href="#DejaVuSans-5c" transform="translate(533.609375 0)"/>
     <use xlink:href="#DejaVuSans-56" transform="translate(592.796875 0)"/>
     <use xlink:href="#DejaVuSans-1e" transform="translate(644.890625 0)"/>
     <use xlink:href="#DejaVuSans-3" transform="translate(678.578125 0)"/>
     <use xlink:href="#DejaVuSans-56" transform="translate(710.359375 0)"/>
     <use xlink:href="#DejaVuSans-4c" transform="translate(762.453125 0)"/>
     <use xlink:href="#DejaVuSans-50" transform="translate(790.234375 0)"/>
     <use xlink:href="#DejaVuSans-56" transform="translate(887.640625 0)"/>
     <use xlink:href="#DejaVuSans-3" transform="translate(939.734375 0)"/>
     <use xlink:href="#DejaVuSans-20" transform="translate(971.515625 0)"/>
     <use xlink:href="#DejaVuSans-3" transform="translate(1055.3125 0)"/>
     <use xlink:href="#DejaVuSans-4a" transform="translate(1087.09375 0)"/>
     <use xlink:href="#DejaVuSans-48" transform="translate(1150.578125 0)"/>
     <use xlink:href="#DejaVuSans-51" transform="translate(1212.109375 0)"/>
     <use xlink:href="#DejaVuSans-48" transform="translate(1275.484375 0)"/>
     <use xlink:href="#DejaVuSans-55" transform="translate(1337.015625 0)"/>
     <use xlink:href="#DejaVuSans-44" transform="translate(1378.125 0)"/>
     <use xlink:href="#DejaVuSans-57" transform="translate(1439.40625 0)"/>
     <use xlink:href="#DejaVuSans-4c" transform="translate(1478.609375 0)"/>
     <use xlink:href="#DejaVuSans-52" transform="translate(1506.390625 0)"/>
     <use xlink:href="#DejaVuSans-51" transform="translate(1567.578125 0)"/>
     <use xlink:href="#DejaVuSans-3" transform="translate(1630.953125 0)"/>
     <use xlink:href="#DejaVuSans-44" transform="translate(1662.734375 0)"/>
     <use xlink:href="#DejaVuSans-49" transform="translate(1724.015625 0)"/>
     <use xlink:href="#DejaVuSans-57" transform="translate(1757.46875 0)"/>
     <use xlink:href="#DejaVuSans-48" transform="translate(1796.671875 0)"/>
     <use xlink:href="#DejaVuSans-55" transform="translate(1858.203125 0)"/>
     <use xlink:href="#DejaVuSans-3" transform="translate(1899.3125 0)"/>
     <use xlink:href="#DejaVuSans-4c" transform="translate(1931.09375 0)"/>
     <use xlink:href="#DejaVuSans-51" transform="translate(1958.875 0)"/>
     <use xlink:href="#DejaVuSans-59" transform="translate(2022.25 0)"/>
     <use xlink:href="#DejaVuSans-48" transform="translate(2081.4375 0)"/>
     <use xlink:href="#DejaVuSans-55" transform="translate(2142.96875 0)"/>
     <use xlink:href="#DejaVuSans-57" transform="translate(2184.078125 0)"/>
     <use xlink:href="#DejaVuSans-48" transform="translate(2223.28125 0)"/>
     <use xlink:href="#DejaVuSans-55" transform="translate(2284.8125 0)"/>
     <use xlink:href="#DejaVuSans-12" transform="translate(2325.921875 0)"/>
     <use xlink:href="#DejaVuSans-44" transform="translate(2359.609375 0)"/>
     <use xlink:href="#DejaVuSans-4a" transform="translate(2420.890625 0)"/>
     <use xlink:href="#DejaVuSans-4c" transform="translate(2484.375 0)"/>
     <use xlink:href="#DejaVuSans-51" transform="translate(2512.15625 0)"/>
     <use xlink:href="#DejaVuSans-4a" transform="translate(2575.53125 0)"/>
     <use xlink:href="#DejaVuSans-1e" transform="translate(2639.015625 0)"/>
     <use xlink:href="#DejaVuSans-3" transform="translate(2672.703125 0)"/>
     <use xlink:href="#DejaVuSans-28" transform="translate(2704.484375 0)"/>
     <use xlink:href="#DejaVuSans-31" transform="translate(2767.671875 0)"/>
     <use xlink:href="#DejaVuSans-37" transform="translate(2842.484375 0)"/>
     <use xlink:href="#DejaVuSans-36" transform="translate(2903.5625 0)"/>
     <use xlink:href="#DejaVuSans-32" transform="translate(2967.046875 0)"/>
     <use xlink:href="#DejaVuSans-10" transform="translate(3048.546875 0)"/>
     <use xlink:href="#DejaVuSans-28" transform="translate(3084.625 0)"/>
     <use xlink:href="#DejaVuSans-3" transform="translate(3147.8125 0)"/>
     <use xlink:href="#DejaVuSans-20" transform="translate(3179.59375 0)"/>
     <use xlink:href="#DejaVuSans-3" transform="translate(3263.390625 0)"/>
     <use xlink:href="#DejaVuSans-53" transform="translate(3295.171875 0)"/>
     <use xlink:href="#DejaVuSans-58" transform="translate(3358.65625 0)"/>
     <use xlink:href="#DejaVuSans-45" transform="translate(3422.03125 0)"/>
     <use xlink:href="#DejaVuSans-4f" transform="translate(3485.515625 0)"/>
     <use xlink:href="#DejaVuSans-4c" transform="translate(3513.296875 0)"/>
     <use xlink:href="#DejaVuSans-46" transform="translate(3541.078125 0)"/>
     <use xlink:href="#DejaVuSans-3" transform="translate(3596.0625 0)"/>
     <use xlink:href="#DejaVuSans-49" transform="translate(3627.84375 0)"/>
     <use xlink:href="#DejaVuSans-48" transform="translate(3663.046875 0)"/>
     <use xlink:href="#DejaVuSans-48" transform="translate(3724.578125 0)"/>
     <use xlink:href="#DejaVuSans-47" transform="translate(3786.109375 0)"/>
     <use xlink:href="#DejaVuSans-10" transform="translate(3849.59375 0)"/>
     <use xlink:href="#DejaVuSans-4c" transform="translate(3885.671875 0)"/>
     <use xlink:href="#DejaVuSans-51" transform="translate(3913.453125 0)"/>
     <use xlink:href="#DejaVuSans-c" transform="translate(3976.828125 0)"/>
    </g>
   </g>
   <g id="legend_1">
    <g id="patch_7">
     <path d="M 506.275938 104.325703 
L 689.370937 104.325703 
Q 690.970937 104.325703 690.970937 102.725703 
L 690.970937 43.522578 
Q 690.970937 41.922578 689.370937 41.922578 
L 506.275938 41.922578 
Q 504.675938 41.922578 504.675938 43.522578 
L 504.675938 102.725703 
Q 504.675938 104.325703 506.275938 104.325703 
z
" style="fill: #ffffff; opacity: 0.95; stroke: #cccccc; stroke-linejoin: miter"/>
    </g>
    <g id="line2d_32">
     <path d="M 507.875938 48.401328 
L 515.875937 48.401328 
L 523.875937 48.401328 
" style="fill: none; stroke: #000000; stroke-width: 2; stroke-linecap: square"/>
    </g>
    <g id="text_17">
     <!-- ENTSO-E feed-in (daily max) -->
     <g transform="translate(530.275938 51.201328) scale(0.08 -0.08)">
      <use xlink:href="#DejaVuSans-28"/>
      <use xlink:href="#DejaVuSans-31" transform="translate(63.1875 0)"/>
      <use xlink:href="#DejaVuSans-37" transform="translate(138 0)"/>
      <use xlink:href="#DejaVuSans-36" transform="translate(199.078125 0)"/>
      <use xlink:href="#DejaVuSans-32" transform="translate(262.5625 0)"/>
      <use xlink:href="#DejaVuSans-10" transform="translate(344.0625 0)"/>
      <use xlink:href="#DejaVuSans-28" transform="translate(380.140625 0)"/>
      <use xlink:href="#DejaVuSans-3" transform="translate(443.328125 0)"/>
      <use xlink:href="#DejaVuSans-49" transform="translate(475.109375 0)"/>
      <use xlink:href="#DejaVuSans-48" transform="translate(510.3125 0)"/>
      <use xlink:href="#DejaVuSans-48" transform="translate(571.84375 0)"/>
      <use xlink:href="#DejaVuSans-47" transform="translate(633.375 0)"/>
      <use xlink:href="#DejaVuSans-10" transform="translate(696.859375 0)"/>
      <use xlink:href="#DejaVuSans-4c" transform="translate(732.9375 0)"/>
      <use xlink:href="#DejaVuSans-51" transform="translate(760.71875 0)"/>
      <use xlink:href="#DejaVuSans-3" transform="translate(824.09375 0)"/>
      <use xlink:href="#DejaVuSans-b" transform="translate(855.875 0)"/>
      <use xlink:href="#DejaVuSans-47" transform="translate(894.890625 0)"/>
      <use xlink:href="#DejaVuSans-44" transform="translate(958.375 0)"/>
      <use xlink:href="#DejaVuSans-4c" transform="translate(1019.65625 0)"/>
      <use xlink:href="#DejaVuSans-4f" transform="translate(1047.4375 0)"/>
      <use xlink:href="#DejaVuSans-5c" transform="translate(1075.21875 0)"/>
      <use xlink:href="#DejaVuSans-3" transform="translate(1134.40625 0)"/>
      <use xlink:href="#DejaVuSans-50" transform="translate(1166.1875 0)"/>
      <use xlink:href="#DejaVuSans-44" transform="translate(1263.59375 0)"/>
      <use xlink:href="#DejaVuSans-5b" transform="translate(1324.875 0)"/>
      <use xlink:href="#DejaVuSans-c" transform="translate(1384.0625 0)"/>
     </g>
    </g>
    <g id="line2d_33">
     <path d="M 507.875938 60.401953 
L 515.875937 60.401953 
L 523.875937 60.401953 
" style="fill: none; stroke-dasharray: 5.92,2.56; stroke-dashoffset: 0; stroke: #1f77b4; stroke-width: 1.6"/>
    </g>
    <g id="text_18">
     <!-- PVLib MaStR ×η_inv×aging (daily max) -->
     <g transform="translate(530.275938 63.201953) scale(0.08 -0.08)">
      <defs>
       <path id="DejaVuSans-39" d="M 1831 0 
L 50 4666 
L 709 4666 
L 2188 738 
L 3669 4666 
L 4325 4666 
L 2547 0 
L 1831 0 
z
" transform="scale(0.015625)"/>
       <path id="DejaVuSans-2f" d="M 628 4666 
L 1259 4666 
L 1259 531 
L 3531 531 
L 3531 0 
L 628 0 
L 628 4666 
z
" transform="scale(0.015625)"/>
       <path id="DejaVuSans-35" d="M 2841 2188 
Q 3044 2119 3236 1894 
Q 3428 1669 3622 1275 
L 4263 0 
L 3584 0 
L 2988 1197 
Q 2756 1666 2539 1819 
Q 2322 1972 1947 1972 
L 1259 1972 
L 1259 0 
L 628 0 
L 628 4666 
L 2053 4666 
Q 2853 4666 3247 4331 
Q 3641 3997 3641 3322 
Q 3641 2881 3436 2590 
Q 3231 2300 2841 2188 
z
M 1259 4147 
L 1259 2491 
L 2053 2491 
Q 2509 2491 2742 2702 
Q 2975 2913 2975 3322 
Q 2975 3731 2742 3939 
Q 2509 4147 2053 4147 
L 1259 4147 
z
" transform="scale(0.015625)"/>
       <path id="DejaVuSans-99" d="M 4488 3438 
L 3059 2003 
L 4488 575 
L 4116 197 
L 2681 1631 
L 1247 197 
L 878 575 
L 2303 2003 
L 878 3438 
L 1247 3816 
L 2681 2381 
L 4116 3816 
L 4488 3438 
z
" transform="scale(0.015625)"/>
       <path id="DejaVuSans-34b" d="M 3513 2113 
L 3513 -1331 
L 2938 -1331 
L 2938 2094 
Q 2938 2591 2744 2837 
Q 2550 3084 2163 3084 
Q 1697 3084 1428 2787 
Q 1159 2491 1159 1978 
L 1159 0 
L 581 0 
L 581 3500 
L 1159 3500 
L 1159 2956 
Q 1366 3272 1644 3428 
Q 1925 3584 2291 3584 
Q 2894 3584 3203 3213 
Q 3513 2838 3513 2113 
z
" transform="scale(0.015625)"/>
       <path id="DejaVuSans-42" d="M 3263 -1063 
L 3263 -1509 
L -63 -1509 
L -63 -1063 
L 3263 -1063 
z
" transform="scale(0.015625)"/>
      </defs>
      <use xlink:href="#DejaVuSans-33"/>
      <use xlink:href="#DejaVuSans-39" transform="translate(60.296875 0)"/>
      <use xlink:href="#DejaVuSans-2f" transform="translate(128.703125 0)"/>
      <use xlink:href="#DejaVuSans-4c" transform="translate(184.421875 0)"/>
      <use xlink:href="#DejaVuSans-45" transform="translate(212.203125 0)"/>
      <use xlink:href="#DejaVuSans-3" transform="translate(275.6875 0)"/>
      <use xlink:href="#DejaVuSans-30" transform="translate(307.46875 0)"/>
      <use xlink:href="#DejaVuSans-44" transform="translate(393.75 0)"/>
      <use xlink:href="#DejaVuSans-36" transform="translate(455.03125 0)"/>
      <use xlink:href="#DejaVuSans-57" transform="translate(518.515625 0)"/>
      <use xlink:href="#DejaVuSans-35" transform="translate(557.71875 0)"/>
      <use xlink:href="#DejaVuSans-3" transform="translate(627.203125 0)"/>
      <use xlink:href="#DejaVuSans-99" transform="translate(658.984375 0)"/>
      <use xlink:href="#DejaVuSans-34b" transform="translate(742.78125 0)"/>
      <use xlink:href="#DejaVuSans-42" transform="translate(806.15625 0)"/>
      <use xlink:href="#DejaVuSans-4c" transform="translate(856.15625 0)"/>
      <use xlink:href="#DejaVuSans-51" transform="translate(883.9375 0)"/>
      <use xlink:href="#DejaVuSans-59" transform="translate(947.3125 0)"/>
      <use xlink:href="#DejaVuSans-99" transform="translate(1006.5 0)"/>
      <use xlink:href="#DejaVuSans-44" transform="translate(1090.296875 0)"/>
      <use xlink:href="#DejaVuSans-4a" transform="translate(1151.578125 0)"/>
      <use xlink:href="#DejaVuSans-4c" transform="translate(1215.0625 0)"/>
      <use xlink:href="#DejaVuSans-51" transform="translate(1242.84375 0)"/>
      <use xlink:href="#DejaVuSans-4a" transform="translate(1306.21875 0)"/>
      <use xlink:href="#DejaVuSans-3" transform="translate(1369.703125 0)"/>
      <use xlink:href="#DejaVuSans-b" transform="translate(1401.484375 0)"/>
      <use xlink:href="#DejaVuSans-47" transform="translate(1440.5 0)"/>
      <use xlink:href="#DejaVuSans-44" transform="translate(1503.984375 0)"/>
      <use xlink:href="#DejaVuSans-4c" transform="translate(1565.265625 0)"/>
      <use xlink:href="#DejaVuSans-4f" transform="translate(1593.046875 0)"/>
      <use xlink:href="#DejaVuSans-5c" transform="translate(1620.828125 0)"/>
      <use xlink:href="#DejaVuSans-3" transform="translate(1680.015625 0)"/>
      <use xlink:href="#DejaVuSans-50" transform="translate(1711.796875 0)"/>
      <use xlink:href="#DejaVuSans-44" transform="translate(1809.203125 0)"/>
      <use xlink:href="#DejaVuSans-5b" transform="translate(1870.484375 0)"/>
      <use xlink:href="#DejaVuSans-c" transform="translate(1929.671875 0)"/>
     </g>
    </g>
    <g id="line2d_34">
     <path d="M 507.875938 72.402578 
L 515.875937 72.402578 
L 523.875937 72.402578 
" style="fill: none; stroke-dasharray: 10.24,2.56,1.6,2.56; stroke-dashoffset: 0; stroke: #2ca02c; stroke-width: 1.6"/>
    </g>
    <g id="text_19">
     <!-- Atlite CSi ×aging (daily max) -->
     <g transform="translate(530.275938 75.202578) scale(0.08 -0.08)">
      <defs>
       <path id="DejaVuSans-24" d="M 2188 4044 
L 1331 1722 
L 3047 1722 
L 2188 4044 
z
M 1831 4666 
L 2547 4666 
L 4325 0 
L 3669 0 
L 3244 1197 
L 1141 1197 
L 716 0 
L 50 0 
L 1831 4666 
z
" transform="scale(0.015625)"/>
       <path id="DejaVuSans-26" d="M 4122 4306 
L 4122 3641 
Q 3803 3938 3442 4084 
Q 3081 4231 2675 4231 
Q 1875 4231 1450 3742 
Q 1025 3253 1025 2328 
Q 1025 1406 1450 917 
Q 1875 428 2675 428 
Q 3081 428 3442 575 
Q 3803 722 4122 1019 
L 4122 359 
Q 3791 134 3420 21 
Q 3050 -91 2638 -91 
Q 1578 -91 968 557 
Q 359 1206 359 2328 
Q 359 3453 968 4101 
Q 1578 4750 2638 4750 
Q 3056 4750 3426 4639 
Q 3797 4528 4122 4306 
z
" transform="scale(0.015625)"/>
      </defs>
      <use xlink:href="#DejaVuSans-24"/>
      <use xlink:href="#DejaVuSans-57" transform="translate(66.65625 0)"/>
      <use xlink:href="#DejaVuSans-4f" transform="translate(105.859375 0)"/>
      <use xlink:href="#DejaVuSans-4c" transform="translate(133.640625 0)"/>
      <use xlink:href="#DejaVuSans-57" transform="translate(161.421875 0)"/>
      <use xlink:href="#DejaVuSans-48" transform="translate(200.625 0)"/>
      <use xlink:href="#DejaVuSans-3" transform="translate(262.15625 0)"/>
      <use xlink:href="#DejaVuSans-26" transform="translate(293.9375 0)"/>
      <use xlink:href="#DejaVuSans-36" transform="translate(363.765625 0)"/>
      <use xlink:href="#DejaVuSans-4c" transform="translate(427.25 0)"/>
      <use xlink:href="#DejaVuSans-3" transform="translate(455.03125 0)"/>
      <use xlink:href="#DejaVuSans-99" transform="translate(486.8125 0)"/>
      <use xlink:href="#DejaVuSans-44" transform="translate(570.609375 0)"/>
      <use xlink:href="#DejaVuSans-4a" transform="translate(631.890625 0)"/>
      <use xlink:href="#DejaVuSans-4c" transform="translate(695.375 0)"/>
      <use xlink:href="#DejaVuSans-51" transform="translate(723.15625 0)"/>
      <use xlink:href="#DejaVuSans-4a" transform="translate(786.53125 0)"/>
      <use xlink:href="#DejaVuSans-3" transform="translate(850.015625 0)"/>
      <use xlink:href="#DejaVuSans-b" transform="translate(881.796875 0)"/>
      <use xlink:href="#DejaVuSans-47" transform="translate(920.8125 0)"/>
      <use xlink:href="#DejaVuSans-44" transform="translate(984.296875 0)"/>
      <use xlink:href="#DejaVuSans-4c" transform="translate(1045.578125 0)"/>
      <use xlink:href="#DejaVuSans-4f" transform="translate(1073.359375 0)"/>
      <use xlink:href="#DejaVuSans-5c" transform="translate(1101.140625 0)"/>
      <use xlink:href="#DejaVuSans-3" transform="translate(1160.328125 0)"/>
      <use xlink:href="#DejaVuSans-50" transform="translate(1192.109375 0)"/>
      <use xlink:href="#DejaVuSans-44" transform="translate(1289.515625 0)"/>
      <use xlink:href="#DejaVuSans-5b" transform="translate(1350.796875 0)"/>
      <use xlink:href="#DejaVuSans-c" transform="translate(1409.984375 0)"/>
     </g>
    </g>
    <g id="line2d_35">
     <path d="M 507.875938 84.403203 
L 515.875937 84.403203 
L 523.875937 84.403203 
" style="fill: none; stroke-dasharray: 1,1.65; stroke-dashoffset: 0; stroke: #1f77b4; stroke-opacity: 0.8"/>
    </g>
    <g id="text_20">
     <!-- PVLib ×0.62 (illustrative) -->
     <g transform="translate(530.275938 87.203203) scale(0.08 -0.08)">
      <defs>
       <path id="DejaVuSans-11" d="M 684 794 
L 1344 794 
L 1344 0 
L 684 0 
L 684 794 
z
" transform="scale(0.015625)"/>
      </defs>
      <use xlink:href="#DejaVuSans-33"/>
      <use xlink:href="#DejaVuSans-39" transform="translate(60.296875 0)"/>
      <use xlink:href="#DejaVuSans-2f" transform="translate(128.703125 0)"/>
      <use xlink:href="#DejaVuSans-4c" transform="translate(184.421875 0)"/>
      <use xlink:href="#DejaVuSans-45" transform="translate(212.203125 0)"/>
      <use xlink:href="#DejaVuSans-3" transform="translate(275.6875 0)"/>
      <use xlink:href="#DejaVuSans-99" transform="translate(307.46875 0)"/>
      <use xlink:href="#DejaVuSans-13" transform="translate(391.265625 0)"/>
      <use xlink:href="#DejaVuSans-11" transform="translate(454.890625 0)"/>
      <use xlink:href="#DejaVuSans-19" transform="translate(486.671875 0)"/>
      <use xlink:href="#DejaVuSans-15" transform="translate(550.296875 0)"/>
      <use xlink:href="#DejaVuSans-3" transform="translate(613.921875 0)"/>
      <use xlink:href="#DejaVuSans-b" transform="translate(645.703125 0)"/>
      <use xlink:href="#DejaVuSans-4c" transform="translate(684.71875 0)"/>
      <use xlink:href="#DejaVuSans-4f" transform="translate(712.5 0)"/>
      <use xlink:href="#DejaVuSans-4f" transform="translate(740.28125 0)"/>
      <use xlink:href="#DejaVuSans-58" transform="translate(768.0625 0)"/>
      <use xlink:href="#DejaVuSans-56" transform="translate(831.4375 0)"/>
      <use xlink:href="#DejaVuSans-57" transform="translate(883.53125 0)"/>
      <use xlink:href="#DejaVuSans-55" transform="translate(922.734375 0)"/>
      <use xlink:href="#DejaVuSans-44" transform="translate(963.84375 0)"/>
      <use xlink:href="#DejaVuSans-57" transform="translate(1025.125 0)"/>
      <use xlink:href="#DejaVuSans-4c" transform="translate(1064.328125 0)"/>
      <use xlink:href="#DejaVuSans-59" transform="translate(1092.109375 0)"/>
      <use xlink:href="#DejaVuSans-48" transform="translate(1151.296875 0)"/>
      <use xlink:href="#DejaVuSans-c" transform="translate(1212.828125 0)"/>
     </g>
    </g>
    <g id="line2d_36">
     <path d="M 507.875938 96.403828 
L 515.875937 96.403828 
L 523.875937 96.403828 
" style="fill: none; stroke-dasharray: 1,1.65; stroke-dashoffset: 0; stroke: #2ca02c; stroke-opacity: 0.8"/>
    </g>
    <g id="text_21">
     <!-- Atlite ×0.62 (illustrative) -->
     <g transform="translate(530.275938 99.203828) scale(0.08 -0.08)">
      <use xlink:href="#DejaVuSans-24"/>
      <use xlink:href="#DejaVuSans-57" transform="translate(66.65625 0)"/>
      <use xlink:href="#DejaVuSans-4f" transform="translate(105.859375 0)"/>
      <use xlink:href="#DejaVuSans-4c" transform="translate(133.640625 0)"/>
      <use xlink:href="#DejaVuSans-57" transform="translate(161.421875 0)"/>
      <use xlink:href="#DejaVuSans-48" transform="translate(200.625 0)"/>
      <use xlink:href="#DejaVuSans-3" transform="translate(262.15625 0)"/>
      <use xlink:href="#DejaVuSans-99" transform="translate(293.9375 0)"/>
      <use xlink:href="#DejaVuSans-13" transform="translate(377.734375 0)"/>
      <use xlink:href="#DejaVuSans-11" transform="translate(441.359375 0)"/>
      <use xlink:href="#DejaVuSans-19" transform="translate(473.140625 0)"/>
      <use xlink:href="#DejaVuSans-15" transform="translate(536.765625 0)"/>
      <use xlink:href="#DejaVuSans-3" transform="translate(600.390625 0)"/>
      <use xlink:href="#DejaVuSans-b" transform="translate(632.171875 0)"/>
      <use xlink:href="#DejaVuSans-4c" transform="translate(671.1875 0)"/>
      <use xlink:href="#DejaVuSans-4f" transform="translate(698.96875 0)"/>
      <use xlink:href="#DejaVuSans-4f" transform="translate(726.75 0)"/>
      <use xlink:href="#DejaVuSans-58" transform="translate(754.53125 0)"/>
      <use xlink:href="#DejaVuSans-56" transform="translate(817.90625 0)"/>
      <use xlink:href="#DejaVuSans-57" transform="translate(870 0)"/>
      <use xlink:href="#DejaVuSans-55" transform="translate(909.203125 0)"/>
      <use xlink:href="#DejaVuSans-44" transform="translate(950.3125 0)"/>
      <use xlink:href="#DejaVuSans-57" transform="translate(1011.59375 0)"/>
      <use xlink:href="#DejaVuSans-4c" transform="translate(1050.796875 0)"/>
      <use xlink:href="#DejaVuSans-59" transform="translate(1078.578125 0)"/>
      <use xlink:href="#DejaVuSans-48" transform="translate(1137.765625 0)"/>
      <use xlink:href="#DejaVuSans-c" transform="translate(1199.296875 0)"/>
     </g>
    </g>
   </g>
  </g>
 </g>
 <defs>
  <clipPath id="p71f38c729d">
   <rect x="60.013281" y="37.922578" width="634.957656" height="311.871328"/>
  </clipPath>
 </defs>
</svg>
